solid OpenSCAD_Model
  facet normal 0.19151 -0.33569 -0.922299
    outer loop
      vertex -17.85 -0.513893 -4.33571
      vertex -15.8 -0.377085 -3.95984
      vertex -17.85 -1.45359 -3.99369
    endloop
  endfacet
  facet normal 0.19151 -0.33569 -0.922299
    outer loop
      vertex -17.85 -1.45359 -3.99369
      vertex -15.8 -0.377085 -3.95984
      vertex -15.8 -1.31678 -3.61782
    endloop
  endfacet
  facet normal 0 0.939693 -0.34202
    outer loop
      vertex -17.85 -0.513893 -4.33571
      vertex -17.85 -0.29158 -3.72491
      vertex -15.8 -0.377085 -3.95984
    endloop
  endfacet
  facet normal 0 0.939693 -0.34202
    outer loop
      vertex -15.8 -0.377085 -3.95984
      vertex -17.85 -0.29158 -3.72491
      vertex -2.75 0.905491 -0.435989
    endloop
  endfacet
  facet normal 0 0.939693 -0.34202
    outer loop
      vertex -2.75 0.905491 -0.435989
      vertex -17.8 0.819986 -0.670913
      vertex -17.7 1.0081 -0.154082
    endloop
  endfacet
  facet normal 0 0.939693 -0.34202
    outer loop
      vertex -2.75 0.905491 -0.435989
      vertex -17.7 1.0081 -0.154082
      vertex -11.35 1.0081 -0.154082
    endloop
  endfacet
  facet normal 0 0.939693 -0.34202
    outer loop
      vertex -2.75 0.905491 -0.435989
      vertex -11.35 1.0081 -0.154082
      vertex -8.15 1.0936 0.0808415
    endloop
  endfacet
  facet normal 0 0.939693 -0.34202
    outer loop
      vertex -2.75 0.905491 -0.435989
      vertex -8.15 1.0936 0.0808415
      vertex -3.75 1.0594 -0.0131277
    endloop
  endfacet
  facet normal 0 0.939693 -0.34202
    outer loop
      vertex -2.75 0.905491 -0.435989
      vertex -3.75 1.0594 -0.0131277
      vertex 0.15 1.0936 0.0808415
    endloop
  endfacet
  facet normal 0 0.939693 -0.34202
    outer loop
      vertex -2.75 0.905491 -0.435989
      vertex 0.15 1.0936 0.0808415
      vertex -15.8 -0.377085 -3.95984
    endloop
  endfacet
  facet normal 0 0.939693 -0.34202
    outer loop
      vertex 0.45 0.871289 -0.529959
      vertex 0.15 1.0936 0.0808415
      vertex 3.75 1.0765 0.0338569
    endloop
  endfacet
  facet normal 0 0.939693 -0.34202
    outer loop
      vertex -10.05 0.118844 -2.59728
      vertex -15.8 -0.377085 -3.95984
      vertex -2.3 0.802885 -0.717897
    endloop
  endfacet
  facet normal 0 0.939693 -0.34202
    outer loop
      vertex 0.45 0.871289 -0.529959
      vertex 3.75 1.0765 0.0338569
      vertex 6.45 1.0423 -0.0601124
    endloop
  endfacet
  facet normal 0 0.939693 -0.34202
    outer loop
      vertex 6.35 0.905491 -0.435989
      vertex 9.85 1.0594 -0.0131277
      vertex 9.2 0.956794 -0.295036
    endloop
  endfacet
  facet normal 0 0.939693 -0.34202
    outer loop
      vertex 9.85 0.837087 -0.623928
      vertex 7.5 0.512167 -1.51664
      vertex 7.45 0.683178 -1.04679
    endloop
  endfacet
  facet normal 0 0.939693 -0.34202
    outer loop
      vertex 9.85 1.0594 -0.0131277
      vertex 9.85 0.837087 -0.623928
      vertex 9.2 0.956794 -0.295036
    endloop
  endfacet
  facet normal 0 0.939693 -0.34202
    outer loop
      vertex 0.45 0.871289 -0.529959
      vertex 6.45 1.0423 -0.0601124
      vertex 6.35 0.905491 -0.435989
    endloop
  endfacet
  facet normal 0 0.939693 -0.34202
    outer loop
      vertex 6.45 1.0423 -0.0601124
      vertex 9.85 1.0594 -0.0131277
      vertex 6.35 0.905491 -0.435989
    endloop
  endfacet
  facet normal 0 0.939693 -0.34202
    outer loop
      vertex -4.2 -1.64256 -7.4367
      vertex -1.75 0.837087 -0.623928
      vertex -1.4 0.88839 -0.482974
    endloop
  endfacet
  facet normal 0 0.939693 -0.34202
    outer loop
      vertex -1.4 0.88839 -0.482974
      vertex 0.15 1.0936 0.0808415
      vertex 0.45 0.871289 -0.529959
    endloop
  endfacet
  facet normal 0 0.939693 -0.34202
    outer loop
      vertex -15.8 -0.377085 -3.95984
      vertex 0.15 1.0936 0.0808415
      vertex -1.4 0.88839 -0.482974
    endloop
  endfacet
  facet normal 0 0.939693 -0.34202
    outer loop
      vertex -1.75 0.837087 -0.623928
      vertex -4.2 -1.64256 -7.4367
      vertex -4.65 -1.60836 -7.34273
    endloop
  endfacet
  facet normal 0 0.939693 -0.34202
    outer loop
      vertex -4.2 -1.64256 -7.4367
      vertex -4.45 -1.69386 -7.57765
      vertex -4.65 -1.60836 -7.34273
    endloop
  endfacet
  facet normal 0 0.939693 -0.34202
    outer loop
      vertex -2.3 0.802885 -0.717897
      vertex -1.4 0.88839 -0.482974
      vertex -1.75 0.837087 -0.623928
    endloop
  endfacet
  facet normal 0 0.939693 -0.34202
    outer loop
      vertex -15.8 -0.377085 -3.95984
      vertex -1.4 0.88839 -0.482974
      vertex -2.3 0.802885 -0.717897
    endloop
  endfacet
  facet normal 0 0.939693 -0.34202
    outer loop
      vertex 9.2 0.956794 -0.295036
      vertex 9.85 0.837087 -0.623928
      vertex 7.45 0.683178 -1.04679
    endloop
  endfacet
  facet normal -1 0 0
    outer loop
      vertex -17.85 -0.513893 -4.33571
      vertex -17.85 -1.45359 -3.99369
      vertex -17.85 -0.29158 -3.72491
    endloop
  endfacet
  facet normal -1 0 0
    outer loop
      vertex -17.85 -0.29158 -3.72491
      vertex -17.85 -1.45359 -3.99369
      vertex -17.85 -1.23127 -3.38289
    endloop
  endfacet
  facet normal 0 -0.939693 0.34202
    outer loop
      vertex -1.4 -0.051303 -0.140954
      vertex 0.15 0.153909 0.422862
      vertex -17.85 -1.23127 -3.38289
    endloop
  endfacet
  facet normal 0 -0.939693 0.34202
    outer loop
      vertex -17.85 -1.23127 -3.38289
      vertex -17.85 -1.45359 -3.99369
      vertex -15.8 -1.31678 -3.61782
    endloop
  endfacet
  facet normal 0 -0.939693 0.34202
    outer loop
      vertex -2.3 -0.136808 -0.375877
      vertex -17.85 -1.23127 -3.38289
      vertex -10.05 -0.820848 -2.25526
    endloop
  endfacet
  facet normal 0 -0.939693 0.34202
    outer loop
      vertex -10.05 -0.820848 -2.25526
      vertex -17.85 -1.23127 -3.38289
      vertex -15.8 -1.31678 -3.61782
    endloop
  endfacet
  facet normal 0 -0.939693 0.34202
    outer loop
      vertex -1.4 -0.051303 -0.140954
      vertex -17.85 -1.23127 -3.38289
      vertex -2.3 -0.136808 -0.375877
    endloop
  endfacet
  facet normal 0 -0.939693 0.34202
    outer loop
      vertex -1.4 -0.051303 -0.140954
      vertex -2.3 -0.136808 -0.375877
      vertex -1.75 -0.102606 -0.281908
    endloop
  endfacet
  facet normal 0 -0.939693 0.34202
    outer loop
      vertex -4.45 -2.63356 -7.23563
      vertex -1.75 -0.102606 -0.281908
      vertex -4.65 -2.54805 -7.00071
    endloop
  endfacet
  facet normal 0 -0.939693 0.34202
    outer loop
      vertex -4.45 -2.63356 -7.23563
      vertex -4.2 -2.58225 -7.09468
      vertex -1.75 -0.102606 -0.281908
    endloop
  endfacet
  facet normal 0 -0.939693 0.34202
    outer loop
      vertex 7.7 -0.291176 -0.8
      vertex 7.76818 -0.390445 -1.07274
      vertex 9.2 0.017101 0.0469846
    endloop
  endfacet
  facet normal 0 -0.939693 0.34202
    outer loop
      vertex -4.2 -2.58225 -7.09468
      vertex -1.4 -0.051303 -0.140954
      vertex -1.75 -0.102606 -0.281908
    endloop
  endfacet
  facet normal 0 -0.939693 0.34202
    outer loop
      vertex 0.45 -0.068404 -0.187939
      vertex 4.86101 -0.0428336 -0.117684
      vertex -1.4 -0.051303 -0.140954
    endloop
  endfacet
  facet normal 0 -0.939693 0.34202
    outer loop
      vertex 4.9125 0 0
      vertex 9.85 0.119707 0.328892
      vertex -1.4 -0.051303 -0.140954
    endloop
  endfacet
  facet normal 0 -0.939693 0.34202
    outer loop
      vertex 6.76926 -0.0266548 -0.0732335
      vertex 9.2 0.017101 0.0469846
      vertex 6.75357 0 0
    endloop
  endfacet
  facet normal 0 -0.939693 0.34202
    outer loop
      vertex 4.86101 -0.0428336 -0.117684
      vertex 4.9125 0 0
      vertex -1.4 -0.051303 -0.140954
    endloop
  endfacet
  facet normal 0 -0.939693 0.34202
    outer loop
      vertex 6.75357 0 0
      vertex 9.2 0.017101 0.0469846
      vertex 4.9125 0 0
    endloop
  endfacet
  facet normal 0 -0.939693 0.34202
    outer loop
      vertex 9.2 0.017101 0.0469846
      vertex 9.85 0.119707 0.328892
      vertex 4.9125 0 0
    endloop
  endfacet
  facet normal 0 -0.939693 0.34202
    outer loop
      vertex -17.8 -0.119707 -0.328892
      vertex -11.35 0.068404 0.187939
      vertex -17.7 0.068404 0.187939
    endloop
  endfacet
  facet normal 0 -0.939693 0.34202
    outer loop
      vertex 7.46635 -0.312437 -0.858412
      vertex 9.2 0.017101 0.0469846
      vertex 7.45 -0.256515 -0.704769
    endloop
  endfacet
  facet normal 0 -0.939693 0.34202
    outer loop
      vertex -17.8 -0.119707 -0.328892
      vertex -8.15 0.153909 0.422862
      vertex -11.35 0.068404 0.187939
    endloop
  endfacet
  facet normal 0 -0.939693 0.34202
    outer loop
      vertex 6.45 0.102606 0.281908
      vertex 3.75 0.136808 0.375877
      vertex -1.4 -0.051303 -0.140954
    endloop
  endfacet
  facet normal 0 -0.939693 0.34202
    outer loop
      vertex 7.76818 -0.390445 -1.07274
      vertex 9.85 -0.102606 -0.281908
      vertex 9.2 0.017101 0.0469846
    endloop
  endfacet
  facet normal 0 -0.939693 0.34202
    outer loop
      vertex 9.85 -0.102606 -0.281908
      vertex 9.85 0.119707 0.328892
      vertex 9.2 0.017101 0.0469846
    endloop
  endfacet
  facet normal 0 -0.939693 0.34202
    outer loop
      vertex 9.85 0.119707 0.328892
      vertex 6.45 0.102606 0.281908
      vertex -1.4 -0.051303 -0.140954
    endloop
  endfacet
  facet normal 0 -0.939693 0.34202
    outer loop
      vertex 3.75 0.136808 0.375877
      vertex 0.15 0.153909 0.422862
      vertex -1.4 -0.051303 -0.140954
    endloop
  endfacet
  facet normal 0 -0.939693 0.34202
    outer loop
      vertex 0.15 0.153909 0.422862
      vertex -2.75 -0.034202 -0.0939693
      vertex -17.85 -1.23127 -3.38289
    endloop
  endfacet
  facet normal 0 -0.939693 0.34202
    outer loop
      vertex 0.15 0.153909 0.422862
      vertex -3.75 0.119707 0.328892
      vertex -2.75 -0.034202 -0.0939693
    endloop
  endfacet
  facet normal 0 -0.939693 0.34202
    outer loop
      vertex 7.46635 -0.312437 -0.858412
      vertex 7.7 -0.291176 -0.8
      vertex 9.2 0.017101 0.0469846
    endloop
  endfacet
  facet normal 0 -0.939693 0.34202
    outer loop
      vertex -17.8 -0.119707 -0.328892
      vertex -3.75 0.119707 0.328892
      vertex -8.15 0.153909 0.422862
    endloop
  endfacet
  facet normal 0 -0.939693 0.34202
    outer loop
      vertex -17.8 -0.119707 -0.328892
      vertex -2.75 -0.034202 -0.0939693
      vertex -3.75 0.119707 0.328892
    endloop
  endfacet
  facet normal 0.244519 -0.331638 -0.911168
    outer loop
      vertex -15.8 -0.377085 -3.95984
      vertex -10.05 0.118844 -2.59728
      vertex -15.8 -1.31678 -3.61782
    endloop
  endfacet
  facet normal 0.244519 -0.331638 -0.911168
    outer loop
      vertex -15.8 -1.31678 -3.61782
      vertex -10.05 0.118844 -2.59728
      vertex -10.05 -0.820848 -2.25526
    endloop
  endfacet
  facet normal 0.249878 -0.33117 -0.909883
    outer loop
      vertex -10.05 0.118844 -2.59728
      vertex -2.3 0.802885 -0.717897
      vertex -10.05 -0.820848 -2.25526
    endloop
  endfacet
  facet normal 0.249878 -0.33117 -0.909883
    outer loop
      vertex -10.05 -0.820848 -2.25526
      vertex -2.3 0.802885 -0.717897
      vertex -2.3 -0.136808 -0.375877
    endloop
  endfacet
  facet normal 0.178885 -0.336503 -0.924535
    outer loop
      vertex -2.3 0.802885 -0.717897
      vertex -1.75 0.837087 -0.623928
      vertex -2.3 -0.136808 -0.375877
    endloop
  endfacet
  facet normal 0.178885 -0.336503 -0.924535
    outer loop
      vertex -2.3 -0.136808 -0.375877
      vertex -1.75 0.837087 -0.623928
      vertex -1.75 -0.102606 -0.281908
    endloop
  endfacet
  facet normal -0.926678 0.12855 0.353189
    outer loop
      vertex -4.65 -1.60836 -7.34273
      vertex -4.65 -2.54805 -7.00071
      vertex -1.75 0.837087 -0.623928
    endloop
  endfacet
  facet normal -0.926678 0.12855 0.353189
    outer loop
      vertex -1.75 0.837087 -0.623928
      vertex -4.65 -2.54805 -7.00071
      vertex -1.75 -0.102606 -0.281908
    endloop
  endfacet
  facet normal -0.780869 -0.213658 -0.587021
    outer loop
      vertex -4.65 -1.60836 -7.34273
      vertex -4.45 -1.69386 -7.57765
      vertex -4.65 -2.54805 -7.00071
    endloop
  endfacet
  facet normal -0.780869 -0.213658 -0.587021
    outer loop
      vertex -4.65 -2.54805 -7.00071
      vertex -4.45 -1.69386 -7.57765
      vertex -4.45 -2.63356 -7.23563
    endloop
  endfacet
  facet normal 0.514496 -0.29328 -0.80578
    outer loop
      vertex -4.45 -1.69386 -7.57765
      vertex -4.2 -1.64256 -7.4367
      vertex -4.45 -2.63356 -7.23563
    endloop
  endfacet
  facet normal 0.514496 -0.29328 -0.80578
    outer loop
      vertex -4.45 -2.63356 -7.23563
      vertex -4.2 -1.64256 -7.4367
      vertex -4.2 -2.58225 -7.09468
    endloop
  endfacet
  facet normal 0.935286 -0.121038 -0.33255
    outer loop
      vertex -4.2 -2.58225 -7.09468
      vertex -4.2 -1.64256 -7.4367
      vertex -1.4 0.88839 -0.482974
    endloop
  endfacet
  facet normal 0.935286 -0.121038 -0.33255
    outer loop
      vertex -1.4 -0.051303 -0.140954
      vertex -4.2 -2.58225 -7.09468
      vertex -1.4 0.88839 -0.482974
    endloop
  endfacet
  facet normal -0.0270172 -0.341895 -0.93935
    outer loop
      vertex -1.4 0.88839 -0.482974
      vertex 0.45 0.871289 -0.529959
      vertex -1.4 -0.051303 -0.140954
    endloop
  endfacet
  facet normal -0.0270172 -0.341895 -0.93935
    outer loop
      vertex -1.4 -0.051303 -0.140954
      vertex 0.45 0.871289 -0.529959
      vertex 0.45 -0.068404 -0.187939
    endloop
  endfacet
  facet normal 0.0169467 -0.341971 -0.939558
    outer loop
      vertex 0.45 0.871289 -0.529959
      vertex 6.35 0.905491 -0.435989
      vertex 0.45 -0.068404 -0.187939
    endloop
  endfacet
  facet normal 0.0169467 -0.341971 -0.939558
    outer loop
      vertex 4.85414 -2.96204e-17 -0.133399
      vertex 6.35 0.905491 -0.435989
      vertex 6.35 -2.36295e-17 -0.106418
    endloop
  endfacet
  facet normal 0.0169467 -0.341971 -0.939558
    outer loop
      vertex 0.45 -0.068404 -0.187939
      vertex 6.35 0.905491 -0.435989
      vertex 4.85414 -2.96204e-17 -0.133399
    endloop
  endfacet
  facet normal 0.0169467 -0.341971 -0.939558
    outer loop
      vertex 4.86101 -0.0428336 -0.117684
      vertex 0.45 -0.068404 -0.187939
      vertex 4.85414 -2.96204e-17 -0.133399
    endloop
  endfacet
  facet normal 0.0525588 -0.341547 -0.938394
    outer loop
      vertex 6.35 0.905491 -0.435989
      vertex 9.2 0.956794 -0.295036
      vertex 6.35 -2.36295e-17 -0.106418
    endloop
  endfacet
  facet normal 0.0525588 -0.341547 -0.938394
    outer loop
      vertex 6.35 -2.36295e-17 -0.106418
      vertex 9.2 0.956794 -0.295036
      vertex 9.2 0.017101 0.0469846
    endloop
  endfacet
  facet normal 0.0525588 -0.341547 -0.938394
    outer loop
      vertex 6.77132 -1.83897e-17 -0.08282
      vertex 9.2 0.017101 0.0469846
      vertex 6.76926 -0.0266548 -0.0732335
    endloop
  endfacet
  facet normal 0.0525588 -0.341547 -0.938394
    outer loop
      vertex 6.35 -2.36295e-17 -0.106418
      vertex 9.2 0.017101 0.0469846
      vertex 6.77132 -1.83897e-17 -0.08282
    endloop
  endfacet
  facet normal -0.41576 0.311059 0.854626
    outer loop
      vertex 9.2 0.956794 -0.295036
      vertex 7.45 0.683178 -1.04679
      vertex 7.45 -0.256515 -0.704769
    endloop
  endfacet
  facet normal -0.41576 0.311059 0.854626
    outer loop
      vertex 9.2 0.017101 0.0469846
      vertex 9.2 0.956794 -0.295036
      vertex 7.45 -0.256515 -0.704769
    endloop
  endfacet
  facet normal -0.995037 -0.0340323 -0.0935029
    outer loop
      vertex 7.46635 -0.312437 -0.858412
      vertex 7.45 -0.256515 -0.704769
      vertex 7.45591 -1.91185e-16 -0.861023
    endloop
  endfacet
  facet normal -0.995037 -0.0340323 -0.0935029
    outer loop
      vertex 7.45 0.683178 -1.04679
      vertex 7.5 0.512167 -1.51664
      vertex 7.45591 -1.91185e-16 -0.861023
    endloop
  endfacet
  facet normal -0.995037 -0.0340323 -0.0935029
    outer loop
      vertex 7.45 0.683178 -1.04679
      vertex 7.45591 -1.91185e-16 -0.861023
      vertex 7.45 -0.256515 -0.704769
    endloop
  endfacet
  facet normal -0.995037 -0.0340323 -0.0935029
    outer loop
      vertex 7.45591 -1.91185e-16 -0.861023
      vertex 7.5 0.512167 -1.51664
      vertex 7.5 -2.95369e-16 -1.33022
    endloop
  endfacet
  facet normal 0.374789 -0.31709 -0.871198
    outer loop
      vertex 7.5 0.512167 -1.51664
      vertex 9.85 0.837087 -0.623928
      vertex 7.5 -2.95369e-16 -1.33022
    endloop
  endfacet
  facet normal 0.374789 -0.31709 -0.871198
    outer loop
      vertex 7.8 -0.00319355 -1.2
      vertex 9.85 0.837087 -0.623928
      vertex 9.85 -0.102606 -0.281908
    endloop
  endfacet
  facet normal 0.374789 -0.31709 -0.871198
    outer loop
      vertex 7.80098 -2.66618e-16 -1.20074
      vertex 9.85 0.837087 -0.623928
      vertex 7.8 -0.00319355 -1.2
    endloop
  endfacet
  facet normal 0.374789 -0.31709 -0.871198
    outer loop
      vertex 7.5 -2.95369e-16 -1.33022
      vertex 9.85 0.837087 -0.623928
      vertex 7.80098 -2.66618e-16 -1.20074
    endloop
  endfacet
  facet normal 0.374789 -0.31709 -0.871198
    outer loop
      vertex 7.8 -0.00319355 -1.2
      vertex 9.85 -0.102606 -0.281908
      vertex 7.76818 -0.390445 -1.07274
    endloop
  endfacet
  facet normal 1 0 0
    outer loop
      vertex 9.85 -0.102606 -0.281908
      vertex 9.85 0.837087 -0.623928
      vertex 9.85 1.0594 -0.0131277
    endloop
  endfacet
  facet normal 1 0 0
    outer loop
      vertex 9.85 0.119707 0.328892
      vertex 9.85 -0.102606 -0.281908
      vertex 9.85 1.0594 -0.0131277
    endloop
  endfacet
  facet normal -0.0147043 0.341983 0.939591
    outer loop
      vertex 9.85 1.0594 -0.0131277
      vertex 6.45 1.0423 -0.0601124
      vertex 6.45 0.102606 0.281908
    endloop
  endfacet
  facet normal -0.0147043 0.341983 0.939591
    outer loop
      vertex 9.85 0.119707 0.328892
      vertex 9.85 1.0594 -0.0131277
      vertex 6.45 0.102606 0.281908
    endloop
  endfacet
  facet normal 0.0370117 0.341786 0.939049
    outer loop
      vertex 6.45 1.0423 -0.0601124
      vertex 3.75 1.0765 0.0338569
      vertex 3.75 0.136808 0.375877
    endloop
  endfacet
  facet normal 0.0370117 0.341786 0.939049
    outer loop
      vertex 6.45 0.102606 0.281908
      vertex 6.45 1.0423 -0.0601124
      vertex 3.75 0.136808 0.375877
    endloop
  endfacet
  facet normal 0.0138875 0.341987 0.939602
    outer loop
      vertex 3.75 1.0765 0.0338569
      vertex 0.15 1.0936 0.0808415
      vertex 0.15 0.153909 0.422862
    endloop
  endfacet
  facet normal 0.0138875 0.341987 0.939602
    outer loop
      vertex 3.75 0.136808 0.375877
      vertex 3.75 1.0765 0.0338569
      vertex 0.15 0.153909 0.422862
    endloop
  endfacet
  facet normal -0.0256326 0.341908 0.939384
    outer loop
      vertex 0.15 1.0936 0.0808415
      vertex -3.75 1.0594 -0.0131277
      vertex -3.75 0.119707 0.328892
    endloop
  endfacet
  facet normal -0.0256326 0.341908 0.939384
    outer loop
      vertex 0.15 0.153909 0.422862
      vertex 0.15 1.0936 0.0808415
      vertex -3.75 0.119707 0.328892
    endloop
  endfacet
  facet normal 0.0227214 0.341932 0.93945
    outer loop
      vertex -3.75 1.0594 -0.0131277
      vertex -8.15 1.0936 0.0808415
      vertex -8.15 0.153909 0.422862
    endloop
  endfacet
  facet normal 0.0227214 0.341932 0.93945
    outer loop
      vertex -3.75 0.119707 0.328892
      vertex -3.75 1.0594 -0.0131277
      vertex -8.15 0.153909 0.422862
    endloop
  endfacet
  facet normal -0.0778877 0.340981 0.936838
    outer loop
      vertex -8.15 1.0936 0.0808415
      vertex -11.35 1.0081 -0.154082
      vertex -11.35 0.068404 0.187939
    endloop
  endfacet
  facet normal -0.0778877 0.340981 0.936838
    outer loop
      vertex -8.15 0.153909 0.422862
      vertex -8.15 1.0936 0.0808415
      vertex -11.35 0.068404 0.187939
    endloop
  endfacet
  facet normal 0 0.34202 0.939693
    outer loop
      vertex -11.35 1.0081 -0.154082
      vertex -17.7 1.0081 -0.154082
      vertex -17.7 0.068404 0.187939
    endloop
  endfacet
  facet normal 0 0.34202 0.939693
    outer loop
      vertex -11.35 0.068404 0.187939
      vertex -11.35 1.0081 -0.154082
      vertex -17.7 0.068404 0.187939
    endloop
  endfacet
  facet normal -0.98387 0.0611824 0.168097
    outer loop
      vertex -17.8 0.819986 -0.670913
      vertex -17.8 -0.119707 -0.328892
      vertex -17.7 1.0081 -0.154082
    endloop
  endfacet
  facet normal -0.98387 0.0611824 0.168097
    outer loop
      vertex -17.7 1.0081 -0.154082
      vertex -17.8 -0.119707 -0.328892
      vertex -17.7 0.068404 0.187939
    endloop
  endfacet
  facet normal 0.016609 -0.341973 -0.939563
    outer loop
      vertex -17.8 0.819986 -0.670913
      vertex -2.75 0.905491 -0.435989
      vertex -17.8 -0.119707 -0.328892
    endloop
  endfacet
  facet normal 0.016609 -0.341973 -0.939563
    outer loop
      vertex -17.8 -0.119707 -0.328892
      vertex -2.75 0.905491 -0.435989
      vertex -2.75 -0.034202 -0.0939693
    endloop
  endfacet
  facet normal -0.225802 0.333187 0.915423
    outer loop
      vertex -2.75 0.905491 -0.435989
      vertex -17.85 -0.29158 -3.72491
      vertex -17.85 -1.23127 -3.38289
    endloop
  endfacet
  facet normal -0.225802 0.333187 0.915423
    outer loop
      vertex -2.75 -0.034202 -0.0939693
      vertex -2.75 0.905491 -0.435989
      vertex -17.85 -1.23127 -3.38289
    endloop
  endfacet
  facet normal 0.970143 5.38537e-17 0.242536
    outer loop
      vertex 7.76818 -0.390445 -1.07274
      vertex 7.7 -0.291176 -0.8
      vertex 7.7 -1 -0.8
    endloop
  endfacet
  facet normal 0.970143 5.38537e-17 0.242536
    outer loop
      vertex 7.8 -0.00319355 -1.2
      vertex 7.76818 -0.390445 -1.07274
      vertex 7.8 -1 -1.2
    endloop
  endfacet
  facet normal 0.970143 5.38537e-17 0.242536
    outer loop
      vertex 7.8 -1 -1.2
      vertex 7.76818 -0.390445 -1.07274
      vertex 7.7 -1 -0.8
    endloop
  endfacet
  facet normal -0.242536 2.15415e-16 0.970143
    outer loop
      vertex 7.45591 -1.91185e-16 -0.861023
      vertex 7.1 -2.10942e-16 -0.95
      vertex 7.1 -1 -0.95
    endloop
  endfacet
  facet normal -0.242536 2.15415e-16 0.970143
    outer loop
      vertex 7.46635 -0.312437 -0.858412
      vertex 7.45591 -1.91185e-16 -0.861023
      vertex 7.1 -1 -0.95
    endloop
  endfacet
  facet normal -0.242536 2.15415e-16 0.970143
    outer loop
      vertex 7.7 -1 -0.8
      vertex 7.46635 -0.312437 -0.858412
      vertex 7.1 -1 -0.95
    endloop
  endfacet
  facet normal -0.242536 2.15415e-16 0.970143
    outer loop
      vertex 7.7 -0.291176 -0.8
      vertex 7.46635 -0.312437 -0.858412
      vertex 7.7 -1 -0.8
    endloop
  endfacet
  facet normal 0.977802 4.65248e-17 0.209529
    outer loop
      vertex 6.75357 0 0
      vertex 6.7 5.55112e-17 0.25
      vertex 6.7 -1 0.25
    endloop
  endfacet
  facet normal 0.977802 4.65248e-17 0.209529
    outer loop
      vertex 6.76926 -0.0266548 -0.0732335
      vertex 6.75357 0 0
      vertex 6.85 -1 -0.45
    endloop
  endfacet
  facet normal 0.977802 4.65248e-17 0.209529
    outer loop
      vertex 6.85 -1 -0.45
      vertex 6.75357 0 0
      vertex 6.7 -1 0.25
    endloop
  endfacet
  facet normal 0.977802 4.65248e-17 0.209529
    outer loop
      vertex 6.85 -9.99201e-17 -0.45
      vertex 6.77132 -1.83897e-17 -0.08282
      vertex 6.85 -1 -0.45
    endloop
  endfacet
  facet normal 0.977802 4.65248e-17 0.209529
    outer loop
      vertex 6.77132 -1.83897e-17 -0.08282
      vertex 6.76926 -0.0266548 -0.0732335
      vertex 6.85 -1 -0.45
    endloop
  endfacet
  facet normal 0 1 -2.22045e-16
    outer loop
      vertex 3.5 4.996e-16 2.25
      vertex 3.95 7.32747e-16 3.3
      vertex 3.55 2.9976e-16 1.35
    endloop
  endfacet
  facet normal 0 1 -2.22045e-16
    outer loop
      vertex 3.55 2.9976e-16 1.35
      vertex 3.95 7.32747e-16 3.3
      vertex 4.95 7.99361e-16 3.6
    endloop
  endfacet
  facet normal 0 1 -2.22045e-16
    outer loop
      vertex 3.55 2.9976e-16 1.35
      vertex 4.95 7.99361e-16 3.6
      vertex 5.6 7.99361e-16 3.6
    endloop
  endfacet
  facet normal 0 1 -2.22045e-16
    outer loop
      vertex 3.55 2.9976e-16 1.35
      vertex 5.6 7.99361e-16 3.6
      vertex 6.35 7.32747e-16 3.3
    endloop
  endfacet
  facet normal 0 1 -2.22045e-16
    outer loop
      vertex 3.55 2.9976e-16 1.35
      vertex 6.35 7.32747e-16 3.3
      vertex 6.5 5.88418e-16 2.65
    endloop
  endfacet
  facet normal 0 1 -2.22045e-16
    outer loop
      vertex 3.55 2.9976e-16 1.35
      vertex 6.5 5.88418e-16 2.65
      vertex 6.95 6.21725e-16 2.8
    endloop
  endfacet
  facet normal 0 1 -2.22045e-16
    outer loop
      vertex 3.55 2.9976e-16 1.35
      vertex 6.95 6.21725e-16 2.8
      vertex 6.95 5.77316e-16 2.6
    endloop
  endfacet
  facet normal 0 1 -2.22045e-16
    outer loop
      vertex 3.55 2.9976e-16 1.35
      vertex 6.95 5.77316e-16 2.6
      vertex 7.2 5.21805e-16 2.35
    endloop
  endfacet
  facet normal 0 1 -2.22045e-16
    outer loop
      vertex 3.55 2.9976e-16 1.35
      vertex 7.2 5.21805e-16 2.35
      vertex 7.45 4.44089e-16 2
    endloop
  endfacet
  facet normal 0 1 -2.22045e-16
    outer loop
      vertex 3.55 2.9976e-16 1.35
      vertex 7.45 4.44089e-16 2
      vertex 7.35 3.10862e-16 1.4
    endloop
  endfacet
  facet normal 0 1 -2.22045e-16
    outer loop
      vertex 3.55 2.9976e-16 1.35
      vertex 7.35 3.10862e-16 1.4
      vertex 6.9 1.77636e-16 0.8
    endloop
  endfacet
  facet normal 0 1 -2.22045e-16
    outer loop
      vertex 3.55 2.9976e-16 1.35
      vertex 6.9 1.77636e-16 0.8
      vertex 6.45 1.44329e-16 0.65
    endloop
  endfacet
  facet normal 0 1 -2.22045e-16
    outer loop
      vertex 3.55 2.9976e-16 1.35
      vertex 6.45 1.44329e-16 0.65
      vertex 6.7 5.55112e-17 0.25
    endloop
  endfacet
  facet normal 0 1 -2.22045e-16
    outer loop
      vertex 6.7 5.55112e-17 0.25
      vertex 6.75357 0 0
      vertex 3.55 2.9976e-16 1.35
    endloop
  endfacet
  facet normal 0 1 -2.22045e-16
    outer loop
      vertex 5 4.44089e-17 0.2
      vertex 6.75357 0 0
      vertex 4.9125 0 0
    endloop
  endfacet
  facet normal 0 1 -2.22045e-16
    outer loop
      vertex 5.2 1.22125e-16 0.55
      vertex 6.75357 0 0
      vertex 5 4.44089e-17 0.2
    endloop
  endfacet
  facet normal 0 1 -2.22045e-16
    outer loop
      vertex 3.55 2.9976e-16 1.35
      vertex 6.75357 0 0
      vertex 5.2 1.22125e-16 0.55
    endloop
  endfacet
  facet normal 0 1 -2.22045e-16
    outer loop
      vertex 4.2 1.77636e-16 0.8
      vertex 3.55 2.9976e-16 1.35
      vertex 5.2 1.22125e-16 0.55
    endloop
  endfacet
  facet normal -0.916157 8.89997e-17 0.400819
    outer loop
      vertex 4.65 -1.33227e-16 -0.6
      vertex 4.65 -1 -0.6
      vertex 4.85414 -2.96204e-17 -0.133399
    endloop
  endfacet
  facet normal -0.916157 8.89997e-17 0.400819
    outer loop
      vertex 4.85414 -2.96204e-17 -0.133399
      vertex 4.65 -1 -0.6
      vertex 5 -1 0.2
    endloop
  endfacet
  facet normal -0.916157 8.89997e-17 0.400819
    outer loop
      vertex 4.9125 0 0
      vertex 5 -1 0.2
      vertex 5 4.44089e-17 0.2
    endloop
  endfacet
  facet normal -0.916157 8.89997e-17 0.400819
    outer loop
      vertex 4.86101 -0.0428336 -0.117684
      vertex 5 -1 0.2
      vertex 4.9125 0 0
    endloop
  endfacet
  facet normal -0.916157 8.89997e-17 0.400819
    outer loop
      vertex 4.85414 -2.96204e-17 -0.133399
      vertex 5 -1 0.2
      vertex 4.86101 -0.0428336 -0.117684
    endloop
  endfacet
  facet normal 0 1 -2.22045e-16
    outer loop
      vertex 3.25 -9.10383e-16 -4.1
      vertex 3.3 -7.99361e-16 -3.6
      vertex 3.75 -9.99201e-16 -4.5
    endloop
  endfacet
  facet normal 0 1 -2.22045e-16
    outer loop
      vertex 3.75 -9.99201e-16 -4.5
      vertex 3.3 -7.99361e-16 -3.6
      vertex 3.95 -6.55032e-16 -2.95
    endloop
  endfacet
  facet normal 0 1 -2.22045e-16
    outer loop
      vertex 3.75 -9.99201e-16 -4.5
      vertex 3.95 -6.55032e-16 -2.95
      vertex 4.1 -4.21885e-16 -1.9
    endloop
  endfacet
  facet normal 0 1 -2.22045e-16
    outer loop
      vertex 3.75 -9.99201e-16 -4.5
      vertex 4.1 -4.21885e-16 -1.9
      vertex 4.6 -2.77556e-16 -1.25
    endloop
  endfacet
  facet normal 0 1 -2.22045e-16
    outer loop
      vertex 4.6 -2.77556e-16 -1.25
      vertex 4.65 -1.33227e-16 -0.6
      vertex 4.85414 -2.96204e-17 -0.133399
    endloop
  endfacet
  facet normal 0 1 -2.22045e-16
    outer loop
      vertex 4.6 -2.77556e-16 -1.25
      vertex 4.85414 -2.96204e-17 -0.133399
      vertex 6.35 -2.36295e-17 -0.106418
    endloop
  endfacet
  facet normal 0 1 -2.22045e-16
    outer loop
      vertex 4.6 -2.77556e-16 -1.25
      vertex 6.35 -2.36295e-17 -0.106418
      vertex 3.75 -9.99201e-16 -4.5
    endloop
  endfacet
  facet normal 0 1 -2.22045e-16
    outer loop
      vertex 3.75 -9.99201e-16 -4.5
      vertex 6.35 -2.36295e-17 -0.106418
      vertex 6.77132 -1.83897e-17 -0.08282
    endloop
  endfacet
  facet normal 0 1 -2.22045e-16
    outer loop
      vertex 3.75 -9.99201e-16 -4.5
      vertex 6.77132 -1.83897e-17 -0.08282
      vertex 6.85 -9.99201e-17 -0.45
    endloop
  endfacet
  facet normal 0 1 -2.22045e-16
    outer loop
      vertex 3.75 -9.99201e-16 -4.5
      vertex 6.85 -9.99201e-17 -0.45
      vertex 7.1 -2.10942e-16 -0.95
    endloop
  endfacet
  facet normal 0 1 -2.22045e-16
    outer loop
      vertex 7.1 -2.10942e-16 -0.95
      vertex 7.45591 -1.91185e-16 -0.861023
      vertex 3.75 -9.99201e-16 -4.5
    endloop
  endfacet
  facet normal 0 1 -2.22045e-16
    outer loop
      vertex 6.7 -4.32987e-16 -1.95
      vertex 7.45591 -1.91185e-16 -0.861023
      vertex 7.5 -2.95369e-16 -1.33022
    endloop
  endfacet
  facet normal 0 1 -2.22045e-16
    outer loop
      vertex 7.15 -3.77476e-16 -1.7
      vertex 7.5 -2.95369e-16 -1.33022
      vertex 7.80098 -2.66618e-16 -1.20074
    endloop
  endfacet
  facet normal 0 1 -2.22045e-16
    outer loop
      vertex 6 -8.65974e-16 -3.9
      vertex 7.2 -8.77076e-16 -3.95
      vertex 6.45 -9.4369e-16 -4.25
    endloop
  endfacet
  facet normal 0 1 -2.22045e-16
    outer loop
      vertex 6.7 -4.32987e-16 -1.95
      vertex 7.5 -2.95369e-16 -1.33022
      vertex 7.15 -3.77476e-16 -1.7
    endloop
  endfacet
  facet normal 0 1 -2.22045e-16
    outer loop
      vertex 3.75 -9.99201e-16 -4.5
      vertex 7.45591 -1.91185e-16 -0.861023
      vertex 6.7 -4.32987e-16 -1.95
    endloop
  endfacet
  facet normal 0 1 -2.22045e-16
    outer loop
      vertex 6.7 -4.88498e-16 -2.2
      vertex 3.75 -9.99201e-16 -4.5
      vertex 6.7 -4.32987e-16 -1.95
    endloop
  endfacet
  facet normal 0 1 -2.22045e-16
    outer loop
      vertex 6 -8.65974e-16 -3.9
      vertex 7.65 -8.32667e-16 -3.75
      vertex 7.2 -8.77076e-16 -3.95
    endloop
  endfacet
  facet normal 0 1 -2.22045e-16
    outer loop
      vertex 5.7 -7.99361e-16 -3.6
      vertex 7.15 -5.88418e-16 -2.65
      vertex 7.35 -7.32747e-16 -3.3
    endloop
  endfacet
  facet normal 0 1 -2.22045e-16
    outer loop
      vertex 6 -8.65974e-16 -3.9
      vertex 7.7 -7.21645e-16 -3.25
      vertex 7.65 -8.32667e-16 -3.75
    endloop
  endfacet
  facet normal 0 1 -2.22045e-16
    outer loop
      vertex 6.45 -9.4369e-16 -4.25
      vertex 7.2 -8.77076e-16 -3.95
      vertex 6.9 -9.65894e-16 -4.35
    endloop
  endfacet
  facet normal 0 1 -2.22045e-16
    outer loop
      vertex 5.7 -7.99361e-16 -3.6
      vertex 7.35 -7.32747e-16 -3.3
      vertex 7.7 -7.21645e-16 -3.25
    endloop
  endfacet
  facet normal 0 1 -2.22045e-16
    outer loop
      vertex 3.75 -9.99201e-16 -4.5
      vertex 7.15 -5.88418e-16 -2.65
      vertex 5.7 -7.99361e-16 -3.6
    endloop
  endfacet
  facet normal 0 1 -2.22045e-16
    outer loop
      vertex 4.9 -1.02141e-15 -4.6
      vertex 3.75 -9.99201e-16 -4.5
      vertex 4.75 -9.21485e-16 -4.15
    endloop
  endfacet
  facet normal 0 1 -2.22045e-16
    outer loop
      vertex 5.7 -7.99361e-16 -3.6
      vertex 7.7 -7.21645e-16 -3.25
      vertex 6 -8.65974e-16 -3.9
    endloop
  endfacet
  facet normal 0 1 -2.22045e-16
    outer loop
      vertex 3.75 -9.99201e-16 -4.5
      vertex 5.7 -7.99361e-16 -3.6
      vertex 4.75 -9.21485e-16 -4.15
    endloop
  endfacet
  facet normal 0 1 -2.22045e-16
    outer loop
      vertex 5.2 -9.21485e-16 -4.15
      vertex 4.75 -9.21485e-16 -4.15
      vertex 5.7 -7.99361e-16 -3.6
    endloop
  endfacet
  facet normal 0 1 -2.22045e-16
    outer loop
      vertex 3.75 -9.99201e-16 -4.5
      vertex 4.9 -1.02141e-15 -4.6
      vertex 4.35 -1.04361e-15 -4.7
    endloop
  endfacet
  facet normal 0 1 -2.22045e-16
    outer loop
      vertex 7.15 -3.77476e-16 -1.7
      vertex 7.80098 -2.66618e-16 -1.20074
      vertex 8 -2.9976e-16 -1.35
    endloop
  endfacet
  facet normal 0 1 -2.22045e-16
    outer loop
      vertex 7.15 -5.88418e-16 -2.65
      vertex 3.75 -9.99201e-16 -4.5
      vertex 6.7 -4.88498e-16 -2.2
    endloop
  endfacet
  facet normal 0.6 1.77636e-16 0.8
    outer loop
      vertex 7.80098 -2.66618e-16 -1.20074
      vertex 7.8 -0.00319355 -1.2
      vertex 7.8 -1 -1.2
    endloop
  endfacet
  facet normal 0.6 1.77636e-16 0.8
    outer loop
      vertex 8 -2.9976e-16 -1.35
      vertex 7.80098 -2.66618e-16 -1.20074
      vertex 8 -1 -1.35
    endloop
  endfacet
  facet normal 0.6 1.77636e-16 0.8
    outer loop
      vertex 8 -1 -1.35
      vertex 7.80098 -2.66618e-16 -1.20074
      vertex 7.8 -1 -1.2
    endloop
  endfacet
  facet normal 0 -1 2.22045e-16
    outer loop
      vertex 3.3 -1 -3.6
      vertex 3.25 -1 -4.1
      vertex 3.75 -1 -4.5
    endloop
  endfacet
  facet normal 0 -1 2.22045e-16
    outer loop
      vertex 4.9 -1 -4.6
      vertex 3.3 -1 -3.6
      vertex 4.35 -1 -4.7
    endloop
  endfacet
  facet normal 0 -1 2.22045e-16
    outer loop
      vertex 4.35 -1 -4.7
      vertex 3.3 -1 -3.6
      vertex 3.75 -1 -4.5
    endloop
  endfacet
  facet normal 0 -1 2.22045e-16
    outer loop
      vertex 4.75 -1 -4.15
      vertex 3.3 -1 -3.6
      vertex 4.9 -1 -4.6
    endloop
  endfacet
  facet normal 0 -1 2.22045e-16
    outer loop
      vertex 5.2 -1 -4.15
      vertex 3.3 -1 -3.6
      vertex 4.75 -1 -4.15
    endloop
  endfacet
  facet normal 0 -1 2.22045e-16
    outer loop
      vertex 5.7 -1 -3.6
      vertex 3.3 -1 -3.6
      vertex 5.2 -1 -4.15
    endloop
  endfacet
  facet normal 0 -1 2.22045e-16
    outer loop
      vertex 7.35 -1 -3.3
      vertex 3.3 -1 -3.6
      vertex 5.7 -1 -3.6
    endloop
  endfacet
  facet normal 0 -1 2.22045e-16
    outer loop
      vertex 6.45 -1 -4.25
      vertex 5.7 -1 -3.6
      vertex 6 -1 -3.9
    endloop
  endfacet
  facet normal 0 -1 2.22045e-16
    outer loop
      vertex 6.9 -1 -4.35
      vertex 5.7 -1 -3.6
      vertex 6.45 -1 -4.25
    endloop
  endfacet
  facet normal 0 -1 2.22045e-16
    outer loop
      vertex 7.2 -1 -3.95
      vertex 5.7 -1 -3.6
      vertex 6.9 -1 -4.35
    endloop
  endfacet
  facet normal 0 -1 2.22045e-16
    outer loop
      vertex 7.65 -1 -3.75
      vertex 5.7 -1 -3.6
      vertex 7.2 -1 -3.95
    endloop
  endfacet
  facet normal 0 -1 2.22045e-16
    outer loop
      vertex 7.7 -1 -3.25
      vertex 5.7 -1 -3.6
      vertex 7.65 -1 -3.75
    endloop
  endfacet
  facet normal 0 -1 2.22045e-16
    outer loop
      vertex 7.7 -1 -3.25
      vertex 7.35 -1 -3.3
      vertex 5.7 -1 -3.6
    endloop
  endfacet
  facet normal 0 -1 2.22045e-16
    outer loop
      vertex 6.7 -1 -2.2
      vertex 3.3 -1 -3.6
      vertex 7.15 -1 -2.65
    endloop
  endfacet
  facet normal 0 -1 2.22045e-16
    outer loop
      vertex 6.7 -1 -1.95
      vertex 3.3 -1 -3.6
      vertex 6.7 -1 -2.2
    endloop
  endfacet
  facet normal 0 -1 2.22045e-16
    outer loop
      vertex 7.15 -1 -1.7
      vertex 3.3 -1 -3.6
      vertex 6.7 -1 -1.95
    endloop
  endfacet
  facet normal 0 -1 2.22045e-16
    outer loop
      vertex 7.8 -1 -1.2
      vertex 3.3 -1 -3.6
      vertex 7.15 -1 -1.7
    endloop
  endfacet
  facet normal 0 -1 2.22045e-16
    outer loop
      vertex 7.8 -1 -1.2
      vertex 7.15 -1 -1.7
      vertex 8 -1 -1.35
    endloop
  endfacet
  facet normal 0 -1 2.22045e-16
    outer loop
      vertex 7.7 -1 -0.8
      vertex 3.3 -1 -3.6
      vertex 7.8 -1 -1.2
    endloop
  endfacet
  facet normal 0 -1 2.22045e-16
    outer loop
      vertex 7.1 -1 -0.95
      vertex 3.3 -1 -3.6
      vertex 7.7 -1 -0.8
    endloop
  endfacet
  facet normal 0 -1 2.22045e-16
    outer loop
      vertex 6.85 -1 -0.45
      vertex 3.3 -1 -3.6
      vertex 7.1 -1 -0.95
    endloop
  endfacet
  facet normal 0 -1 2.22045e-16
    outer loop
      vertex 3.95 -1 -2.95
      vertex 3.3 -1 -3.6
      vertex 6.85 -1 -0.45
    endloop
  endfacet
  facet normal 0 -1 2.22045e-16
    outer loop
      vertex 7.35 -1 1.4
      vertex 6.45 -1 0.65
      vertex 6.9 -1 0.8
    endloop
  endfacet
  facet normal 0 -1 2.22045e-16
    outer loop
      vertex 7.45 -1 2
      vertex 6.45 -1 0.65
      vertex 7.35 -1 1.4
    endloop
  endfacet
  facet normal 0 -1 2.22045e-16
    outer loop
      vertex 4.6 -1 -1.25
      vertex 6.95 -1 2.6
      vertex 6.95 -1 2.8
    endloop
  endfacet
  facet normal 0 -1 2.22045e-16
    outer loop
      vertex 4.65 -1 -0.6
      vertex 6.5 -1 2.65
      vertex 5.2 -1 0.55
    endloop
  endfacet
  facet normal 0 -1 2.22045e-16
    outer loop
      vertex 4.65 -1 -0.6
      vertex 4.6 -1 -1.25
      vertex 6.5 -1 2.65
    endloop
  endfacet
  facet normal 0 -1 2.22045e-16
    outer loop
      vertex 4.2 -1 0.8
      vertex 5.6 -1 3.6
      vertex 4.95 -1 3.6
    endloop
  endfacet
  facet normal 0 -1 2.22045e-16
    outer loop
      vertex 3.5 -1 2.25
      vertex 3.55 -1 1.35
      vertex 3.95 -1 3.3
    endloop
  endfacet
  facet normal 0 -1 2.22045e-16
    outer loop
      vertex 3.95 -1 3.3
      vertex 4.2 -1 0.8
      vertex 4.95 -1 3.6
    endloop
  endfacet
  facet normal 0 -1 2.22045e-16
    outer loop
      vertex 6.35 -1 3.3
      vertex 5.2 -1 0.55
      vertex 6.5 -1 2.65
    endloop
  endfacet
  facet normal 0 -1 2.22045e-16
    outer loop
      vertex 4.1 -1 -1.9
      vertex 7.45 -1 2
      vertex 4.6 -1 -1.25
    endloop
  endfacet
  facet normal 0 -1 2.22045e-16
    outer loop
      vertex 5 -1 0.2
      vertex 4.65 -1 -0.6
      vertex 5.2 -1 0.55
    endloop
  endfacet
  facet normal 0 -1 2.22045e-16
    outer loop
      vertex 6.5 -1 2.65
      vertex 4.6 -1 -1.25
      vertex 6.95 -1 2.8
    endloop
  endfacet
  facet normal 0 -1 2.22045e-16
    outer loop
      vertex 4.6 -1 -1.25
      vertex 7.2 -1 2.35
      vertex 6.95 -1 2.6
    endloop
  endfacet
  facet normal 0 -1 2.22045e-16
    outer loop
      vertex 4.6 -1 -1.25
      vertex 7.45 -1 2
      vertex 7.2 -1 2.35
    endloop
  endfacet
  facet normal 0 -1 2.22045e-16
    outer loop
      vertex 6.7 -1 0.25
      vertex 3.95 -1 -2.95
      vertex 6.85 -1 -0.45
    endloop
  endfacet
  facet normal 0 -1 2.22045e-16
    outer loop
      vertex 7.35 -1 -3.3
      vertex 7.15 -1 -2.65
      vertex 3.3 -1 -3.6
    endloop
  endfacet
  facet normal 0 -1 2.22045e-16
    outer loop
      vertex 3.55 -1 1.35
      vertex 4.2 -1 0.8
      vertex 3.95 -1 3.3
    endloop
  endfacet
  facet normal 0 -1 2.22045e-16
    outer loop
      vertex 4.2 -1 0.8
      vertex 6.35 -1 3.3
      vertex 5.6 -1 3.6
    endloop
  endfacet
  facet normal 0 -1 2.22045e-16
    outer loop
      vertex 4.2 -1 0.8
      vertex 5.2 -1 0.55
      vertex 6.35 -1 3.3
    endloop
  endfacet
  facet normal 0 -1 2.22045e-16
    outer loop
      vertex 4.1 -1 -1.9
      vertex 6.45 -1 0.65
      vertex 7.45 -1 2
    endloop
  endfacet
  facet normal 0 -1 2.22045e-16
    outer loop
      vertex 4.1 -1 -1.9
      vertex 6.7 -1 0.25
      vertex 6.45 -1 0.65
    endloop
  endfacet
  facet normal 0 -1 2.22045e-16
    outer loop
      vertex 4.1 -1 -1.9
      vertex 3.95 -1 -2.95
      vertex 6.7 -1 0.25
    endloop
  endfacet
  facet normal 0.894427 9.93014e-17 0.447214
    outer loop
      vertex 7.1 -2.10942e-16 -0.95
      vertex 6.85 -9.99201e-17 -0.45
      vertex 6.85 -1 -0.45
    endloop
  endfacet
  facet normal 0.894427 9.93014e-17 0.447214
    outer loop
      vertex 7.1 -1 -0.95
      vertex 7.1 -2.10942e-16 -0.95
      vertex 6.85 -1 -0.45
    endloop
  endfacet
  facet normal 0.847998 1.17683e-16 0.529999
    outer loop
      vertex 6.7 5.55112e-17 0.25
      vertex 6.45 1.44329e-16 0.65
      vertex 6.45 -1 0.65
    endloop
  endfacet
  facet normal 0.847998 1.17683e-16 0.529999
    outer loop
      vertex 6.7 -1 0.25
      vertex 6.7 5.55112e-17 0.25
      vertex 6.45 -1 0.65
    endloop
  endfacet
  facet normal -0.99846 -1.23168e-17 -0.05547
    outer loop
      vertex 3.5 4.996e-16 2.25
      vertex 3.55 2.9976e-16 1.35
      vertex 3.5 -1 2.25
    endloop
  endfacet
  facet normal -0.99846 -1.23168e-17 -0.05547
    outer loop
      vertex 3.5 -1 2.25
      vertex 3.55 2.9976e-16 1.35
      vertex 3.55 -1 1.35
    endloop
  endfacet
  facet normal -0.645942 -1.69506e-16 -0.763386
    outer loop
      vertex 3.55 2.9976e-16 1.35
      vertex 4.2 1.77636e-16 0.8
      vertex 3.55 -1 1.35
    endloop
  endfacet
  facet normal -0.645942 -1.69506e-16 -0.763386
    outer loop
      vertex 3.55 -1 1.35
      vertex 4.2 1.77636e-16 0.8
      vertex 4.2 -1 0.8
    endloop
  endfacet
  facet normal -0.242536 -2.15415e-16 -0.970143
    outer loop
      vertex 4.2 1.77636e-16 0.8
      vertex 5.2 1.22125e-16 0.55
      vertex 4.2 -1 0.8
    endloop
  endfacet
  facet normal -0.242536 -2.15415e-16 -0.970143
    outer loop
      vertex 4.2 -1 0.8
      vertex 5.2 1.22125e-16 0.55
      vertex 5.2 -1 0.55
    endloop
  endfacet
  facet normal -0.868243 1.10165e-16 0.496139
    outer loop
      vertex 5 4.44089e-17 0.2
      vertex 5 -1 0.2
      vertex 5.2 1.22125e-16 0.55
    endloop
  endfacet
  facet normal -0.868243 1.10165e-16 0.496139
    outer loop
      vertex 5.2 1.22125e-16 0.55
      vertex 5 -1 0.2
      vertex 5.2 -1 0.55
    endloop
  endfacet
  facet normal 0.316228 -2.1065e-16 -0.948683
    outer loop
      vertex 6.45 1.44329e-16 0.65
      vertex 6.9 1.77636e-16 0.8
      vertex 6.45 -1 0.65
    endloop
  endfacet
  facet normal 0.316228 -2.1065e-16 -0.948683
    outer loop
      vertex 6.45 -1 0.65
      vertex 6.9 1.77636e-16 0.8
      vertex 6.9 -1 0.8
    endloop
  endfacet
  facet normal 0.8 -1.33227e-16 -0.6
    outer loop
      vertex 6.9 -1 0.8
      vertex 6.9 1.77636e-16 0.8
      vertex 7.35 3.10862e-16 1.4
    endloop
  endfacet
  facet normal 0.8 -1.33227e-16 -0.6
    outer loop
      vertex 7.35 -1 1.4
      vertex 6.9 -1 0.8
      vertex 7.35 3.10862e-16 1.4
    endloop
  endfacet
  facet normal 0.986394 -3.65039e-17 -0.164399
    outer loop
      vertex 7.35 -1 1.4
      vertex 7.35 3.10862e-16 1.4
      vertex 7.45 4.44089e-16 2
    endloop
  endfacet
  facet normal 0.986394 -3.65039e-17 -0.164399
    outer loop
      vertex 7.45 -1 2
      vertex 7.35 -1 1.4
      vertex 7.45 4.44089e-16 2
    endloop
  endfacet
  facet normal 0.813733 1.29061e-16 0.581238
    outer loop
      vertex 7.45 4.44089e-16 2
      vertex 7.2 5.21805e-16 2.35
      vertex 7.2 -1 2.35
    endloop
  endfacet
  facet normal 0.813733 1.29061e-16 0.581238
    outer loop
      vertex 7.45 -1 2
      vertex 7.45 4.44089e-16 2
      vertex 7.2 -1 2.35
    endloop
  endfacet
  facet normal 0.707107 1.57009e-16 0.707107
    outer loop
      vertex 7.2 5.21805e-16 2.35
      vertex 6.95 5.77316e-16 2.6
      vertex 6.95 -1 2.6
    endloop
  endfacet
  facet normal 0.707107 1.57009e-16 0.707107
    outer loop
      vertex 7.2 -1 2.35
      vertex 7.2 5.21805e-16 2.35
      vertex 6.95 -1 2.6
    endloop
  endfacet
  facet normal 1 0 0
    outer loop
      vertex 6.95 -1 2.6
      vertex 6.95 5.77316e-16 2.6
      vertex 6.95 6.21725e-16 2.8
    endloop
  endfacet
  facet normal 1 0 0
    outer loop
      vertex 6.95 -1 2.8
      vertex 6.95 -1 2.6
      vertex 6.95 6.21725e-16 2.8
    endloop
  endfacet
  facet normal -0.316228 2.1065e-16 0.948683
    outer loop
      vertex 6.95 6.21725e-16 2.8
      vertex 6.5 5.88418e-16 2.65
      vertex 6.5 -1 2.65
    endloop
  endfacet
  facet normal -0.316228 2.1065e-16 0.948683
    outer loop
      vertex 6.95 -1 2.8
      vertex 6.95 6.21725e-16 2.8
      vertex 6.5 -1 2.65
    endloop
  endfacet
  facet normal 0.974391 4.99288e-17 0.22486
    outer loop
      vertex 6.5 5.88418e-16 2.65
      vertex 6.35 7.32747e-16 3.3
      vertex 6.35 -1 3.3
    endloop
  endfacet
  facet normal 0.974391 4.99288e-17 0.22486
    outer loop
      vertex 6.5 -1 2.65
      vertex 6.5 5.88418e-16 2.65
      vertex 6.35 -1 3.3
    endloop
  endfacet
  facet normal 0.371391 2.06163e-16 0.928477
    outer loop
      vertex 6.35 7.32747e-16 3.3
      vertex 5.6 7.99361e-16 3.6
      vertex 5.6 -1 3.6
    endloop
  endfacet
  facet normal 0.371391 2.06163e-16 0.928477
    outer loop
      vertex 6.35 -1 3.3
      vertex 6.35 7.32747e-16 3.3
      vertex 5.6 -1 3.6
    endloop
  endfacet
  facet normal 0 2.22045e-16 1
    outer loop
      vertex 5.6 7.99361e-16 3.6
      vertex 4.95 7.99361e-16 3.6
      vertex 4.95 -1 3.6
    endloop
  endfacet
  facet normal 0 2.22045e-16 1
    outer loop
      vertex 5.6 -1 3.6
      vertex 5.6 7.99361e-16 3.6
      vertex 4.95 -1 3.6
    endloop
  endfacet
  facet normal -0.287348 2.1268e-16 0.957826
    outer loop
      vertex 4.95 7.99361e-16 3.6
      vertex 3.95 7.32747e-16 3.3
      vertex 3.95 -1 3.3
    endloop
  endfacet
  facet normal -0.287348 2.1268e-16 0.957826
    outer loop
      vertex 4.95 -1 3.6
      vertex 4.95 7.99361e-16 3.6
      vertex 3.95 -1 3.3
    endloop
  endfacet
  facet normal -0.919145 8.74677e-17 0.393919
    outer loop
      vertex 3.5 4.996e-16 2.25
      vertex 3.5 -1 2.25
      vertex 3.95 7.32747e-16 3.3
    endloop
  endfacet
  facet normal -0.919145 8.74677e-17 0.393919
    outer loop
      vertex 3.95 7.32747e-16 3.3
      vertex 3.5 -1 2.25
      vertex 3.95 -1 3.3
    endloop
  endfacet
  facet normal -0.997054 1.703e-17 0.0766965
    outer loop
      vertex 4.6 -2.77556e-16 -1.25
      vertex 4.6 -1 -1.25
      vertex 4.65 -1.33227e-16 -0.6
    endloop
  endfacet
  facet normal -0.997054 1.703e-17 0.0766965
    outer loop
      vertex 4.65 -1.33227e-16 -0.6
      vertex 4.6 -1 -1.25
      vertex 4.65 -1 -0.6
    endloop
  endfacet
  facet normal -0.624695 -1.73388e-16 -0.780869
    outer loop
      vertex 3.25 -9.10383e-16 -4.1
      vertex 3.75 -9.99201e-16 -4.5
      vertex 3.25 -1 -4.1
    endloop
  endfacet
  facet normal -0.624695 -1.73388e-16 -0.780869
    outer loop
      vertex 3.25 -1 -4.1
      vertex 3.75 -9.99201e-16 -4.5
      vertex 3.75 -1 -4.5
    endloop
  endfacet
  facet normal -0.316228 -2.1065e-16 -0.948683
    outer loop
      vertex 3.75 -9.99201e-16 -4.5
      vertex 4.35 -1.04361e-15 -4.7
      vertex 3.75 -1 -4.5
    endloop
  endfacet
  facet normal -0.316228 -2.1065e-16 -0.948683
    outer loop
      vertex 3.75 -1 -4.5
      vertex 4.35 -1.04361e-15 -4.7
      vertex 4.35 -1 -4.7
    endloop
  endfacet
  facet normal 0.178885 -2.18463e-16 -0.98387
    outer loop
      vertex 4.35 -1.04361e-15 -4.7
      vertex 4.9 -1.02141e-15 -4.6
      vertex 4.35 -1 -4.7
    endloop
  endfacet
  facet normal 0.178885 -2.18463e-16 -0.98387
    outer loop
      vertex 4.35 -1 -4.7
      vertex 4.9 -1.02141e-15 -4.6
      vertex 4.9 -1 -4.6
    endloop
  endfacet
  facet normal 0.948683 7.02167e-17 0.316228
    outer loop
      vertex 4.9 -1.02141e-15 -4.6
      vertex 4.75 -9.21485e-16 -4.15
      vertex 4.75 -1 -4.15
    endloop
  endfacet
  facet normal 0.948683 7.02167e-17 0.316228
    outer loop
      vertex 4.9 -1 -4.6
      vertex 4.9 -1.02141e-15 -4.6
      vertex 4.75 -1 -4.15
    endloop
  endfacet
  facet normal 0 -2.22045e-16 -1
    outer loop
      vertex 4.75 -9.21485e-16 -4.15
      vertex 5.2 -9.21485e-16 -4.15
      vertex 4.75 -1 -4.15
    endloop
  endfacet
  facet normal 0 -2.22045e-16 -1
    outer loop
      vertex 4.75 -1 -4.15
      vertex 5.2 -9.21485e-16 -4.15
      vertex 5.2 -1 -4.15
    endloop
  endfacet
  facet normal 0.73994 -1.49363e-16 -0.672673
    outer loop
      vertex 5.2 -1 -4.15
      vertex 5.2 -9.21485e-16 -4.15
      vertex 5.7 -7.99361e-16 -3.6
    endloop
  endfacet
  facet normal 0.73994 -1.49363e-16 -0.672673
    outer loop
      vertex 5.7 -1 -3.6
      vertex 5.2 -1 -4.15
      vertex 5.7 -7.99361e-16 -3.6
    endloop
  endfacet
  facet normal -0.707107 -1.57009e-16 -0.707107
    outer loop
      vertex 5.7 -7.99361e-16 -3.6
      vertex 6 -8.65974e-16 -3.9
      vertex 5.7 -1 -3.6
    endloop
  endfacet
  facet normal -0.707107 -1.57009e-16 -0.707107
    outer loop
      vertex 5.7 -1 -3.6
      vertex 6 -8.65974e-16 -3.9
      vertex 6 -1 -3.9
    endloop
  endfacet
  facet normal -0.613941 -1.75271e-16 -0.789352
    outer loop
      vertex 6 -8.65974e-16 -3.9
      vertex 6.45 -9.4369e-16 -4.25
      vertex 6 -1 -3.9
    endloop
  endfacet
  facet normal -0.613941 -1.75271e-16 -0.789352
    outer loop
      vertex 6 -1 -3.9
      vertex 6.45 -9.4369e-16 -4.25
      vertex 6.45 -1 -4.25
    endloop
  endfacet
  facet normal -0.21693 -2.16757e-16 -0.976187
    outer loop
      vertex 6.45 -9.4369e-16 -4.25
      vertex 6.9 -9.65894e-16 -4.35
      vertex 6.45 -1 -4.25
    endloop
  endfacet
  facet normal -0.21693 -2.16757e-16 -0.976187
    outer loop
      vertex 6.45 -1 -4.25
      vertex 6.9 -9.65894e-16 -4.35
      vertex 6.9 -1 -4.35
    endloop
  endfacet
  facet normal 0.8 -1.33227e-16 -0.6
    outer loop
      vertex 6.9 -1 -4.35
      vertex 6.9 -9.65894e-16 -4.35
      vertex 7.2 -8.77076e-16 -3.95
    endloop
  endfacet
  facet normal 0.8 -1.33227e-16 -0.6
    outer loop
      vertex 7.2 -1 -3.95
      vertex 6.9 -1 -4.35
      vertex 7.2 -8.77076e-16 -3.95
    endloop
  endfacet
  facet normal 0.406138 -2.02907e-16 -0.913812
    outer loop
      vertex 7.2 -8.77076e-16 -3.95
      vertex 7.65 -8.32667e-16 -3.75
      vertex 7.2 -1 -3.95
    endloop
  endfacet
  facet normal 0.406138 -2.02907e-16 -0.913812
    outer loop
      vertex 7.2 -1 -3.95
      vertex 7.65 -8.32667e-16 -3.75
      vertex 7.65 -1 -3.75
    endloop
  endfacet
  facet normal 0.995037 -2.20943e-17 -0.0995037
    outer loop
      vertex 7.65 -1 -3.75
      vertex 7.65 -8.32667e-16 -3.75
      vertex 7.7 -7.21645e-16 -3.25
    endloop
  endfacet
  facet normal 0.995037 -2.20943e-17 -0.0995037
    outer loop
      vertex 7.7 -1 -3.25
      vertex 7.65 -1 -3.75
      vertex 7.7 -7.21645e-16 -3.25
    endloop
  endfacet
  facet normal -0.141421 2.19813e-16 0.989949
    outer loop
      vertex 7.7 -7.21645e-16 -3.25
      vertex 7.35 -7.32747e-16 -3.3
      vertex 7.35 -1 -3.3
    endloop
  endfacet
  facet normal -0.141421 2.19813e-16 0.989949
    outer loop
      vertex 7.7 -1 -3.25
      vertex 7.7 -7.21645e-16 -3.25
      vertex 7.35 -1 -3.3
    endloop
  endfacet
  facet normal 0.955779 6.53002e-17 0.294086
    outer loop
      vertex 7.35 -7.32747e-16 -3.3
      vertex 7.15 -5.88418e-16 -2.65
      vertex 7.15 -1 -2.65
    endloop
  endfacet
  facet normal 0.955779 6.53002e-17 0.294086
    outer loop
      vertex 7.35 -1 -3.3
      vertex 7.35 -7.32747e-16 -3.3
      vertex 7.15 -1 -2.65
    endloop
  endfacet
  facet normal 0.707107 1.57009e-16 0.707107
    outer loop
      vertex 7.15 -5.88418e-16 -2.65
      vertex 6.7 -4.88498e-16 -2.2
      vertex 6.7 -1 -2.2
    endloop
  endfacet
  facet normal 0.707107 1.57009e-16 0.707107
    outer loop
      vertex 7.15 -1 -2.65
      vertex 7.15 -5.88418e-16 -2.65
      vertex 6.7 -1 -2.2
    endloop
  endfacet
  facet normal 1 0 0
    outer loop
      vertex 6.7 -1 -2.2
      vertex 6.7 -4.88498e-16 -2.2
      vertex 6.7 -4.32987e-16 -1.95
    endloop
  endfacet
  facet normal 1 0 0
    outer loop
      vertex 6.7 -1 -1.95
      vertex 6.7 -1 -2.2
      vertex 6.7 -4.32987e-16 -1.95
    endloop
  endfacet
  facet normal 0.485643 -1.94102e-16 -0.874157
    outer loop
      vertex 6.7 -4.32987e-16 -1.95
      vertex 7.15 -3.77476e-16 -1.7
      vertex 6.7 -1 -1.95
    endloop
  endfacet
  facet normal 0.485643 -1.94102e-16 -0.874157
    outer loop
      vertex 6.7 -1 -1.95
      vertex 7.15 -3.77476e-16 -1.7
      vertex 7.15 -1 -1.7
    endloop
  endfacet
  facet normal 0.38075 -2.0532e-16 -0.924678
    outer loop
      vertex 7.15 -3.77476e-16 -1.7
      vertex 8 -2.9976e-16 -1.35
      vertex 7.15 -1 -1.7
    endloop
  endfacet
  facet normal 0.38075 -2.0532e-16 -0.924678
    outer loop
      vertex 7.15 -1 -1.7
      vertex 8 -2.9976e-16 -1.35
      vertex 8 -1 -1.35
    endloop
  endfacet
  facet normal -0.792624 1.35383e-16 0.609711
    outer loop
      vertex 4.1 -4.21885e-16 -1.9
      vertex 4.1 -1 -1.9
      vertex 4.6 -2.77556e-16 -1.25
    endloop
  endfacet
  facet normal -0.792624 1.35383e-16 0.609711
    outer loop
      vertex 4.6 -2.77556e-16 -1.25
      vertex 4.1 -1 -1.9
      vertex 4.6 -1 -1.25
    endloop
  endfacet
  facet normal -0.989949 3.14018e-17 0.141421
    outer loop
      vertex 3.95 -6.55032e-16 -2.95
      vertex 3.95 -1 -2.95
      vertex 4.1 -4.21885e-16 -1.9
    endloop
  endfacet
  facet normal -0.989949 3.14018e-17 0.141421
    outer loop
      vertex 4.1 -4.21885e-16 -1.9
      vertex 3.95 -1 -2.95
      vertex 4.1 -1 -1.9
    endloop
  endfacet
  facet normal -0.707107 1.57009e-16 0.707107
    outer loop
      vertex 3.3 -7.99361e-16 -3.6
      vertex 3.3 -1 -3.6
      vertex 3.95 -6.55032e-16 -2.95
    endloop
  endfacet
  facet normal -0.707107 1.57009e-16 0.707107
    outer loop
      vertex 3.95 -6.55032e-16 -2.95
      vertex 3.3 -1 -3.6
      vertex 3.95 -1 -2.95
    endloop
  endfacet
  facet normal -0.995037 2.20943e-17 0.0995037
    outer loop
      vertex 3.25 -9.10383e-16 -4.1
      vertex 3.25 -1 -4.1
      vertex 3.3 -7.99361e-16 -3.6
    endloop
  endfacet
  facet normal -0.995037 2.20943e-17 0.0995037
    outer loop
      vertex 3.3 -7.99361e-16 -3.6
      vertex 3.25 -1 -4.1
      vertex 3.3 -1 -3.6
    endloop
  endfacet
  facet normal -0.941742 -7.46817e-17 -0.336336
    outer loop
      vertex 6 2.03171e-15 9.15
      vertex 6.75 1.56541e-15 7.05
      vertex 6 -1 9.15
    endloop
  endfacet
  facet normal -0.941742 -7.46817e-17 -0.336336
    outer loop
      vertex 6 -1 9.15
      vertex 6.75 1.56541e-15 7.05
      vertex 6.75 -1 7.05
    endloop
  endfacet
  facet normal 0 1 -2.22045e-16
    outer loop
      vertex 6 2.03171e-15 9.15
      vertex 7.275 2.58127e-15 11.625
      vertex 6.75 1.56541e-15 7.05
    endloop
  endfacet
  facet normal 0 1 -2.22045e-16
    outer loop
      vertex 8.175 2.39808e-15 10.8
      vertex 7.275 2.58127e-15 11.625
      vertex 9.075 2.56462e-15 11.55
    endloop
  endfacet
  facet normal 0 1 -2.22045e-16
    outer loop
      vertex 8.4 2.08167e-15 9.375
      vertex 9.45 2.498e-15 11.25
      vertex 9.225 2.04836e-15 9.225
    endloop
  endfacet
  facet normal 0 1 -2.22045e-16
    outer loop
      vertex 8.85 1.83187e-15 8.25
      vertex 9.225 2.04836e-15 9.225
      vertex 9.75 1.79856e-15 8.1
    endloop
  endfacet
  facet normal 0 1 -2.22045e-16
    outer loop
      vertex 9.075 1.63203e-15 7.35
      vertex 10.875 1.56541e-15 7.05
      vertex 9.375 1.53211e-15 6.9
    endloop
  endfacet
  facet normal 0 1 -2.22045e-16
    outer loop
      vertex 9.375 1.53211e-15 6.9
      vertex 10.875 1.56541e-15 7.05
      vertex 10.725 1.43219e-15 6.45
    endloop
  endfacet
  facet normal 0 1 -2.22045e-16
    outer loop
      vertex 6.75 1.56541e-15 7.05
      vertex 10.725 1.43219e-15 6.45
      vertex 8.85 1.31561e-15 5.925
    endloop
  endfacet
  facet normal 0 1 -2.22045e-16
    outer loop
      vertex 6.75 1.56541e-15 7.05
      vertex 7.275 2.58127e-15 11.625
      vertex 7.425 2.19824e-15 9.9
    endloop
  endfacet
  facet normal 0 1 -2.22045e-16
    outer loop
      vertex 6.75 1.56541e-15 7.05
      vertex 7.425 2.19824e-15 9.9
      vertex 7.2 1.98175e-15 8.925
    endloop
  endfacet
  facet normal 0 1 -2.22045e-16
    outer loop
      vertex 8.175 1.56541e-15 7.05
      vertex 6.75 1.56541e-15 7.05
      vertex 7.5 1.69864e-15 7.65
    endloop
  endfacet
  facet normal 0 1 -2.22045e-16
    outer loop
      vertex 8.85 1.83187e-15 8.25
      vertex 9.75 1.79856e-15 8.1
      vertex 9.075 1.63203e-15 7.35
    endloop
  endfacet
  facet normal 0 1 -2.22045e-16
    outer loop
      vertex 6.75 1.56541e-15 7.05
      vertex 8.175 1.56541e-15 7.05
      vertex 10.725 1.43219e-15 6.45
    endloop
  endfacet
  facet normal 0 1 -2.22045e-16
    outer loop
      vertex 8.175 1.56541e-15 7.05
      vertex 9.375 1.53211e-15 6.9
      vertex 10.725 1.43219e-15 6.45
    endloop
  endfacet
  facet normal 0 1 -2.22045e-16
    outer loop
      vertex 9.75 1.79856e-15 8.1
      vertex 10.875 1.56541e-15 7.05
      vertex 9.075 1.63203e-15 7.35
    endloop
  endfacet
  facet normal 0 1 -2.22045e-16
    outer loop
      vertex 8.4 2.08167e-15 9.375
      vertex 9.225 2.04836e-15 9.225
      vertex 8.85 1.83187e-15 8.25
    endloop
  endfacet
  facet normal 0 1 -2.22045e-16
    outer loop
      vertex 7.425 2.19824e-15 9.9
      vertex 7.275 2.58127e-15 11.625
      vertex 8.175 2.39808e-15 10.8
    endloop
  endfacet
  facet normal 0 1 -2.22045e-16
    outer loop
      vertex 7.5 1.69864e-15 7.65
      vertex 6.75 1.56541e-15 7.05
      vertex 7.2 1.98175e-15 8.925
    endloop
  endfacet
  facet normal 0 1 -2.22045e-16
    outer loop
      vertex 8.175 2.39808e-15 10.8
      vertex 9.075 2.56462e-15 11.55
      vertex 9.45 2.498e-15 11.25
    endloop
  endfacet
  facet normal 0 1 -2.22045e-16
    outer loop
      vertex 8.175 2.39808e-15 10.8
      vertex 9.45 2.498e-15 11.25
      vertex 8.4 2.08167e-15 9.375
    endloop
  endfacet
  facet normal -0.888975 1.01687e-16 0.457957
    outer loop
      vertex 6 2.03171e-15 9.15
      vertex 6 -1 9.15
      vertex 7.275 2.58127e-15 11.625
    endloop
  endfacet
  facet normal -0.888975 1.01687e-16 0.457957
    outer loop
      vertex 7.275 2.58127e-15 11.625
      vertex 6 -1 9.15
      vertex 7.275 -1 11.625
    endloop
  endfacet
  facet normal 0 -1 2.22045e-16
    outer loop
      vertex 7.275 -1 11.625
      vertex 6 -1 9.15
      vertex 6.75 -1 7.05
    endloop
  endfacet
  facet normal 0 -1 2.22045e-16
    outer loop
      vertex 7.2 -1 8.925
      vertex 7.275 -1 11.625
      vertex 6.75 -1 7.05
    endloop
  endfacet
  facet normal 0 -1 2.22045e-16
    outer loop
      vertex 8.175 -1 10.8
      vertex 9.75 -1 8.1
      vertex 9.225 -1 9.225
    endloop
  endfacet
  facet normal 0 -1 2.22045e-16
    outer loop
      vertex 10.875 -1 7.05
      vertex 9.75 -1 8.1
      vertex 10.725 -1 6.45
    endloop
  endfacet
  facet normal 0 -1 2.22045e-16
    outer loop
      vertex 9.75 -1 8.1
      vertex 8.4 -1 9.375
      vertex 10.725 -1 6.45
    endloop
  endfacet
  facet normal 0 -1 2.22045e-16
    outer loop
      vertex 9.075 -1 11.55
      vertex 7.275 -1 11.625
      vertex 9.45 -1 11.25
    endloop
  endfacet
  facet normal 0 -1 2.22045e-16
    outer loop
      vertex 7.5 -1 7.65
      vertex 7.2 -1 8.925
      vertex 6.75 -1 7.05
    endloop
  endfacet
  facet normal 0 -1 2.22045e-16
    outer loop
      vertex 7.425 -1 9.9
      vertex 7.275 -1 11.625
      vertex 7.2 -1 8.925
    endloop
  endfacet
  facet normal 0 -1 2.22045e-16
    outer loop
      vertex 9.45 -1 11.25
      vertex 8.175 -1 10.8
      vertex 9.225 -1 9.225
    endloop
  endfacet
  facet normal 0 -1 2.22045e-16
    outer loop
      vertex 9.45 -1 11.25
      vertex 7.275 -1 11.625
      vertex 8.175 -1 10.8
    endloop
  endfacet
  facet normal 0 -1 2.22045e-16
    outer loop
      vertex 10.725 -1 6.45
      vertex 8.4 -1 9.375
      vertex 8.85 -1 8.25
    endloop
  endfacet
  facet normal 0 -1 2.22045e-16
    outer loop
      vertex 10.725 -1 6.45
      vertex 8.85 -1 8.25
      vertex 9.075 -1 7.35
    endloop
  endfacet
  facet normal 0 -1 2.22045e-16
    outer loop
      vertex 10.725 -1 6.45
      vertex 9.375 -1 6.9
      vertex 8.85 -1 5.925
    endloop
  endfacet
  facet normal 0 -1 2.22045e-16
    outer loop
      vertex 10.725 -1 6.45
      vertex 9.075 -1 7.35
      vertex 9.375 -1 6.9
    endloop
  endfacet
  facet normal 0 -1 2.22045e-16
    outer loop
      vertex 8.85 -1 5.925
      vertex 8.175 -1 7.05
      vertex 6.75 -1 7.05
    endloop
  endfacet
  facet normal 0 -1 2.22045e-16
    outer loop
      vertex 8.175 -1 7.05
      vertex 7.5 -1 7.65
      vertex 6.75 -1 7.05
    endloop
  endfacet
  facet normal 0 -1 2.22045e-16
    outer loop
      vertex 8.175 -1 10.8
      vertex 8.4 -1 9.375
      vertex 9.75 -1 8.1
    endloop
  endfacet
  facet normal 0 -1 2.22045e-16
    outer loop
      vertex 7.425 -1 9.9
      vertex 8.175 -1 10.8
      vertex 7.275 -1 11.625
    endloop
  endfacet
  facet normal 0 -1 2.22045e-16
    outer loop
      vertex 9.375 -1 6.9
      vertex 8.175 -1 7.05
      vertex 8.85 -1 5.925
    endloop
  endfacet
  facet normal -0.472221 -1.95728e-16 -0.88148
    outer loop
      vertex 6.75 1.56541e-15 7.05
      vertex 8.85 1.31561e-15 5.925
      vertex 6.75 -1 7.05
    endloop
  endfacet
  facet normal -0.472221 -1.95728e-16 -0.88148
    outer loop
      vertex 6.75 -1 7.05
      vertex 8.85 1.31561e-15 5.925
      vertex 8.85 -1 5.925
    endloop
  endfacet
  facet normal 0.26963 -2.13821e-16 -0.962964
    outer loop
      vertex 8.85 1.31561e-15 5.925
      vertex 10.725 1.43219e-15 6.45
      vertex 8.85 -1 5.925
    endloop
  endfacet
  facet normal 0.26963 -2.13821e-16 -0.962964
    outer loop
      vertex 8.85 -1 5.925
      vertex 10.725 1.43219e-15 6.45
      vertex 10.725 -1 6.45
    endloop
  endfacet
  facet normal 0.970143 -5.38537e-17 -0.242536
    outer loop
      vertex 10.725 -1 6.45
      vertex 10.725 1.43219e-15 6.45
      vertex 10.875 1.56541e-15 7.05
    endloop
  endfacet
  facet normal 0.970143 -5.38537e-17 -0.242536
    outer loop
      vertex 10.875 -1 7.05
      vertex 10.725 -1 6.45
      vertex 10.875 1.56541e-15 7.05
    endloop
  endfacet
  facet normal 0.682318 1.62327e-16 0.731055
    outer loop
      vertex 10.875 1.56541e-15 7.05
      vertex 9.75 1.79856e-15 8.1
      vertex 9.75 -1 8.1
    endloop
  endfacet
  facet normal 0.682318 1.62327e-16 0.731055
    outer loop
      vertex 10.875 -1 7.05
      vertex 10.875 1.56541e-15 7.05
      vertex 9.75 -1 8.1
    endloop
  endfacet
  facet normal 0.906183 9.38994e-17 0.422885
    outer loop
      vertex 9.75 1.79856e-15 8.1
      vertex 9.225 2.04836e-15 9.225
      vertex 9.225 -1 9.225
    endloop
  endfacet
  facet normal 0.906183 9.38994e-17 0.422885
    outer loop
      vertex 9.75 -1 8.1
      vertex 9.75 1.79856e-15 8.1
      vertex 9.225 -1 9.225
    endloop
  endfacet
  facet normal 0.993884 -2.45207e-17 -0.110432
    outer loop
      vertex 9.225 -1 9.225
      vertex 9.225 2.04836e-15 9.225
      vertex 9.45 2.498e-15 11.25
    endloop
  endfacet
  facet normal 0.993884 -2.45207e-17 -0.110432
    outer loop
      vertex 9.45 -1 11.25
      vertex 9.225 -1 9.225
      vertex 9.45 2.498e-15 11.25
    endloop
  endfacet
  facet normal 0.624695 1.73388e-16 0.780869
    outer loop
      vertex 9.45 2.498e-15 11.25
      vertex 9.075 2.56462e-15 11.55
      vertex 9.075 -1 11.55
    endloop
  endfacet
  facet normal 0.624695 1.73388e-16 0.780869
    outer loop
      vertex 9.45 -1 11.25
      vertex 9.45 2.498e-15 11.25
      vertex 9.075 -1 11.55
    endloop
  endfacet
  facet normal 0.0416305 2.21852e-16 0.999133
    outer loop
      vertex 9.075 2.56462e-15 11.55
      vertex 7.275 2.58127e-15 11.625
      vertex 7.275 -1 11.625
    endloop
  endfacet
  facet normal 0.0416305 2.21852e-16 0.999133
    outer loop
      vertex 9.075 -1 11.55
      vertex 9.075 2.56462e-15 11.55
      vertex 7.275 -1 11.625
    endloop
  endfacet
  facet normal 0.768221 -1.42149e-16 -0.640184
    outer loop
      vertex 7.425 -1 9.9
      vertex 7.425 2.19824e-15 9.9
      vertex 8.175 2.39808e-15 10.8
    endloop
  endfacet
  facet normal 0.768221 -1.42149e-16 -0.640184
    outer loop
      vertex 8.175 -1 10.8
      vertex 7.425 -1 9.9
      vertex 8.175 2.39808e-15 10.8
    endloop
  endfacet
  facet normal 0.974391 -4.99288e-17 -0.22486
    outer loop
      vertex 7.2 -1 8.925
      vertex 7.2 1.98175e-15 8.925
      vertex 7.425 2.19824e-15 9.9
    endloop
  endfacet
  facet normal 0.974391 -4.99288e-17 -0.22486
    outer loop
      vertex 7.425 -1 9.9
      vertex 7.2 -1 8.925
      vertex 7.425 2.19824e-15 9.9
    endloop
  endfacet
  facet normal -0.987763 -3.46306e-17 -0.155963
    outer loop
      vertex 8.175 2.39808e-15 10.8
      vertex 8.4 2.08167e-15 9.375
      vertex 8.175 -1 10.8
    endloop
  endfacet
  facet normal -0.987763 -3.46306e-17 -0.155963
    outer loop
      vertex 8.175 -1 10.8
      vertex 8.4 2.08167e-15 9.375
      vertex 8.4 -1 9.375
    endloop
  endfacet
  facet normal -0.928477 -8.24653e-17 -0.371391
    outer loop
      vertex 8.4 2.08167e-15 9.375
      vertex 8.85 1.83187e-15 8.25
      vertex 8.4 -1 9.375
    endloop
  endfacet
  facet normal -0.928477 -8.24653e-17 -0.371391
    outer loop
      vertex 8.4 -1 9.375
      vertex 8.85 1.83187e-15 8.25
      vertex 8.85 -1 8.25
    endloop
  endfacet
  facet normal -0.970143 -5.38537e-17 -0.242536
    outer loop
      vertex 8.85 1.83187e-15 8.25
      vertex 9.075 1.63203e-15 7.35
      vertex 8.85 -1 8.25
    endloop
  endfacet
  facet normal -0.970143 -5.38537e-17 -0.242536
    outer loop
      vertex 8.85 -1 8.25
      vertex 9.075 1.63203e-15 7.35
      vertex 9.075 -1 7.35
    endloop
  endfacet
  facet normal -0.83205 -1.23168e-16 -0.5547
    outer loop
      vertex 9.075 1.63203e-15 7.35
      vertex 9.375 1.53211e-15 6.9
      vertex 9.075 -1 7.35
    endloop
  endfacet
  facet normal -0.83205 -1.23168e-16 -0.5547
    outer loop
      vertex 9.075 -1 7.35
      vertex 9.375 1.53211e-15 6.9
      vertex 9.375 -1 6.9
    endloop
  endfacet
  facet normal 0.124035 2.2033e-16 0.992278
    outer loop
      vertex 9.375 1.53211e-15 6.9
      vertex 8.175 1.56541e-15 7.05
      vertex 8.175 -1 7.05
    endloop
  endfacet
  facet normal 0.124035 2.2033e-16 0.992278
    outer loop
      vertex 9.375 -1 6.9
      vertex 9.375 1.53211e-15 6.9
      vertex 8.175 -1 7.05
    endloop
  endfacet
  facet normal 0.664364 1.65958e-16 0.747409
    outer loop
      vertex 8.175 1.56541e-15 7.05
      vertex 7.5 1.69864e-15 7.65
      vertex 7.5 -1 7.65
    endloop
  endfacet
  facet normal 0.664364 1.65958e-16 0.747409
    outer loop
      vertex 8.175 -1 7.05
      vertex 8.175 1.56541e-15 7.05
      vertex 7.5 -1 7.65
    endloop
  endfacet
  facet normal 0.973417 5.08569e-17 0.229039
    outer loop
      vertex 7.5 1.69864e-15 7.65
      vertex 7.2 1.98175e-15 8.925
      vertex 7.2 -1 8.925
    endloop
  endfacet
  facet normal 0.973417 5.08569e-17 0.229039
    outer loop
      vertex 7.5 -1 7.65
      vertex 7.5 1.69864e-15 7.65
      vertex 7.2 -1 8.925
    endloop
  endfacet
endsolid OpenSCAD_Model
