solid OpenSCAD_Model
  facet normal 0.0207807 -0.341946 -0.93949
    outer loop
      vertex -17.4 1.01622 -1.59368
      vertex 4.25 1.17012 -1.17082
      vertex -17.4 0.0765231 -1.25166
    endloop
  endfacet
  facet normal 0.0207807 -0.341946 -0.93949
    outer loop
      vertex -17.4 0.0765231 -1.25166
      vertex 4.25 1.17012 -1.17082
      vertex 4.25 0.230432 -0.828795
    endloop
  endfacet
  facet normal 0 0.939693 -0.34202
    outer loop
      vertex -17.4 1.01622 -1.59368
      vertex -17.3 1.23853 -0.982877
      vertex 4.25 1.17012 -1.17082
    endloop
  endfacet
  facet normal 0 0.939693 -0.34202
    outer loop
      vertex 4.25 1.17012 -1.17082
      vertex -17.3 1.23853 -0.982877
      vertex 10.7 1.46084 -0.372076
    endloop
  endfacet
  facet normal 0 0.939693 -0.34202
    outer loop
      vertex 4.25 1.17012 -1.17082
      vertex 10.7 1.46084 -0.372076
      vertex 10.95 1.37534 -0.606999
    endloop
  endfacet
  facet normal 0 0.939693 -0.34202
    outer loop
      vertex 5.65 1.20433 -1.07685
      vertex 10.95 1.37534 -0.606999
      vertex 10.35 1.23853 -0.982877
    endloop
  endfacet
  facet normal 0 0.939693 -0.34202
    outer loop
      vertex 4.25 1.17012 -1.17082
      vertex 10.95 1.37534 -0.606999
      vertex 5.65 1.20433 -1.07685
    endloop
  endfacet
  facet normal 0 0.939693 -0.34202
    outer loop
      vertex 2.55 -0.881996 -6.80897
      vertex 2.95 -1.29242 -7.9366
      vertex 2.3 -1.30952 -7.98359
    endloop
  endfacet
  facet normal 0 0.939693 -0.34202
    outer loop
      vertex 5.05 1.13592 -1.26478
      vertex 2.95 -1.29242 -7.9366
      vertex 2.55 -0.881996 -6.80897
    endloop
  endfacet
  facet normal 0 0.939693 -0.34202
    outer loop
      vertex 2.95 -1.29242 -7.9366
      vertex 2.45 -1.37793 -8.17153
      vertex 2.3 -1.30952 -7.98359
    endloop
  endfacet
  facet normal 0 0.939693 -0.34202
    outer loop
      vertex 0.25 0.691297 -2.48638
      vertex 4.25 1.17012 -1.17082
      vertex 5.05 1.13592 -1.26478
    endloop
  endfacet
  facet normal 0 0.939693 -0.34202
    outer loop
      vertex -4.15 0.297973 -3.56703
      vertex -3.75 0.554489 -2.86226
      vertex -1.3 0.554489 -2.86226
    endloop
  endfacet
  facet normal 0 0.939693 -0.34202
    outer loop
      vertex 5.05 1.13592 -1.26478
      vertex 4.25 1.17012 -1.17082
      vertex 5.65 1.20433 -1.07685
    endloop
  endfacet
  facet normal 0 0.939693 -0.34202
    outer loop
      vertex 2.4 0.195367 -3.84894
      vertex 2.55 0.417681 -3.23814
      vertex 3 0.229569 -3.75497
    endloop
  endfacet
  facet normal 0 0.939693 -0.34202
    outer loop
      vertex 0.5 0.40058 -3.28512
      vertex 0.25 0.691297 -2.48638
      vertex 2.4 0.195367 -3.84894
    endloop
  endfacet
  facet normal 0 0.939693 -0.34202
    outer loop
      vertex 2.55 0.417681 -3.23814
      vertex 2.4 0.195367 -3.84894
      vertex 0.25 0.691297 -2.48638
    endloop
  endfacet
  facet normal 0 0.939693 -0.34202
    outer loop
      vertex -17.35 -0.899097 -6.85596
      vertex -17.35 -0.642582 -6.15119
      vertex -4.15 0.297973 -3.56703
    endloop
  endfacet
  facet normal 0 0.939693 -0.34202
    outer loop
      vertex 0.25 0.691297 -2.48638
      vertex 0.5 0.40058 -3.28512
      vertex -1.3 0.554489 -2.86226
    endloop
  endfacet
  facet normal 0 0.939693 -0.34202
    outer loop
      vertex 2.95 -1.29242 -7.9366
      vertex 5.05 1.13592 -1.26478
      vertex 5.65 1.20433 -1.07685
    endloop
  endfacet
  facet normal 0 0.939693 -0.34202
    outer loop
      vertex -3.75 0.554489 -2.86226
      vertex -4.15 0.297973 -3.56703
      vertex -17.35 -0.642582 -6.15119
    endloop
  endfacet
  facet normal 0 0.939693 -0.34202
    outer loop
      vertex 4.25 1.17012 -1.17082
      vertex 0.25 0.691297 -2.48638
      vertex -1.3 0.554489 -2.86226
    endloop
  endfacet
  facet normal 0 0.939693 -0.34202
    outer loop
      vertex 4.25 1.17012 -1.17082
      vertex -1.3 0.554489 -2.86226
      vertex -3.75 0.554489 -2.86226
    endloop
  endfacet
  facet normal -0.988372 0.0520066 0.142887
    outer loop
      vertex -17.4 1.01622 -1.59368
      vertex -17.4 0.0765231 -1.25166
      vertex -17.3 1.23853 -0.982877
    endloop
  endfacet
  facet normal -0.988372 0.0520066 0.142887
    outer loop
      vertex -17.3 1.23853 -0.982877
      vertex -17.4 0.0765231 -1.25166
      vertex -17.3 0.298836 -0.640856
    endloop
  endfacet
  facet normal 0 -0.939693 0.34202
    outer loop
      vertex 1.37667 -3.24607e-16 -1.4619
      vertex 1.35 -0.0138665 -1.5
      vertex 4.25 0.230432 -0.828795
    endloop
  endfacet
  facet normal 0 -0.939693 0.34202
    outer loop
      vertex -17.3 0.298836 -0.640856
      vertex -17.4 0.0765231 -1.25166
      vertex 4.25 0.230432 -0.828795
    endloop
  endfacet
  facet normal 0 -0.939693 0.34202
    outer loop
      vertex 5.05 0.19623 -0.922764
      vertex 5.65 0.264634 -0.734826
      vertex 4.25 0.230432 -0.828795
    endloop
  endfacet
  facet normal 0 -0.939693 0.34202
    outer loop
      vertex 5.65 0.264634 -0.734826
      vertex -17.3 0.298836 -0.640856
      vertex 4.25 0.230432 -0.828795
    endloop
  endfacet
  facet normal 0 -0.939693 0.34202
    outer loop
      vertex 1.25561 -3.24607e-16 -1.4619
      vertex 1.37667 -3.24607e-16 -1.4619
      vertex 4.25 0.230432 -0.828795
    endloop
  endfacet
  facet normal 0 -0.939693 0.34202
    outer loop
      vertex 1.35 -0.0138665 -1.5
      vertex 0.65 -0.104859 -1.75
      vertex 4.25 0.230432 -0.828795
    endloop
  endfacet
  facet normal 0 -0.939693 0.34202
    outer loop
      vertex 0.65 -0.104859 -1.75
      vertex 0.816751 -0.195898 -2.00013
      vertex 4.25 0.230432 -0.828795
    endloop
  endfacet
  facet normal 0 -0.939693 0.34202
    outer loop
      vertex 0.816751 -0.195898 -2.00013
      vertex 5.05 0.19623 -0.922764
      vertex 4.25 0.230432 -0.828795
    endloop
  endfacet
  facet normal 0 -0.939693 0.34202
    outer loop
      vertex 2.55 -1.82169 -6.46695
      vertex 2.3 -2.24921 -7.64157
      vertex 5.05 0.19623 -0.922764
    endloop
  endfacet
  facet normal 0 -0.939693 0.34202
    outer loop
      vertex 2.3 -2.24921 -7.64157
      vertex 2.45 -2.31762 -7.8295
      vertex 5.05 0.19623 -0.922764
    endloop
  endfacet
  facet normal 0 -0.939693 0.34202
    outer loop
      vertex 2.45 -2.31762 -7.8295
      vertex 2.95 -2.23211 -7.59458
      vertex 5.05 0.19623 -0.922764
    endloop
  endfacet
  facet normal 0 -0.939693 0.34202
    outer loop
      vertex 2.95 -2.23211 -7.59458
      vertex 5.65 0.264634 -0.734826
      vertex 5.05 0.19623 -0.922764
    endloop
  endfacet
  facet normal 0 -0.939693 0.34202
    outer loop
      vertex 5.65 0.264634 -0.734826
      vertex 10.35 0.298836 -0.640856
      vertex -17.3 0.298836 -0.640856
    endloop
  endfacet
  facet normal 0 -0.939693 0.34202
    outer loop
      vertex 10.35 0.298836 -0.640856
      vertex 10.95 0.435644 -0.264979
      vertex -17.3 0.298836 -0.640856
    endloop
  endfacet
  facet normal 0 -0.939693 0.34202
    outer loop
      vertex 10.95 0.435644 -0.264979
      vertex 10.7 0.521149 -0.0300562
      vertex -17.3 0.298836 -0.640856
    endloop
  endfacet
  facet normal -0.219512 0.333678 0.916773
    outer loop
      vertex -1.81808 -4.88024e-16 -2.19787
      vertex -3.75 0.554489 -2.86226
      vertex -3.75 -0.385204 -2.52024
    endloop
  endfacet
  facet normal -0.219512 0.333678 0.916773
    outer loop
      vertex -1.81808 -4.88024e-16 -2.19787
      vertex 1.25561 -3.24607e-16 -1.4619
      vertex 4.25 1.17012 -1.17082
    endloop
  endfacet
  facet normal -0.219512 0.333678 0.916773
    outer loop
      vertex 4.25 1.17012 -1.17082
      vertex -3.75 0.554489 -2.86226
      vertex -1.81808 -4.88024e-16 -2.19787
    endloop
  endfacet
  facet normal -0.219512 0.333678 0.916773
    outer loop
      vertex 4.25 0.230432 -0.828795
      vertex 4.25 1.17012 -1.17082
      vertex 1.25561 -3.24607e-16 -1.4619
    endloop
  endfacet
  facet normal -0.219512 0.333678 0.916773
    outer loop
      vertex -1.72239 -0.22917 -2.09154
      vertex -1.81808 -4.88024e-16 -2.19787
      vertex -3.75 -0.385204 -2.52024
    endloop
  endfacet
  facet normal -0.249232 0.331227 0.91004
    outer loop
      vertex -3.75 0.554489 -2.86226
      vertex -17.35 -0.642582 -6.15119
      vertex -17.35 -1.58227 -5.80917
    endloop
  endfacet
  facet normal -0.249232 0.331227 0.91004
    outer loop
      vertex -3.75 -0.385204 -2.52024
      vertex -3.75 0.554489 -2.86226
      vertex -17.35 -1.58227 -5.80917
    endloop
  endfacet
  facet normal -1 0 0
    outer loop
      vertex -17.35 -0.899097 -6.85596
      vertex -17.35 -1.83879 -6.51394
      vertex -17.35 -0.642582 -6.15119
    endloop
  endfacet
  facet normal -1 0 0
    outer loop
      vertex -17.35 -0.642582 -6.15119
      vertex -17.35 -1.83879 -6.51394
      vertex -17.35 -1.58227 -5.80917
    endloop
  endfacet
  facet normal 0.256295 -0.330596 -0.908306
    outer loop
      vertex -17.35 -0.899097 -6.85596
      vertex -4.15 0.297973 -3.56703
      vertex -17.35 -1.83879 -6.51394
    endloop
  endfacet
  facet normal 0.256295 -0.330596 -0.908306
    outer loop
      vertex -17.35 -1.83879 -6.51394
      vertex -4.15 0.297973 -3.56703
      vertex -4.15 -0.641719 -3.22501
    endloop
  endfacet
  facet normal 0.254493 -0.330759 -0.908753
    outer loop
      vertex -4.15 0.297973 -3.56703
      vertex -1.3 0.554489 -2.86226
      vertex -4.15 -0.641719 -3.22501
    endloop
  endfacet
  facet normal 0.254493 -0.330759 -0.908753
    outer loop
      vertex -2.13292 -6.42531e-16 -2.8937
      vertex -1.3 0.554489 -2.86226
      vertex -1.3 -5.90737e-16 -2.66044
    endloop
  endfacet
  facet normal 0.254493 -0.330759 -0.908753
    outer loop
      vertex -4.15 -0.641719 -3.22501
      vertex -1.3 0.554489 -2.86226
      vertex -2.13292 -6.42531e-16 -2.8937
    endloop
  endfacet
  facet normal 0.254493 -0.330759 -0.908753
    outer loop
      vertex -2.08461 -0.455823 -2.71427
      vertex -4.15 -0.641719 -3.22501
      vertex -2.13292 -6.42531e-16 -2.8937
    endloop
  endfacet
  facet normal -0.242536 -0.331808 -0.911636
    outer loop
      vertex -1.3 0.554489 -2.86226
      vertex 0.5 0.40058 -3.28512
      vertex -1.3 -5.90737e-16 -2.66044
    endloop
  endfacet
  facet normal -0.242536 -0.331808 -0.911636
    outer loop
      vertex -1.3 -5.90737e-16 -2.66044
      vertex 0.5 0.40058 -3.28512
      vertex 0.5 -6.9707e-16 -3.13932
    endloop
  endfacet
  facet normal -0.301131 -0.326144 -0.896075
    outer loop
      vertex 0.5 0.40058 -3.28512
      vertex 2.4 0.195367 -3.84894
      vertex 0.5 -6.9707e-16 -3.13932
    endloop
  endfacet
  facet normal -0.301131 -0.326144 -0.896075
    outer loop
      vertex 1.55 -0.115898 -3.45
      vertex 2.4 0.195367 -3.84894
      vertex 2.4 -0.744325 -3.50692
    endloop
  endfacet
  facet normal -0.301131 -0.326144 -0.896075
    outer loop
      vertex 1.5817 -7.77786e-16 -3.50284
      vertex 2.4 0.195367 -3.84894
      vertex 1.55 -0.115898 -3.45
    endloop
  endfacet
  facet normal -0.301131 -0.326144 -0.896075
    outer loop
      vertex 0.5 -6.9707e-16 -3.13932
      vertex 2.4 0.195367 -3.84894
      vertex 1.5817 -7.77786e-16 -3.50284
    endloop
  endfacet
  facet normal -0.301131 -0.326144 -0.896075
    outer loop
      vertex 1.55 -0.115898 -3.45
      vertex 2.4 -0.744325 -3.50692
      vertex 1.48386 -0.645377 -3.23506
    endloop
  endfacet
  facet normal 0.164399 -0.337367 -0.926907
    outer loop
      vertex 2.4 0.195367 -3.84894
      vertex 3 0.229569 -3.75497
      vertex 2.4 -0.744325 -3.50692
    endloop
  endfacet
  facet normal 0.164399 -0.337367 -0.926907
    outer loop
      vertex 2.4 -0.744325 -3.50692
      vertex 3 0.229569 -3.75497
      vertex 3 -0.710123 -3.41295
    endloop
  endfacet
  facet normal 0.773957 0.21658 0.595049
    outer loop
      vertex 3 0.229569 -3.75497
      vertex 2.55 0.417681 -3.23814
      vertex 2.55 -0.522012 -2.89612
    endloop
  endfacet
  facet normal 0.773957 0.21658 0.595049
    outer loop
      vertex 3 -0.710123 -3.41295
      vertex 3 0.229569 -3.75497
      vertex 2.55 -0.522012 -2.89612
    endloop
  endfacet
  facet normal 0.328521 0.323037 0.887537
    outer loop
      vertex 2.55 0.417681 -3.23814
      vertex 0.25 0.691297 -2.48638
      vertex 0.25 -4.96219e-16 -2.23477
    endloop
  endfacet
  facet normal 0.328521 0.323037 0.887537
    outer loop
      vertex 1.0976 -0.34923 -2.4214
      vertex 2.55 0.417681 -3.23814
      vertex 1.2101 -5.7513e-16 -2.59015
    endloop
  endfacet
  facet normal 0.328521 0.323037 0.887537
    outer loop
      vertex 1.2101 -5.7513e-16 -2.59015
      vertex 2.55 0.417681 -3.23814
      vertex 0.25 -4.96219e-16 -2.23477
    endloop
  endfacet
  facet normal 0.328521 0.323037 0.887537
    outer loop
      vertex 2.55 -0.522012 -2.89612
      vertex 2.55 0.417681 -3.23814
      vertex 1.0976 -0.34923 -2.4214
    endloop
  endfacet
  facet normal 0.261415 -0.330127 -0.907016
    outer loop
      vertex 0.25 0.691297 -2.48638
      vertex 5.05 1.13592 -1.26478
      vertex 0.25 -4.96219e-16 -2.23477
    endloop
  endfacet
  facet normal 0.261415 -0.330127 -0.907016
    outer loop
      vertex 0.25 -4.96219e-16 -2.23477
      vertex 5.05 1.13592 -1.26478
      vertex 5.05 0.19623 -0.922764
    endloop
  endfacet
  facet normal 0.261415 -0.330127 -0.907016
    outer loop
      vertex 0.856624 -4.57398e-16 -2.05994
      vertex 5.05 0.19623 -0.922764
      vertex 0.816751 -0.195898 -2.00013
    endloop
  endfacet
  facet normal 0.261415 -0.330127 -0.907016
    outer loop
      vertex 0.25 -4.96219e-16 -2.23477
      vertex 5.05 0.19623 -0.922764
      vertex 0.856624 -4.57398e-16 -2.05994
    endloop
  endfacet
  facet normal -0.920752 0.133439 0.36662
    outer loop
      vertex 2.55 -0.881996 -6.80897
      vertex 2.55 -1.82169 -6.46695
      vertex 5.05 1.13592 -1.26478
    endloop
  endfacet
  facet normal -0.920752 0.133439 0.36662
    outer loop
      vertex 5.05 1.13592 -1.26478
      vertex 2.55 -1.82169 -6.46695
      vertex 5.05 0.19623 -0.922764
    endloop
  endfacet
  facet normal -0.980581 0.0670757 0.184289
    outer loop
      vertex 2.3 -1.30952 -7.98359
      vertex 2.3 -2.24921 -7.64157
      vertex 2.55 -0.881996 -6.80897
    endloop
  endfacet
  facet normal -0.980581 0.0670757 0.184289
    outer loop
      vertex 2.55 -0.881996 -6.80897
      vertex 2.3 -2.24921 -7.64157
      vertex 2.55 -1.82169 -6.46695
    endloop
  endfacet
  facet normal -0.8 -0.205212 -0.563816
    outer loop
      vertex 2.3 -1.30952 -7.98359
      vertex 2.45 -1.37793 -8.17153
      vertex 2.3 -2.24921 -7.64157
    endloop
  endfacet
  facet normal -0.8 -0.205212 -0.563816
    outer loop
      vertex 2.3 -2.24921 -7.64157
      vertex 2.45 -1.37793 -8.17153
      vertex 2.45 -2.31762 -7.8295
    endloop
  endfacet
  facet normal 0.447214 -0.305912 -0.840487
    outer loop
      vertex 2.45 -1.37793 -8.17153
      vertex 2.95 -1.29242 -7.9366
      vertex 2.45 -2.31762 -7.8295
    endloop
  endfacet
  facet normal 0.447214 -0.305912 -0.840487
    outer loop
      vertex 2.45 -2.31762 -7.8295
      vertex 2.95 -1.29242 -7.9366
      vertex 2.95 -2.23211 -7.59458
    endloop
  endfacet
  facet normal 0.937904 -0.118645 -0.325975
    outer loop
      vertex 2.95 -2.23211 -7.59458
      vertex 2.95 -1.29242 -7.9366
      vertex 5.65 1.20433 -1.07685
    endloop
  endfacet
  facet normal 0.937904 -0.118645 -0.325975
    outer loop
      vertex 5.65 0.264634 -0.734826
      vertex 2.95 -2.23211 -7.59458
      vertex 5.65 1.20433 -1.07685
    endloop
  endfacet
  facet normal 0.0212718 -0.341943 -0.93948
    outer loop
      vertex 5.65 1.20433 -1.07685
      vertex 10.35 1.23853 -0.982877
      vertex 5.65 0.264634 -0.734826
    endloop
  endfacet
  facet normal 0.0212718 -0.341943 -0.93948
    outer loop
      vertex 5.65 0.264634 -0.734826
      vertex 10.35 1.23853 -0.982877
      vertex 10.35 0.298836 -0.640856
    endloop
  endfacet
  facet normal 0.5547 -0.284578 -0.781872
    outer loop
      vertex 10.35 1.23853 -0.982877
      vertex 10.95 1.37534 -0.606999
      vertex 10.35 0.298836 -0.640856
    endloop
  endfacet
  facet normal 0.5547 -0.284578 -0.781872
    outer loop
      vertex 10.35 0.298836 -0.640856
      vertex 10.95 1.37534 -0.606999
      vertex 10.95 0.435644 -0.264979
    endloop
  endfacet
  facet normal 0.707107 0.241845 0.664463
    outer loop
      vertex 10.95 1.37534 -0.606999
      vertex 10.7 1.46084 -0.372076
      vertex 10.7 0.521149 -0.0300562
    endloop
  endfacet
  facet normal 0.707107 0.241845 0.664463
    outer loop
      vertex 10.95 0.435644 -0.264979
      vertex 10.95 1.37534 -0.606999
      vertex 10.7 0.521149 -0.0300562
    endloop
  endfacet
  facet normal -0.023208 0.341928 0.93944
    outer loop
      vertex 10.7 1.46084 -0.372076
      vertex -17.3 1.23853 -0.982877
      vertex -17.3 0.298836 -0.640856
    endloop
  endfacet
  facet normal -0.023208 0.341928 0.93944
    outer loop
      vertex 10.7 0.521149 -0.0300562
      vertex 10.7 1.46084 -0.372076
      vertex -17.3 0.298836 -0.640856
    endloop
  endfacet
  facet normal 0.83205 1.23168e-16 0.5547
    outer loop
      vertex 0.816751 -0.195898 -2.00013
      vertex 0.65 -0.104859 -1.75
      vertex 0.65 -1 -1.75
    endloop
  endfacet
  facet normal 0.83205 1.23168e-16 0.5547
    outer loop
      vertex 1.0976 -0.34923 -2.4214
      vertex 0.816751 -0.195898 -2.00013
      vertex 1.35 -1 -2.8
    endloop
  endfacet
  facet normal 0.83205 1.23168e-16 0.5547
    outer loop
      vertex 1.35 -1 -2.8
      vertex 0.816751 -0.195898 -2.00013
      vertex 0.65 -1 -1.75
    endloop
  endfacet
  facet normal 0.83205 1.23168e-16 0.5547
    outer loop
      vertex 1.2101 -5.7513e-16 -2.59015
      vertex 0.816751 -0.195898 -2.00013
      vertex 1.0976 -0.34923 -2.4214
    endloop
  endfacet
  facet normal 0.83205 1.23168e-16 0.5547
    outer loop
      vertex 1.35 -0.487028 -2.8
      vertex 1.0976 -0.34923 -2.4214
      vertex 1.35 -1 -2.8
    endloop
  endfacet
  facet normal 0.83205 1.23168e-16 0.5547
    outer loop
      vertex 0.856624 -4.57398e-16 -2.05994
      vertex 0.816751 -0.195898 -2.00013
      vertex 1.2101 -5.7513e-16 -2.59015
    endloop
  endfacet
  facet normal 0.336336 -2.09109e-16 -0.941742
    outer loop
      vertex 0.65 -0.104859 -1.75
      vertex 1.35 -0.0138665 -1.5
      vertex 0.65 -1 -1.75
    endloop
  endfacet
  facet normal 0.336336 -2.09109e-16 -0.941742
    outer loop
      vertex 0.65 -1 -1.75
      vertex 1.35 -0.0138665 -1.5
      vertex 1.35 -1 -1.5
    endloop
  endfacet
  facet normal 0.819232 -1.27334e-16 -0.573462
    outer loop
      vertex 1.35 -1 -1.5
      vertex 1.35 -0.0138665 -1.5
      vertex 1.37667 -3.24607e-16 -1.4619
    endloop
  endfacet
  facet normal 0.819232 -1.27334e-16 -0.573462
    outer loop
      vertex 1.7 -1 -1
      vertex 1.35 -1 -1.5
      vertex 1.7 -2.22045e-16 -1
    endloop
  endfacet
  facet normal 0.819232 -1.27334e-16 -0.573462
    outer loop
      vertex 1.7 -2.22045e-16 -1
      vertex 1.35 -1 -1.5
      vertex 1.37667 -3.24607e-16 -1.4619
    endloop
  endfacet
  facet normal 0 1 -2.22045e-16
    outer loop
      vertex -2.2 1.11022e-16 0.5
      vertex -1.65 2.55351e-16 1.15
      vertex -2.15 -1.66533e-16 -0.75
    endloop
  endfacet
  facet normal 0 1 -2.22045e-16
    outer loop
      vertex -2.15 -1.66533e-16 -0.75
      vertex -1.65 2.55351e-16 1.15
      vertex -0.7 3.66374e-16 1.65
    endloop
  endfacet
  facet normal 0 1 -2.22045e-16
    outer loop
      vertex -2.15 -1.66533e-16 -0.75
      vertex -0.7 3.66374e-16 1.65
      vertex 0.2 3.33067e-16 1.5
    endloop
  endfacet
  facet normal 0 1 -2.22045e-16
    outer loop
      vertex -2.15 -1.66533e-16 -0.75
      vertex 0.2 3.33067e-16 1.5
      vertex 0.8 2.33147e-16 1.05
    endloop
  endfacet
  facet normal 0 1 -2.22045e-16
    outer loop
      vertex -2.15 -1.66533e-16 -0.75
      vertex 0.8 2.33147e-16 1.05
      vertex 1 1.22125e-16 0.55
    endloop
  endfacet
  facet normal 0 1 -2.22045e-16
    outer loop
      vertex -2.15 -1.66533e-16 -0.75
      vertex 1 1.22125e-16 0.55
      vertex 1 6.66134e-17 0.3
    endloop
  endfacet
  facet normal 0 1 -2.22045e-16
    outer loop
      vertex 1 6.66134e-17 0.3
      vertex 1.3 9.99201e-17 0.45
      vertex 1.4 1.11022e-17 0.05
    endloop
  endfacet
  facet normal 0 1 -2.22045e-16
    outer loop
      vertex 1 6.66134e-17 0.3
      vertex 1.4 1.11022e-17 0.05
      vertex -2.15 -1.66533e-16 -0.75
    endloop
  endfacet
  facet normal 0 1 -2.22045e-16
    outer loop
      vertex -2.15 -1.66533e-16 -0.75
      vertex 1.4 1.11022e-17 0.05
      vertex 1.85 -9.99201e-17 -0.45
    endloop
  endfacet
  facet normal 0 1 -2.22045e-16
    outer loop
      vertex -2.15 -1.66533e-16 -0.75
      vertex 1.85 -9.99201e-17 -0.45
      vertex 1.7 -2.22045e-16 -1
    endloop
  endfacet
  facet normal 0 1 -2.22045e-16
    outer loop
      vertex -2.15 -1.66533e-16 -0.75
      vertex 1.7 -2.22045e-16 -1
      vertex 1.37667 -3.24607e-16 -1.4619
    endloop
  endfacet
  facet normal 0 1 -2.22045e-16
    outer loop
      vertex -2.15 -1.66533e-16 -0.75
      vertex 1.37667 -3.24607e-16 -1.4619
      vertex 1.25561 -3.24607e-16 -1.4619
    endloop
  endfacet
  facet normal 0 1 -2.22045e-16
    outer loop
      vertex -1.55 -4.21885e-16 -1.9
      vertex 1.25561 -3.24607e-16 -1.4619
      vertex -1.81808 -4.88024e-16 -2.19787
    endloop
  endfacet
  facet normal 0 1 -2.22045e-16
    outer loop
      vertex -0.85 -3.44169e-16 -1.55
      vertex 1.25561 -3.24607e-16 -1.4619
      vertex -1.55 -4.21885e-16 -1.9
    endloop
  endfacet
  facet normal 0 1 -2.22045e-16
    outer loop
      vertex -2.15 -1.66533e-16 -0.75
      vertex 1.25561 -3.24607e-16 -1.4619
      vertex -0.85 -3.44169e-16 -1.55
    endloop
  endfacet
  facet normal 0 1 -2.22045e-16
    outer loop
      vertex -2.15 -1.66533e-16 -0.75
      vertex -0.85 -3.44169e-16 -1.55
      vertex -1.5 -3.10862e-16 -1.4
    endloop
  endfacet
  facet normal -0.743294 1.4854e-16 0.668965
    outer loop
      vertex -2 -0.34144 -2.4
      vertex -2 -1 -2.4
      vertex -1.72239 -0.22917 -2.09154
    endloop
  endfacet
  facet normal -0.743294 1.4854e-16 0.668965
    outer loop
      vertex -1.72239 -0.22917 -2.09154
      vertex -2 -1 -2.4
      vertex -1.55 -1 -1.9
    endloop
  endfacet
  facet normal -0.743294 1.4854e-16 0.668965
    outer loop
      vertex -1.72239 -0.22917 -2.09154
      vertex -1.55 -1 -1.9
      vertex -1.55 -4.21885e-16 -1.9
    endloop
  endfacet
  facet normal -0.743294 1.4854e-16 0.668965
    outer loop
      vertex -1.72239 -0.22917 -2.09154
      vertex -1.55 -4.21885e-16 -1.9
      vertex -1.81808 -4.88024e-16 -2.19787
    endloop
  endfacet
  facet normal 0 -0.939693 0.34202
    outer loop
      vertex -2 -0.34144 -2.4
      vertex -1.72239 -0.22917 -2.09154
      vertex -17.35 -1.58227 -5.80917
    endloop
  endfacet
  facet normal 0 -0.939693 0.34202
    outer loop
      vertex -17.35 -1.58227 -5.80917
      vertex -17.35 -1.83879 -6.51394
      vertex -4.15 -0.641719 -3.22501
    endloop
  endfacet
  facet normal 0 -0.939693 0.34202
    outer loop
      vertex -2.08461 -0.455823 -2.71427
      vertex -17.35 -1.58227 -5.80917
      vertex -4.15 -0.641719 -3.22501
    endloop
  endfacet
  facet normal 0 -0.939693 0.34202
    outer loop
      vertex -2.08461 -0.455823 -2.71427
      vertex -2 -0.34144 -2.4
      vertex -17.35 -1.58227 -5.80917
    endloop
  endfacet
  facet normal 0 -0.939693 0.34202
    outer loop
      vertex -1.72239 -0.22917 -2.09154
      vertex -3.75 -0.385204 -2.52024
      vertex -17.35 -1.58227 -5.80917
    endloop
  endfacet
  facet normal -0.965616 5.77257e-17 0.259973
    outer loop
      vertex -2.35 -8.21565e-16 -3.7
      vertex -2.35 -1 -3.7
      vertex -2.13292 -6.42531e-16 -2.8937
    endloop
  endfacet
  facet normal -0.965616 5.77257e-17 0.259973
    outer loop
      vertex -2.08461 -0.455823 -2.71427
      vertex -2.35 -1 -3.7
      vertex -2 -1 -2.4
    endloop
  endfacet
  facet normal -0.965616 5.77257e-17 0.259973
    outer loop
      vertex -2.13292 -6.42531e-16 -2.8937
      vertex -2.35 -1 -3.7
      vertex -2.08461 -0.455823 -2.71427
    endloop
  endfacet
  facet normal -0.965616 5.77257e-17 0.259973
    outer loop
      vertex -2.08461 -0.455823 -2.71427
      vertex -2 -1 -2.4
      vertex -2 -0.34144 -2.4
    endloop
  endfacet
  facet normal 0 1 -2.22045e-16
    outer loop
      vertex -3.2 -1.37668e-15 -6.2
      vertex -2.8 -1.18794e-15 -5.35
      vertex -2.85 -1.52101e-15 -6.85
    endloop
  endfacet
  facet normal 0 1 -2.22045e-16
    outer loop
      vertex -2.85 -1.52101e-15 -6.85
      vertex -2.8 -1.18794e-15 -5.35
      vertex -2.5 -9.54792e-16 -4.3
    endloop
  endfacet
  facet normal 0 1 -2.22045e-16
    outer loop
      vertex -2.5 -9.54792e-16 -4.3
      vertex -2.35 -8.21565e-16 -3.7
      vertex -2.85 -1.52101e-15 -6.85
    endloop
  endfacet
  facet normal 0 1 -2.22045e-16
    outer loop
      vertex -2.85 -1.52101e-15 -6.85
      vertex -2.35 -8.21565e-16 -3.7
      vertex -2.13292 -6.42531e-16 -2.8937
    endloop
  endfacet
  facet normal 0 1 -2.22045e-16
    outer loop
      vertex -2.85 -1.52101e-15 -6.85
      vertex -2.13292 -6.42531e-16 -2.8937
      vertex -1.3 -5.90737e-16 -2.66044
    endloop
  endfacet
  facet normal 0 1 -2.22045e-16
    outer loop
      vertex -2.85 -1.52101e-15 -6.85
      vertex -1.3 -5.90737e-16 -2.66044
      vertex 0.5 -6.9707e-16 -3.13932
    endloop
  endfacet
  facet normal 0 1 -2.22045e-16
    outer loop
      vertex -2.85 -1.52101e-15 -6.85
      vertex 0.5 -6.9707e-16 -3.13932
      vertex 1.5817 -7.77786e-16 -3.50284
    endloop
  endfacet
  facet normal 0 1 -2.22045e-16
    outer loop
      vertex 0.75 -9.21485e-16 -4.15
      vertex 1.5817 -7.77786e-16 -3.50284
      vertex 1.7 -8.21565e-16 -3.7
    endloop
  endfacet
  facet normal 0 1 -2.22045e-16
    outer loop
      vertex 1.15 -9.54792e-16 -4.3
      vertex 1.7 -8.21565e-16 -3.7
      vertex 2.1 -8.65974e-16 -3.9
    endloop
  endfacet
  facet normal 0 1 -2.22045e-16
    outer loop
      vertex 1.35 -9.88098e-16 -4.45
      vertex 2.1 -8.65974e-16 -3.9
      vertex 2.05 -9.54792e-16 -4.3
    endloop
  endfacet
  facet normal 0 1 -2.22045e-16
    outer loop
      vertex 1 -1.15463e-15 -5.2
      vertex -0.7 -1.28786e-15 -5.8
      vertex 0.85 -1.03251e-15 -4.65
    endloop
  endfacet
  facet normal 0 1 -2.22045e-16
    outer loop
      vertex 1.15 -9.54792e-16 -4.3
      vertex 2.1 -8.65974e-16 -3.9
      vertex 1.35 -9.88098e-16 -4.45
    endloop
  endfacet
  facet normal 0 1 -2.22045e-16
    outer loop
      vertex 0.75 -9.21485e-16 -4.15
      vertex 1.7 -8.21565e-16 -3.7
      vertex 1.15 -9.54792e-16 -4.3
    endloop
  endfacet
  facet normal 0 1 -2.22045e-16
    outer loop
      vertex -2.85 -1.52101e-15 -6.85
      vertex 1.5817 -7.77786e-16 -3.50284
      vertex 0.75 -9.21485e-16 -4.15
    endloop
  endfacet
  facet normal 0 1 -2.22045e-16
    outer loop
      vertex 0.85 -1.03251e-15 -4.65
      vertex -2.85 -1.52101e-15 -6.85
      vertex 0.75 -9.21485e-16 -4.15
    endloop
  endfacet
  facet normal 0 1 -2.22045e-16
    outer loop
      vertex -0.7 -1.28786e-15 -5.8
      vertex -2.85 -1.52101e-15 -6.85
      vertex 0.85 -1.03251e-15 -4.65
    endloop
  endfacet
  facet normal 0 1 -2.22045e-16
    outer loop
      vertex -0.35 -1.38778e-15 -6.25
      vertex 1.4 -1.29896e-15 -5.85
      vertex 0.85 -1.38778e-15 -6.25
    endloop
  endfacet
  facet normal 0 1 -2.22045e-16
    outer loop
      vertex 1 -1.22125e-15 -5.5
      vertex 1.4 -1.18794e-15 -5.35
      vertex 1.4 -1.29896e-15 -5.85
    endloop
  endfacet
  facet normal 0 1 -2.22045e-16
    outer loop
      vertex -0.7 -1.28786e-15 -5.8
      vertex 1 -1.15463e-15 -5.2
      vertex 1 -1.22125e-15 -5.5
    endloop
  endfacet
  facet normal 0 1 -2.22045e-16
    outer loop
      vertex -1.6 -1.43219e-15 -6.45
      vertex -2.85 -1.52101e-15 -6.85
      vertex -0.7 -1.28786e-15 -5.8
    endloop
  endfacet
  facet normal 0 1 -2.22045e-16
    outer loop
      vertex 1 -1.22125e-15 -5.5
      vertex 1.4 -1.29896e-15 -5.85
      vertex -0.35 -1.38778e-15 -6.25
    endloop
  endfacet
  facet normal 0 1 -2.22045e-16
    outer loop
      vertex -1.35 -1.44329e-15 -6.5
      vertex -2.85 -1.52101e-15 -6.85
      vertex -1.6 -1.43219e-15 -6.45
    endloop
  endfacet
  facet normal 0 1 -2.22045e-16
    outer loop
      vertex -0.35 -1.38778e-15 -6.25
      vertex 0.85 -1.38778e-15 -6.25
      vertex 0.4 -1.4766e-15 -6.65
    endloop
  endfacet
  facet normal 0 1 -2.22045e-16
    outer loop
      vertex -0.7 -1.28786e-15 -5.8
      vertex 1 -1.22125e-15 -5.5
      vertex -0.35 -1.38778e-15 -6.25
    endloop
  endfacet
  facet normal 0 1 -2.22045e-16
    outer loop
      vertex 1.35 -9.88098e-16 -4.45
      vertex 2.05 -9.54792e-16 -4.3
      vertex 2.15 -9.99201e-16 -4.5
    endloop
  endfacet
  facet normal 0.857493 1.14241e-16 0.514496
    outer loop
      vertex 1.5817 -7.77786e-16 -3.50284
      vertex 1.55 -0.115898 -3.45
      vertex 1.55 -1 -3.45
    endloop
  endfacet
  facet normal 0.857493 1.14241e-16 0.514496
    outer loop
      vertex 1.7 -8.21565e-16 -3.7
      vertex 1.5817 -7.77786e-16 -3.50284
      vertex 1.7 -1 -3.7
    endloop
  endfacet
  facet normal 0.857493 1.14241e-16 0.514496
    outer loop
      vertex 1.7 -1 -3.7
      vertex 1.5817 -7.77786e-16 -3.50284
      vertex 1.55 -1 -3.45
    endloop
  endfacet
  facet normal 0.955779 6.53002e-17 0.294086
    outer loop
      vertex 1.48386 -0.645377 -3.23506
      vertex 1.35 -0.487028 -2.8
      vertex 1.35 -1 -2.8
    endloop
  endfacet
  facet normal 0.955779 6.53002e-17 0.294086
    outer loop
      vertex 1.55 -0.115898 -3.45
      vertex 1.48386 -0.645377 -3.23506
      vertex 1.55 -1 -3.45
    endloop
  endfacet
  facet normal 0.955779 6.53002e-17 0.294086
    outer loop
      vertex 1.55 -1 -3.45
      vertex 1.48386 -0.645377 -3.23506
      vertex 1.35 -1 -2.8
    endloop
  endfacet
  facet normal 0 -0.939693 0.34202
    outer loop
      vertex 2.55 -0.522012 -2.89612
      vertex 1.0976 -0.34923 -2.4214
      vertex 1.35 -0.487028 -2.8
    endloop
  endfacet
  facet normal 0 -0.939693 0.34202
    outer loop
      vertex 1.48386 -0.645377 -3.23506
      vertex 2.55 -0.522012 -2.89612
      vertex 1.35 -0.487028 -2.8
    endloop
  endfacet
  facet normal 0 -0.939693 0.34202
    outer loop
      vertex 1.48386 -0.645377 -3.23506
      vertex 2.4 -0.744325 -3.50692
      vertex 2.55 -0.522012 -2.89612
    endloop
  endfacet
  facet normal 0 -0.939693 0.34202
    outer loop
      vertex 2.4 -0.744325 -3.50692
      vertex 3 -0.710123 -3.41295
      vertex 2.55 -0.522012 -2.89612
    endloop
  endfacet
  facet normal 0 1 -2.22045e-16
    outer loop
      vertex 1.2101 -5.7513e-16 -2.59015
      vertex 0.25 -4.96219e-16 -2.23477
      vertex 0.856624 -4.57398e-16 -2.05994
    endloop
  endfacet
  facet normal 0 -1 2.22045e-16
    outer loop
      vertex -2.8 -1 -5.35
      vertex -3.2 -1 -6.2
      vertex -2.85 -1 -6.85
    endloop
  endfacet
  facet normal 0 -1 2.22045e-16
    outer loop
      vertex -1.6 -1 -6.45
      vertex -2.8 -1 -5.35
      vertex -2.85 -1 -6.85
    endloop
  endfacet
  facet normal 0 -1 2.22045e-16
    outer loop
      vertex -1.35 -1 -6.5
      vertex -1.6 -1 -6.45
      vertex -2.85 -1 -6.85
    endloop
  endfacet
  facet normal 0 -1 2.22045e-16
    outer loop
      vertex 1 -1 -5.5
      vertex 1 -1 -5.2
      vertex -2.8 -1 -5.35
    endloop
  endfacet
  facet normal 0 -1 2.22045e-16
    outer loop
      vertex 1.4 -1 -5.85
      vertex -2.8 -1 -5.35
      vertex -0.7 -1 -5.8
    endloop
  endfacet
  facet normal 0 -1 2.22045e-16
    outer loop
      vertex 0.4 -1 -6.65
      vertex -0.7 -1 -5.8
      vertex -0.35 -1 -6.25
    endloop
  endfacet
  facet normal 0 -1 2.22045e-16
    outer loop
      vertex 0.85 -1 -6.25
      vertex -0.7 -1 -5.8
      vertex 0.4 -1 -6.65
    endloop
  endfacet
  facet normal 0 -1 2.22045e-16
    outer loop
      vertex 1.4 -1 -5.85
      vertex -0.7 -1 -5.8
      vertex 0.85 -1 -6.25
    endloop
  endfacet
  facet normal 0 -1 2.22045e-16
    outer loop
      vertex 1 -1 -5.5
      vertex -2.8 -1 -5.35
      vertex 1.4 -1 -5.85
    endloop
  endfacet
  facet normal 0 -1 2.22045e-16
    outer loop
      vertex 1.4 -1 -5.35
      vertex 1 -1 -5.5
      vertex 1.4 -1 -5.85
    endloop
  endfacet
  facet normal 0 -1 2.22045e-16
    outer loop
      vertex 0.85 -1 -4.65
      vertex -2.8 -1 -5.35
      vertex 1 -1 -5.2
    endloop
  endfacet
  facet normal 0 -1 2.22045e-16
    outer loop
      vertex 0.75 -1 -4.15
      vertex -2.8 -1 -5.35
      vertex 0.85 -1 -4.65
    endloop
  endfacet
  facet normal 0 -1 2.22045e-16
    outer loop
      vertex 1.7 -1 -3.7
      vertex -2.8 -1 -5.35
      vertex 0.75 -1 -4.15
    endloop
  endfacet
  facet normal 0 -1 2.22045e-16
    outer loop
      vertex 2.15 -1 -4.5
      vertex 0.75 -1 -4.15
      vertex 1.15 -1 -4.3
    endloop
  endfacet
  facet normal 0 -1 2.22045e-16
    outer loop
      vertex 2.15 -1 -4.5
      vertex 1.15 -1 -4.3
      vertex 1.35 -1 -4.45
    endloop
  endfacet
  facet normal 0 -1 2.22045e-16
    outer loop
      vertex 2.05 -1 -4.3
      vertex 0.75 -1 -4.15
      vertex 2.15 -1 -4.5
    endloop
  endfacet
  facet normal 0 -1 2.22045e-16
    outer loop
      vertex 2.1 -1 -3.9
      vertex 0.75 -1 -4.15
      vertex 2.05 -1 -4.3
    endloop
  endfacet
  facet normal 0 -1 2.22045e-16
    outer loop
      vertex 1.7 -1 -3.7
      vertex 0.75 -1 -4.15
      vertex 2.1 -1 -3.9
    endloop
  endfacet
  facet normal 0 -1 2.22045e-16
    outer loop
      vertex 1.55 -1 -3.45
      vertex -2.8 -1 -5.35
      vertex 1.7 -1 -3.7
    endloop
  endfacet
  facet normal 0 -1 2.22045e-16
    outer loop
      vertex 1.35 -1 -2.8
      vertex -2.8 -1 -5.35
      vertex 1.55 -1 -3.45
    endloop
  endfacet
  facet normal 0 -1 2.22045e-16
    outer loop
      vertex 0.65 -1 -1.75
      vertex -2.8 -1 -5.35
      vertex 1.35 -1 -2.8
    endloop
  endfacet
  facet normal 0 -1 2.22045e-16
    outer loop
      vertex 1.85 -1 -0.45
      vertex -2.8 -1 -5.35
      vertex 0.65 -1 -1.75
    endloop
  endfacet
  facet normal 0 -1 2.22045e-16
    outer loop
      vertex 1.7 -1 -1
      vertex 0.65 -1 -1.75
      vertex 1.35 -1 -1.5
    endloop
  endfacet
  facet normal 0 -1 2.22045e-16
    outer loop
      vertex 1.85 -1 -0.45
      vertex 0.65 -1 -1.75
      vertex 1.7 -1 -1
    endloop
  endfacet
  facet normal 0 -1 2.22045e-16
    outer loop
      vertex 1.4 -1 0.05
      vertex -2.8 -1 -5.35
      vertex 1.85 -1 -0.45
    endloop
  endfacet
  facet normal 0 -1 2.22045e-16
    outer loop
      vertex 1.3 -1 0.45
      vertex -2.8 -1 -5.35
      vertex 1.4 -1 0.05
    endloop
  endfacet
  facet normal 0 -1 2.22045e-16
    outer loop
      vertex 1 -1 0.3
      vertex -2.8 -1 -5.35
      vertex 1.3 -1 0.45
    endloop
  endfacet
  facet normal 0 -1 2.22045e-16
    outer loop
      vertex 1 -1 0.55
      vertex -2.8 -1 -5.35
      vertex 1 -1 0.3
    endloop
  endfacet
  facet normal 0 -1 2.22045e-16
    outer loop
      vertex 0.8 -1 1.05
      vertex -2.8 -1 -5.35
      vertex 1 -1 0.55
    endloop
  endfacet
  facet normal 0 -1 2.22045e-16
    outer loop
      vertex -0.85 -1 -1.55
      vertex -2.8 -1 -5.35
      vertex 0.8 -1 1.05
    endloop
  endfacet
  facet normal 0 -1 2.22045e-16
    outer loop
      vertex -1.6 -1 -6.45
      vertex -0.7 -1 -5.8
      vertex -2.8 -1 -5.35
    endloop
  endfacet
  facet normal 0 -1 2.22045e-16
    outer loop
      vertex -2.2 -1 0.5
      vertex -2.15 -1 -0.75
      vertex -1.65 -1 1.15
    endloop
  endfacet
  facet normal 0 -1 2.22045e-16
    outer loop
      vertex -0.7 -1 1.65
      vertex -1.5 -1 -1.4
      vertex 0.2 -1 1.5
    endloop
  endfacet
  facet normal 0 -1 2.22045e-16
    outer loop
      vertex 0.2 -1 1.5
      vertex -0.85 -1 -1.55
      vertex 0.8 -1 1.05
    endloop
  endfacet
  facet normal 0 -1 2.22045e-16
    outer loop
      vertex -1.55 -1 -1.9
      vertex -2 -1 -2.4
      vertex -2.35 -1 -3.7
    endloop
  endfacet
  facet normal 0 -1 2.22045e-16
    outer loop
      vertex -1.5 -1 -1.4
      vertex -0.85 -1 -1.55
      vertex 0.2 -1 1.5
    endloop
  endfacet
  facet normal 0 -1 2.22045e-16
    outer loop
      vertex -0.85 -1 -1.55
      vertex -2.5 -1 -4.3
      vertex -2.8 -1 -5.35
    endloop
  endfacet
  facet normal 0 -1 2.22045e-16
    outer loop
      vertex -0.85 -1 -1.55
      vertex -1.55 -1 -1.9
      vertex -2.5 -1 -4.3
    endloop
  endfacet
  facet normal 0 -1 2.22045e-16
    outer loop
      vertex -1.55 -1 -1.9
      vertex -2.35 -1 -3.7
      vertex -2.5 -1 -4.3
    endloop
  endfacet
  facet normal 0 -1 2.22045e-16
    outer loop
      vertex -2.15 -1 -0.75
      vertex -0.7 -1 1.65
      vertex -1.65 -1 1.15
    endloop
  endfacet
  facet normal 0 -1 2.22045e-16
    outer loop
      vertex -2.15 -1 -0.75
      vertex -1.5 -1 -1.4
      vertex -0.7 -1 1.65
    endloop
  endfacet
  facet normal 0.964764 -5.84238e-17 -0.263117
    outer loop
      vertex 1.7 -1 -1
      vertex 1.7 -2.22045e-16 -1
      vertex 1.85 -9.99201e-17 -0.45
    endloop
  endfacet
  facet normal 0.964764 -5.84238e-17 -0.263117
    outer loop
      vertex 1.85 -1 -0.45
      vertex 1.7 -1 -1
      vertex 1.85 -9.99201e-17 -0.45
    endloop
  endfacet
  facet normal -0.999201 -8.87469e-18 -0.039968
    outer loop
      vertex -2.2 1.11022e-16 0.5
      vertex -2.15 -1.66533e-16 -0.75
      vertex -2.2 -1 0.5
    endloop
  endfacet
  facet normal -0.999201 -8.87469e-18 -0.039968
    outer loop
      vertex -2.2 -1 0.5
      vertex -2.15 -1.66533e-16 -0.75
      vertex -2.15 -1 -0.75
    endloop
  endfacet
  facet normal -0.707107 -1.57009e-16 -0.707107
    outer loop
      vertex -2.15 -1.66533e-16 -0.75
      vertex -1.5 -3.10862e-16 -1.4
      vertex -2.15 -1 -0.75
    endloop
  endfacet
  facet normal -0.707107 -1.57009e-16 -0.707107
    outer loop
      vertex -2.15 -1 -0.75
      vertex -1.5 -3.10862e-16 -1.4
      vertex -1.5 -1 -1.4
    endloop
  endfacet
  facet normal -0.22486 -2.16358e-16 -0.974391
    outer loop
      vertex -1.5 -3.10862e-16 -1.4
      vertex -0.85 -3.44169e-16 -1.55
      vertex -1.5 -1 -1.4
    endloop
  endfacet
  facet normal -0.22486 -2.16358e-16 -0.974391
    outer loop
      vertex -1.5 -1 -1.4
      vertex -0.85 -3.44169e-16 -1.55
      vertex -0.85 -1 -1.55
    endloop
  endfacet
  facet normal -0.447214 1.98603e-16 0.894427
    outer loop
      vertex -0.85 -3.44169e-16 -1.55
      vertex -1.55 -4.21885e-16 -1.9
      vertex -1.55 -1 -1.9
    endloop
  endfacet
  facet normal -0.447214 1.98603e-16 0.894427
    outer loop
      vertex -0.85 -1 -1.55
      vertex -0.85 -3.44169e-16 -1.55
      vertex -1.55 -1 -1.9
    endloop
  endfacet
  facet normal 0.743294 1.4854e-16 0.668965
    outer loop
      vertex 1.85 -9.99201e-17 -0.45
      vertex 1.4 1.11022e-17 0.05
      vertex 1.4 -1 0.05
    endloop
  endfacet
  facet normal 0.743294 1.4854e-16 0.668965
    outer loop
      vertex 1.85 -1 -0.45
      vertex 1.85 -9.99201e-17 -0.45
      vertex 1.4 -1 0.05
    endloop
  endfacet
  facet normal 0.970143 5.38537e-17 0.242536
    outer loop
      vertex 1.4 1.11022e-17 0.05
      vertex 1.3 9.99201e-17 0.45
      vertex 1.3 -1 0.45
    endloop
  endfacet
  facet normal 0.970143 5.38537e-17 0.242536
    outer loop
      vertex 1.4 -1 0.05
      vertex 1.4 1.11022e-17 0.05
      vertex 1.3 -1 0.45
    endloop
  endfacet
  facet normal -0.447214 1.98603e-16 0.894427
    outer loop
      vertex 1.3 9.99201e-17 0.45
      vertex 1 6.66134e-17 0.3
      vertex 1 -1 0.3
    endloop
  endfacet
  facet normal -0.447214 1.98603e-16 0.894427
    outer loop
      vertex 1.3 -1 0.45
      vertex 1.3 9.99201e-17 0.45
      vertex 1 -1 0.3
    endloop
  endfacet
  facet normal 1 0 0
    outer loop
      vertex 1 -1 0.3
      vertex 1 6.66134e-17 0.3
      vertex 1 1.22125e-16 0.55
    endloop
  endfacet
  facet normal 1 0 0
    outer loop
      vertex 1 -1 0.55
      vertex 1 -1 0.3
      vertex 1 1.22125e-16 0.55
    endloop
  endfacet
  facet normal 0.928477 8.24653e-17 0.371391
    outer loop
      vertex 1 1.22125e-16 0.55
      vertex 0.8 2.33147e-16 1.05
      vertex 0.8 -1 1.05
    endloop
  endfacet
  facet normal 0.928477 8.24653e-17 0.371391
    outer loop
      vertex 1 -1 0.55
      vertex 1 1.22125e-16 0.55
      vertex 0.8 -1 1.05
    endloop
  endfacet
  facet normal 0.6 1.77636e-16 0.8
    outer loop
      vertex 0.8 2.33147e-16 1.05
      vertex 0.2 3.33067e-16 1.5
      vertex 0.2 -1 1.5
    endloop
  endfacet
  facet normal 0.6 1.77636e-16 0.8
    outer loop
      vertex 0.8 -1 1.05
      vertex 0.8 2.33147e-16 1.05
      vertex 0.2 -1 1.5
    endloop
  endfacet
  facet normal 0.164399 2.19023e-16 0.986394
    outer loop
      vertex 0.2 3.33067e-16 1.5
      vertex -0.7 3.66374e-16 1.65
      vertex -0.7 -1 1.65
    endloop
  endfacet
  facet normal 0.164399 2.19023e-16 0.986394
    outer loop
      vertex 0.2 -1 1.5
      vertex 0.2 3.33067e-16 1.5
      vertex -0.7 -1 1.65
    endloop
  endfacet
  facet normal -0.465746 1.96491e-16 0.884918
    outer loop
      vertex -0.7 3.66374e-16 1.65
      vertex -1.65 2.55351e-16 1.15
      vertex -1.65 -1 1.15
    endloop
  endfacet
  facet normal -0.465746 1.96491e-16 0.884918
    outer loop
      vertex -0.7 -1 1.65
      vertex -0.7 3.66374e-16 1.65
      vertex -1.65 -1 1.15
    endloop
  endfacet
  facet normal -0.763386 1.43428e-16 0.645942
    outer loop
      vertex -2.2 1.11022e-16 0.5
      vertex -2.2 -1 0.5
      vertex -1.65 2.55351e-16 1.15
    endloop
  endfacet
  facet normal -0.763386 1.43428e-16 0.645942
    outer loop
      vertex -1.65 2.55351e-16 1.15
      vertex -2.2 -1 0.5
      vertex -1.65 -1 1.15
    endloop
  endfacet
  facet normal -0.970143 5.38537e-17 0.242536
    outer loop
      vertex -2.5 -9.54792e-16 -4.3
      vertex -2.5 -1 -4.3
      vertex -2.35 -8.21565e-16 -3.7
    endloop
  endfacet
  facet normal -0.970143 5.38537e-17 0.242536
    outer loop
      vertex -2.35 -8.21565e-16 -3.7
      vertex -2.5 -1 -4.3
      vertex -2.35 -1 -3.7
    endloop
  endfacet
  facet normal -0.880471 -1.05271e-16 -0.4741
    outer loop
      vertex -3.2 -1.37668e-15 -6.2
      vertex -2.85 -1.52101e-15 -6.85
      vertex -3.2 -1 -6.2
    endloop
  endfacet
  facet normal -0.880471 -1.05271e-16 -0.4741
    outer loop
      vertex -3.2 -1 -6.2
      vertex -2.85 -1.52101e-15 -6.85
      vertex -2.85 -1 -6.85
    endloop
  endfacet
  facet normal 0.22723 -2.16236e-16 -0.973841
    outer loop
      vertex -2.85 -1.52101e-15 -6.85
      vertex -1.35 -1.44329e-15 -6.5
      vertex -2.85 -1 -6.85
    endloop
  endfacet
  facet normal 0.22723 -2.16236e-16 -0.973841
    outer loop
      vertex -2.85 -1 -6.85
      vertex -1.35 -1.44329e-15 -6.5
      vertex -1.35 -1 -6.5
    endloop
  endfacet
  facet normal 0.196116 2.17733e-16 0.980581
    outer loop
      vertex -1.35 -1.44329e-15 -6.5
      vertex -1.6 -1.43219e-15 -6.45
      vertex -1.6 -1 -6.45
    endloop
  endfacet
  facet normal 0.196116 2.17733e-16 0.980581
    outer loop
      vertex -1.35 -1 -6.5
      vertex -1.35 -1.44329e-15 -6.5
      vertex -1.6 -1 -6.45
    endloop
  endfacet
  facet normal 0.585491 -1.80007e-16 -0.810679
    outer loop
      vertex -1.6 -1.43219e-15 -6.45
      vertex -0.7 -1.28786e-15 -5.8
      vertex -1.6 -1 -6.45
    endloop
  endfacet
  facet normal 0.585491 -1.80007e-16 -0.810679
    outer loop
      vertex -1.6 -1 -6.45
      vertex -0.7 -1.28786e-15 -5.8
      vertex -0.7 -1 -5.8
    endloop
  endfacet
  facet normal -0.789352 -1.36322e-16 -0.613941
    outer loop
      vertex -0.7 -1.28786e-15 -5.8
      vertex -0.35 -1.38778e-15 -6.25
      vertex -0.7 -1 -5.8
    endloop
  endfacet
  facet normal -0.789352 -1.36322e-16 -0.613941
    outer loop
      vertex -0.7 -1 -5.8
      vertex -0.35 -1.38778e-15 -6.25
      vertex -0.35 -1 -6.25
    endloop
  endfacet
  facet normal -0.470588 -1.95922e-16 -0.882353
    outer loop
      vertex -0.35 -1.38778e-15 -6.25
      vertex 0.4 -1.4766e-15 -6.65
      vertex -0.35 -1 -6.25
    endloop
  endfacet
  facet normal -0.470588 -1.95922e-16 -0.882353
    outer loop
      vertex -0.35 -1 -6.25
      vertex 0.4 -1.4766e-15 -6.65
      vertex 0.4 -1 -6.65
    endloop
  endfacet
  facet normal 0.664364 -1.65958e-16 -0.747409
    outer loop
      vertex 0.4 -1.4766e-15 -6.65
      vertex 0.85 -1.38778e-15 -6.25
      vertex 0.4 -1 -6.65
    endloop
  endfacet
  facet normal 0.664364 -1.65958e-16 -0.747409
    outer loop
      vertex 0.4 -1 -6.65
      vertex 0.85 -1.38778e-15 -6.25
      vertex 0.85 -1 -6.25
    endloop
  endfacet
  facet normal 0.588172 -1.79575e-16 -0.808736
    outer loop
      vertex 0.85 -1.38778e-15 -6.25
      vertex 1.4 -1.29896e-15 -5.85
      vertex 0.85 -1 -6.25
    endloop
  endfacet
  facet normal 0.588172 -1.79575e-16 -0.808736
    outer loop
      vertex 0.85 -1 -6.25
      vertex 1.4 -1.29896e-15 -5.85
      vertex 1.4 -1 -5.85
    endloop
  endfacet
  facet normal 1 0 0
    outer loop
      vertex 1.4 -1 -5.85
      vertex 1.4 -1.29896e-15 -5.85
      vertex 1.4 -1.18794e-15 -5.35
    endloop
  endfacet
  facet normal 1 0 0
    outer loop
      vertex 1.4 -1 -5.35
      vertex 1.4 -1 -5.85
      vertex 1.4 -1.18794e-15 -5.35
    endloop
  endfacet
  facet normal -0.351123 2.07907e-16 0.936329
    outer loop
      vertex 1.4 -1.18794e-15 -5.35
      vertex 1 -1.22125e-15 -5.5
      vertex 1 -1 -5.5
    endloop
  endfacet
  facet normal -0.351123 2.07907e-16 0.936329
    outer loop
      vertex 1.4 -1 -5.35
      vertex 1.4 -1.18794e-15 -5.35
      vertex 1 -1 -5.5
    endloop
  endfacet
  facet normal 1 0 0
    outer loop
      vertex 1 -1 -5.5
      vertex 1 -1.22125e-15 -5.5
      vertex 1 -1.15463e-15 -5.2
    endloop
  endfacet
  facet normal 1 0 0
    outer loop
      vertex 1 -1 -5.2
      vertex 1 -1 -5.5
      vertex 1 -1.15463e-15 -5.2
    endloop
  endfacet
  facet normal 0.964764 5.84238e-17 0.263117
    outer loop
      vertex 1 -1.15463e-15 -5.2
      vertex 0.85 -1.03251e-15 -4.65
      vertex 0.85 -1 -4.65
    endloop
  endfacet
  facet normal 0.964764 5.84238e-17 0.263117
    outer loop
      vertex 1 -1 -5.2
      vertex 1 -1.15463e-15 -5.2
      vertex 0.85 -1 -4.65
    endloop
  endfacet
  facet normal 0.980581 4.35465e-17 0.196116
    outer loop
      vertex 0.85 -1.03251e-15 -4.65
      vertex 0.75 -9.21485e-16 -4.15
      vertex 0.75 -1 -4.15
    endloop
  endfacet
  facet normal 0.980581 4.35465e-17 0.196116
    outer loop
      vertex 0.85 -1 -4.65
      vertex 0.85 -1.03251e-15 -4.65
      vertex 0.75 -1 -4.15
    endloop
  endfacet
  facet normal -0.351123 -2.07907e-16 -0.936329
    outer loop
      vertex 0.75 -9.21485e-16 -4.15
      vertex 1.15 -9.54792e-16 -4.3
      vertex 0.75 -1 -4.15
    endloop
  endfacet
  facet normal -0.351123 -2.07907e-16 -0.936329
    outer loop
      vertex 0.75 -1 -4.15
      vertex 1.15 -9.54792e-16 -4.3
      vertex 1.15 -1 -4.3
    endloop
  endfacet
  facet normal -0.6 -1.77636e-16 -0.8
    outer loop
      vertex 1.15 -9.54792e-16 -4.3
      vertex 1.35 -9.88098e-16 -4.45
      vertex 1.15 -1 -4.3
    endloop
  endfacet
  facet normal -0.6 -1.77636e-16 -0.8
    outer loop
      vertex 1.15 -1 -4.3
      vertex 1.35 -9.88098e-16 -4.45
      vertex 1.35 -1 -4.45
    endloop
  endfacet
  facet normal -0.0623783 -2.21612e-16 -0.998053
    outer loop
      vertex 1.35 -9.88098e-16 -4.45
      vertex 2.15 -9.99201e-16 -4.5
      vertex 1.35 -1 -4.45
    endloop
  endfacet
  facet normal -0.0623783 -2.21612e-16 -0.998053
    outer loop
      vertex 1.35 -1 -4.45
      vertex 2.15 -9.99201e-16 -4.5
      vertex 2.15 -1 -4.5
    endloop
  endfacet
  facet normal 0.894427 9.93014e-17 0.447214
    outer loop
      vertex 2.15 -9.99201e-16 -4.5
      vertex 2.05 -9.54792e-16 -4.3
      vertex 2.05 -1 -4.3
    endloop
  endfacet
  facet normal 0.894427 9.93014e-17 0.447214
    outer loop
      vertex 2.15 -1 -4.5
      vertex 2.15 -9.99201e-16 -4.5
      vertex 2.05 -1 -4.3
    endloop
  endfacet
  facet normal 0.992278 -2.75412e-17 -0.124035
    outer loop
      vertex 2.05 -1 -4.3
      vertex 2.05 -9.54792e-16 -4.3
      vertex 2.1 -8.65974e-16 -3.9
    endloop
  endfacet
  facet normal 0.992278 -2.75412e-17 -0.124035
    outer loop
      vertex 2.1 -1 -3.9
      vertex 2.05 -1 -4.3
      vertex 2.1 -8.65974e-16 -3.9
    endloop
  endfacet
  facet normal 0.447214 1.98603e-16 0.894427
    outer loop
      vertex 2.1 -8.65974e-16 -3.9
      vertex 1.7 -8.21565e-16 -3.7
      vertex 1.7 -1 -3.7
    endloop
  endfacet
  facet normal 0.447214 1.98603e-16 0.894427
    outer loop
      vertex 2.1 -1 -3.9
      vertex 2.1 -8.65974e-16 -3.9
      vertex 1.7 -1 -3.7
    endloop
  endfacet
  facet normal -0.961524 6.10003e-17 0.274721
    outer loop
      vertex -2.8 -1.18794e-15 -5.35
      vertex -2.8 -1 -5.35
      vertex -2.5 -9.54792e-16 -4.3
    endloop
  endfacet
  facet normal -0.961524 6.10003e-17 0.274721
    outer loop
      vertex -2.5 -9.54792e-16 -4.3
      vertex -2.8 -1 -5.35
      vertex -2.5 -1 -4.3
    endloop
  endfacet
  facet normal -0.904819 9.45459e-17 0.425797
    outer loop
      vertex -3.2 -1.37668e-15 -6.2
      vertex -3.2 -1 -6.2
      vertex -2.8 -1.18794e-15 -5.35
    endloop
  endfacet
  facet normal -0.904819 9.45459e-17 0.425797
    outer loop
      vertex -2.8 -1.18794e-15 -5.35
      vertex -3.2 -1 -6.2
      vertex -2.8 -1 -5.35
    endloop
  endfacet
  facet normal -0.941742 -7.46817e-17 -0.336336
    outer loop
      vertex 6 2.03171e-15 9.15
      vertex 6.75 1.56541e-15 7.05
      vertex 6 -1 9.15
    endloop
  endfacet
  facet normal -0.941742 -7.46817e-17 -0.336336
    outer loop
      vertex 6 -1 9.15
      vertex 6.75 1.56541e-15 7.05
      vertex 6.75 -1 7.05
    endloop
  endfacet
  facet normal 0 1 -2.22045e-16
    outer loop
      vertex 6 2.03171e-15 9.15
      vertex 7.275 2.58127e-15 11.625
      vertex 6.75 1.56541e-15 7.05
    endloop
  endfacet
  facet normal 0 1 -2.22045e-16
    outer loop
      vertex 8.175 2.39808e-15 10.8
      vertex 7.275 2.58127e-15 11.625
      vertex 9.075 2.56462e-15 11.55
    endloop
  endfacet
  facet normal 0 1 -2.22045e-16
    outer loop
      vertex 8.4 2.08167e-15 9.375
      vertex 9.45 2.498e-15 11.25
      vertex 9.225 2.04836e-15 9.225
    endloop
  endfacet
  facet normal 0 1 -2.22045e-16
    outer loop
      vertex 8.85 1.83187e-15 8.25
      vertex 9.225 2.04836e-15 9.225
      vertex 9.75 1.79856e-15 8.1
    endloop
  endfacet
  facet normal 0 1 -2.22045e-16
    outer loop
      vertex 9.075 1.63203e-15 7.35
      vertex 10.875 1.56541e-15 7.05
      vertex 9.375 1.53211e-15 6.9
    endloop
  endfacet
  facet normal 0 1 -2.22045e-16
    outer loop
      vertex 9.375 1.53211e-15 6.9
      vertex 10.875 1.56541e-15 7.05
      vertex 10.725 1.43219e-15 6.45
    endloop
  endfacet
  facet normal 0 1 -2.22045e-16
    outer loop
      vertex 6.75 1.56541e-15 7.05
      vertex 10.725 1.43219e-15 6.45
      vertex 8.85 1.31561e-15 5.925
    endloop
  endfacet
  facet normal 0 1 -2.22045e-16
    outer loop
      vertex 6.75 1.56541e-15 7.05
      vertex 7.275 2.58127e-15 11.625
      vertex 7.425 2.19824e-15 9.9
    endloop
  endfacet
  facet normal 0 1 -2.22045e-16
    outer loop
      vertex 6.75 1.56541e-15 7.05
      vertex 7.425 2.19824e-15 9.9
      vertex 7.2 1.98175e-15 8.925
    endloop
  endfacet
  facet normal 0 1 -2.22045e-16
    outer loop
      vertex 8.175 1.56541e-15 7.05
      vertex 6.75 1.56541e-15 7.05
      vertex 7.5 1.69864e-15 7.65
    endloop
  endfacet
  facet normal 0 1 -2.22045e-16
    outer loop
      vertex 8.85 1.83187e-15 8.25
      vertex 9.75 1.79856e-15 8.1
      vertex 9.075 1.63203e-15 7.35
    endloop
  endfacet
  facet normal 0 1 -2.22045e-16
    outer loop
      vertex 6.75 1.56541e-15 7.05
      vertex 8.175 1.56541e-15 7.05
      vertex 10.725 1.43219e-15 6.45
    endloop
  endfacet
  facet normal 0 1 -2.22045e-16
    outer loop
      vertex 8.175 1.56541e-15 7.05
      vertex 9.375 1.53211e-15 6.9
      vertex 10.725 1.43219e-15 6.45
    endloop
  endfacet
  facet normal 0 1 -2.22045e-16
    outer loop
      vertex 9.75 1.79856e-15 8.1
      vertex 10.875 1.56541e-15 7.05
      vertex 9.075 1.63203e-15 7.35
    endloop
  endfacet
  facet normal 0 1 -2.22045e-16
    outer loop
      vertex 8.4 2.08167e-15 9.375
      vertex 9.225 2.04836e-15 9.225
      vertex 8.85 1.83187e-15 8.25
    endloop
  endfacet
  facet normal 0 1 -2.22045e-16
    outer loop
      vertex 7.425 2.19824e-15 9.9
      vertex 7.275 2.58127e-15 11.625
      vertex 8.175 2.39808e-15 10.8
    endloop
  endfacet
  facet normal 0 1 -2.22045e-16
    outer loop
      vertex 7.5 1.69864e-15 7.65
      vertex 6.75 1.56541e-15 7.05
      vertex 7.2 1.98175e-15 8.925
    endloop
  endfacet
  facet normal 0 1 -2.22045e-16
    outer loop
      vertex 8.175 2.39808e-15 10.8
      vertex 9.075 2.56462e-15 11.55
      vertex 9.45 2.498e-15 11.25
    endloop
  endfacet
  facet normal 0 1 -2.22045e-16
    outer loop
      vertex 8.175 2.39808e-15 10.8
      vertex 9.45 2.498e-15 11.25
      vertex 8.4 2.08167e-15 9.375
    endloop
  endfacet
  facet normal -0.888975 1.01687e-16 0.457957
    outer loop
      vertex 6 2.03171e-15 9.15
      vertex 6 -1 9.15
      vertex 7.275 2.58127e-15 11.625
    endloop
  endfacet
  facet normal -0.888975 1.01687e-16 0.457957
    outer loop
      vertex 7.275 2.58127e-15 11.625
      vertex 6 -1 9.15
      vertex 7.275 -1 11.625
    endloop
  endfacet
  facet normal 0 -1 2.22045e-16
    outer loop
      vertex 7.275 -1 11.625
      vertex 6 -1 9.15
      vertex 6.75 -1 7.05
    endloop
  endfacet
  facet normal 0 -1 2.22045e-16
    outer loop
      vertex 7.2 -1 8.925
      vertex 7.275 -1 11.625
      vertex 6.75 -1 7.05
    endloop
  endfacet
  facet normal 0 -1 2.22045e-16
    outer loop
      vertex 8.175 -1 10.8
      vertex 9.75 -1 8.1
      vertex 9.225 -1 9.225
    endloop
  endfacet
  facet normal 0 -1 2.22045e-16
    outer loop
      vertex 10.875 -1 7.05
      vertex 9.75 -1 8.1
      vertex 10.725 -1 6.45
    endloop
  endfacet
  facet normal 0 -1 2.22045e-16
    outer loop
      vertex 9.75 -1 8.1
      vertex 8.4 -1 9.375
      vertex 10.725 -1 6.45
    endloop
  endfacet
  facet normal 0 -1 2.22045e-16
    outer loop
      vertex 9.075 -1 11.55
      vertex 7.275 -1 11.625
      vertex 9.45 -1 11.25
    endloop
  endfacet
  facet normal 0 -1 2.22045e-16
    outer loop
      vertex 7.5 -1 7.65
      vertex 7.2 -1 8.925
      vertex 6.75 -1 7.05
    endloop
  endfacet
  facet normal 0 -1 2.22045e-16
    outer loop
      vertex 7.425 -1 9.9
      vertex 7.275 -1 11.625
      vertex 7.2 -1 8.925
    endloop
  endfacet
  facet normal 0 -1 2.22045e-16
    outer loop
      vertex 9.45 -1 11.25
      vertex 8.175 -1 10.8
      vertex 9.225 -1 9.225
    endloop
  endfacet
  facet normal 0 -1 2.22045e-16
    outer loop
      vertex 9.45 -1 11.25
      vertex 7.275 -1 11.625
      vertex 8.175 -1 10.8
    endloop
  endfacet
  facet normal 0 -1 2.22045e-16
    outer loop
      vertex 10.725 -1 6.45
      vertex 8.4 -1 9.375
      vertex 8.85 -1 8.25
    endloop
  endfacet
  facet normal 0 -1 2.22045e-16
    outer loop
      vertex 10.725 -1 6.45
      vertex 8.85 -1 8.25
      vertex 9.075 -1 7.35
    endloop
  endfacet
  facet normal 0 -1 2.22045e-16
    outer loop
      vertex 10.725 -1 6.45
      vertex 9.375 -1 6.9
      vertex 8.85 -1 5.925
    endloop
  endfacet
  facet normal 0 -1 2.22045e-16
    outer loop
      vertex 10.725 -1 6.45
      vertex 9.075 -1 7.35
      vertex 9.375 -1 6.9
    endloop
  endfacet
  facet normal 0 -1 2.22045e-16
    outer loop
      vertex 8.85 -1 5.925
      vertex 8.175 -1 7.05
      vertex 6.75 -1 7.05
    endloop
  endfacet
  facet normal 0 -1 2.22045e-16
    outer loop
      vertex 8.175 -1 7.05
      vertex 7.5 -1 7.65
      vertex 6.75 -1 7.05
    endloop
  endfacet
  facet normal 0 -1 2.22045e-16
    outer loop
      vertex 8.175 -1 10.8
      vertex 8.4 -1 9.375
      vertex 9.75 -1 8.1
    endloop
  endfacet
  facet normal 0 -1 2.22045e-16
    outer loop
      vertex 7.425 -1 9.9
      vertex 8.175 -1 10.8
      vertex 7.275 -1 11.625
    endloop
  endfacet
  facet normal 0 -1 2.22045e-16
    outer loop
      vertex 9.375 -1 6.9
      vertex 8.175 -1 7.05
      vertex 8.85 -1 5.925
    endloop
  endfacet
  facet normal -0.472221 -1.95728e-16 -0.88148
    outer loop
      vertex 6.75 1.56541e-15 7.05
      vertex 8.85 1.31561e-15 5.925
      vertex 6.75 -1 7.05
    endloop
  endfacet
  facet normal -0.472221 -1.95728e-16 -0.88148
    outer loop
      vertex 6.75 -1 7.05
      vertex 8.85 1.31561e-15 5.925
      vertex 8.85 -1 5.925
    endloop
  endfacet
  facet normal 0.26963 -2.13821e-16 -0.962964
    outer loop
      vertex 8.85 1.31561e-15 5.925
      vertex 10.725 1.43219e-15 6.45
      vertex 8.85 -1 5.925
    endloop
  endfacet
  facet normal 0.26963 -2.13821e-16 -0.962964
    outer loop
      vertex 8.85 -1 5.925
      vertex 10.725 1.43219e-15 6.45
      vertex 10.725 -1 6.45
    endloop
  endfacet
  facet normal 0.970143 -5.38537e-17 -0.242536
    outer loop
      vertex 10.725 -1 6.45
      vertex 10.725 1.43219e-15 6.45
      vertex 10.875 1.56541e-15 7.05
    endloop
  endfacet
  facet normal 0.970143 -5.38537e-17 -0.242536
    outer loop
      vertex 10.875 -1 7.05
      vertex 10.725 -1 6.45
      vertex 10.875 1.56541e-15 7.05
    endloop
  endfacet
  facet normal 0.682318 1.62327e-16 0.731055
    outer loop
      vertex 10.875 1.56541e-15 7.05
      vertex 9.75 1.79856e-15 8.1
      vertex 9.75 -1 8.1
    endloop
  endfacet
  facet normal 0.682318 1.62327e-16 0.731055
    outer loop
      vertex 10.875 -1 7.05
      vertex 10.875 1.56541e-15 7.05
      vertex 9.75 -1 8.1
    endloop
  endfacet
  facet normal 0.906183 9.38994e-17 0.422885
    outer loop
      vertex 9.75 1.79856e-15 8.1
      vertex 9.225 2.04836e-15 9.225
      vertex 9.225 -1 9.225
    endloop
  endfacet
  facet normal 0.906183 9.38994e-17 0.422885
    outer loop
      vertex 9.75 -1 8.1
      vertex 9.75 1.79856e-15 8.1
      vertex 9.225 -1 9.225
    endloop
  endfacet
  facet normal 0.993884 -2.45207e-17 -0.110432
    outer loop
      vertex 9.225 -1 9.225
      vertex 9.225 2.04836e-15 9.225
      vertex 9.45 2.498e-15 11.25
    endloop
  endfacet
  facet normal 0.993884 -2.45207e-17 -0.110432
    outer loop
      vertex 9.45 -1 11.25
      vertex 9.225 -1 9.225
      vertex 9.45 2.498e-15 11.25
    endloop
  endfacet
  facet normal 0.624695 1.73388e-16 0.780869
    outer loop
      vertex 9.45 2.498e-15 11.25
      vertex 9.075 2.56462e-15 11.55
      vertex 9.075 -1 11.55
    endloop
  endfacet
  facet normal 0.624695 1.73388e-16 0.780869
    outer loop
      vertex 9.45 -1 11.25
      vertex 9.45 2.498e-15 11.25
      vertex 9.075 -1 11.55
    endloop
  endfacet
  facet normal 0.0416305 2.21852e-16 0.999133
    outer loop
      vertex 9.075 2.56462e-15 11.55
      vertex 7.275 2.58127e-15 11.625
      vertex 7.275 -1 11.625
    endloop
  endfacet
  facet normal 0.0416305 2.21852e-16 0.999133
    outer loop
      vertex 9.075 -1 11.55
      vertex 9.075 2.56462e-15 11.55
      vertex 7.275 -1 11.625
    endloop
  endfacet
  facet normal 0.768221 -1.42149e-16 -0.640184
    outer loop
      vertex 7.425 -1 9.9
      vertex 7.425 2.19824e-15 9.9
      vertex 8.175 2.39808e-15 10.8
    endloop
  endfacet
  facet normal 0.768221 -1.42149e-16 -0.640184
    outer loop
      vertex 8.175 -1 10.8
      vertex 7.425 -1 9.9
      vertex 8.175 2.39808e-15 10.8
    endloop
  endfacet
  facet normal 0.974391 -4.99288e-17 -0.22486
    outer loop
      vertex 7.2 -1 8.925
      vertex 7.2 1.98175e-15 8.925
      vertex 7.425 2.19824e-15 9.9
    endloop
  endfacet
  facet normal 0.974391 -4.99288e-17 -0.22486
    outer loop
      vertex 7.425 -1 9.9
      vertex 7.2 -1 8.925
      vertex 7.425 2.19824e-15 9.9
    endloop
  endfacet
  facet normal -0.987763 -3.46306e-17 -0.155963
    outer loop
      vertex 8.175 2.39808e-15 10.8
      vertex 8.4 2.08167e-15 9.375
      vertex 8.175 -1 10.8
    endloop
  endfacet
  facet normal -0.987763 -3.46306e-17 -0.155963
    outer loop
      vertex 8.175 -1 10.8
      vertex 8.4 2.08167e-15 9.375
      vertex 8.4 -1 9.375
    endloop
  endfacet
  facet normal -0.928477 -8.24653e-17 -0.371391
    outer loop
      vertex 8.4 2.08167e-15 9.375
      vertex 8.85 1.83187e-15 8.25
      vertex 8.4 -1 9.375
    endloop
  endfacet
  facet normal -0.928477 -8.24653e-17 -0.371391
    outer loop
      vertex 8.4 -1 9.375
      vertex 8.85 1.83187e-15 8.25
      vertex 8.85 -1 8.25
    endloop
  endfacet
  facet normal -0.970143 -5.38537e-17 -0.242536
    outer loop
      vertex 8.85 1.83187e-15 8.25
      vertex 9.075 1.63203e-15 7.35
      vertex 8.85 -1 8.25
    endloop
  endfacet
  facet normal -0.970143 -5.38537e-17 -0.242536
    outer loop
      vertex 8.85 -1 8.25
      vertex 9.075 1.63203e-15 7.35
      vertex 9.075 -1 7.35
    endloop
  endfacet
  facet normal -0.83205 -1.23168e-16 -0.5547
    outer loop
      vertex 9.075 1.63203e-15 7.35
      vertex 9.375 1.53211e-15 6.9
      vertex 9.075 -1 7.35
    endloop
  endfacet
  facet normal -0.83205 -1.23168e-16 -0.5547
    outer loop
      vertex 9.075 -1 7.35
      vertex 9.375 1.53211e-15 6.9
      vertex 9.375 -1 6.9
    endloop
  endfacet
  facet normal 0.124035 2.2033e-16 0.992278
    outer loop
      vertex 9.375 1.53211e-15 6.9
      vertex 8.175 1.56541e-15 7.05
      vertex 8.175 -1 7.05
    endloop
  endfacet
  facet normal 0.124035 2.2033e-16 0.992278
    outer loop
      vertex 9.375 -1 6.9
      vertex 9.375 1.53211e-15 6.9
      vertex 8.175 -1 7.05
    endloop
  endfacet
  facet normal 0.664364 1.65958e-16 0.747409
    outer loop
      vertex 8.175 1.56541e-15 7.05
      vertex 7.5 1.69864e-15 7.65
      vertex 7.5 -1 7.65
    endloop
  endfacet
  facet normal 0.664364 1.65958e-16 0.747409
    outer loop
      vertex 8.175 -1 7.05
      vertex 8.175 1.56541e-15 7.05
      vertex 7.5 -1 7.65
    endloop
  endfacet
  facet normal 0.973417 5.08569e-17 0.229039
    outer loop
      vertex 7.5 1.69864e-15 7.65
      vertex 7.2 1.98175e-15 8.925
      vertex 7.2 -1 8.925
    endloop
  endfacet
  facet normal 0.973417 5.08569e-17 0.229039
    outer loop
      vertex 7.5 -1 7.65
      vertex 7.5 1.69864e-15 7.65
      vertex 7.2 -1 8.925
    endloop
  endfacet
endsolid OpenSCAD_Model
