solid OpenSCAD_Model
  facet normal 0.0170538 -2.22012e-16 -0.999855
    outer loop
      vertex -16.25 -6.67022e-16 -3.004
      vertex 1.90831 -5.98252e-16 -2.69429
      vertex -16.25 -1 -3.004
    endloop
  endfacet
  facet normal 0.0170538 -2.22012e-16 -0.999855
    outer loop
      vertex -16.25 -1 -3.004
      vertex 1.90831 -5.98252e-16 -2.69429
      vertex 1.90831 -1 -2.69429
    endloop
  endfacet
  facet normal 0 1 -2.22045e-16
    outer loop
      vertex -16.25 -6.67022e-16 -3.004
      vertex -16.15 -5.35794e-16 -2.413
      vertex 1.90831 -5.98252e-16 -2.69429
    endloop
  endfacet
  facet normal 0 1 -2.22045e-16
    outer loop
      vertex 1.90831 -5.98252e-16 -2.69429
      vertex -16.15 -5.35794e-16 -2.413
      vertex 2.46316 -5.13551e-16 -2.31283
    endloop
  endfacet
  facet normal 0 1 -2.22045e-16
    outer loop
      vertex 2.46316 -5.13551e-16 -2.31283
      vertex 2.7 -4.77396e-16 -2.15
      vertex 3.5 -5.10703e-16 -2.3
    endloop
  endfacet
  facet normal 0 1 -2.22045e-16
    outer loop
      vertex 2.46316 -5.13551e-16 -2.31283
      vertex 3.5 -5.10703e-16 -2.3
      vertex 1.90831 -5.98252e-16 -2.69429
    endloop
  endfacet
  facet normal 0 1 -2.22045e-16
    outer loop
      vertex 1.90831 -5.98252e-16 -2.69429
      vertex 3.5 -5.10703e-16 -2.3
      vertex 3.5214 -5.12286e-16 -2.30713
    endloop
  endfacet
  facet normal 0 1 -2.22045e-16
    outer loop
      vertex 1.90831 -5.98252e-16 -2.69429
      vertex 3.5214 -5.12286e-16 -2.30713
      vertex 11.35 -5.02931e-16 -2.265
    endloop
  endfacet
  facet normal 0 1 -2.22045e-16
    outer loop
      vertex 1.90831 -5.98252e-16 -2.69429
      vertex 11.35 -5.02931e-16 -2.265
      vertex 11.85 -5.46674e-16 -2.462
    endloop
  endfacet
  facet normal 0 1 -2.22045e-16
    outer loop
      vertex 10.85 -5.68434e-16 -2.56
      vertex 11.85 -5.46674e-16 -2.462
      vertex 11.25 -5.90417e-16 -2.659
    endloop
  endfacet
  facet normal 0 1 -2.22045e-16
    outer loop
      vertex 6.85 -5.79536e-16 -2.61
      vertex 11.85 -5.46674e-16 -2.462
      vertex 10.85 -5.68434e-16 -2.56
    endloop
  endfacet
  facet normal 0 1 -2.22045e-16
    outer loop
      vertex 4.6 -1.72751e-15 -7.78
      vertex 2.83921 -1.66649e-15 -7.50518
      vertex 3.09634 -1.57645e-15 -7.0997
    endloop
  endfacet
  facet normal 0 1 -2.22045e-16
    outer loop
      vertex 3.09634 -1.57645e-15 -7.0997
      vertex 2.83921 -1.66649e-15 -7.50518
      vertex 2.35 -1.42109e-15 -6.4
    endloop
  endfacet
  facet normal 0 1 -2.22045e-16
    outer loop
      vertex 4.6 -1.72751e-15 -7.78
      vertex 4.7 -1.83675e-15 -8.272
      vertex 2.83921 -1.66649e-15 -7.50518
    endloop
  endfacet
  facet normal 0 1 -2.22045e-16
    outer loop
      vertex 1.45 -8.77076e-16 -3.95
      vertex 4.85 -8.21565e-16 -3.7
      vertex 4.7 -9.54792e-16 -4.3
    endloop
  endfacet
  facet normal 0 1 -2.22045e-16
    outer loop
      vertex 1.45 -8.77076e-16 -3.95
      vertex 4.7 -9.54792e-16 -4.3
      vertex 1.7 -9.88098e-16 -4.45
    endloop
  endfacet
  facet normal 0 1 -2.22045e-16
    outer loop
      vertex 2.4 -1.72085e-15 -7.75
      vertex 3 -1.76525e-15 -7.95
      vertex 2.65 -1.79856e-15 -8.1
    endloop
  endfacet
  facet normal 0 1 -2.22045e-16
    outer loop
      vertex -1.5 -1.40998e-15 -6.35
      vertex 1.85 -1.77636e-15 -8
      vertex 2.25 -1.83187e-15 -8.25
    endloop
  endfacet
  facet normal 0 1 -2.22045e-16
    outer loop
      vertex -0.8 -1.80966e-15 -8.15
      vertex 0.75 -1.9762e-15 -8.9
      vertex -0.35 -1.89848e-15 -8.55
    endloop
  endfacet
  facet normal 0 1 -2.22045e-16
    outer loop
      vertex -1.5 -1.40998e-15 -6.35
      vertex 2.83921 -1.66649e-15 -7.50518
      vertex 2.8 -1.67644e-15 -7.55
    endloop
  endfacet
  facet normal 0 1 -2.22045e-16
    outer loop
      vertex -1.4 -1.62093e-15 -7.3
      vertex 2 -1.89848e-15 -8.55
      vertex -0.8 -1.74305e-15 -7.85
    endloop
  endfacet
  facet normal 0 1 -2.22045e-16
    outer loop
      vertex -0.8 -1.74305e-15 -7.85
      vertex 1.2 -1.90958e-15 -8.6
      vertex -0.8 -1.80966e-15 -8.15
    endloop
  endfacet
  facet normal 0 1 -2.22045e-16
    outer loop
      vertex 0.75 -1.9762e-15 -8.9
      vertex 0.2 -1.94289e-15 -8.75
      vertex -0.35 -1.89848e-15 -8.55
    endloop
  endfacet
  facet normal 0 1 -2.22045e-16
    outer loop
      vertex 1.2 -1.90958e-15 -8.6
      vertex 0.75 -1.9762e-15 -8.9
      vertex -0.8 -1.80966e-15 -8.15
    endloop
  endfacet
  facet normal 0 1 -2.22045e-16
    outer loop
      vertex 2 -1.89848e-15 -8.55
      vertex 1.2 -1.90958e-15 -8.6
      vertex -0.8 -1.74305e-15 -7.85
    endloop
  endfacet
  facet normal 0 1 -2.22045e-16
    outer loop
      vertex -1.5 -1.40998e-15 -6.35
      vertex 2.8 -1.67644e-15 -7.55
      vertex 2.2 -1.68754e-15 -7.6
    endloop
  endfacet
  facet normal 0 1 -2.22045e-16
    outer loop
      vertex 2.25 -1.83187e-15 -8.25
      vertex 2 -1.89848e-15 -8.55
      vertex -1.4 -1.62093e-15 -7.3
    endloop
  endfacet
  facet normal 0 1 -2.22045e-16
    outer loop
      vertex 2.35 -1.42109e-15 -6.4
      vertex 2.83921 -1.66649e-15 -7.50518
      vertex -1.5 -1.40998e-15 -6.35
    endloop
  endfacet
  facet normal 0 1 -2.22045e-16
    outer loop
      vertex 4.7 -9.54792e-16 -4.3
      vertex -1.5 -1.40998e-15 -6.35
      vertex -1.15 -1.21014e-15 -5.45
    endloop
  endfacet
  facet normal 0 1 -2.22045e-16
    outer loop
      vertex 1.7 -9.88098e-16 -4.45
      vertex -0.1 -1.07692e-15 -4.85
      vertex 1.2 -9.76996e-16 -4.4
    endloop
  endfacet
  facet normal 0 1 -2.22045e-16
    outer loop
      vertex 6.85 -5.79536e-16 -2.61
      vertex 4.7 -1.83675e-15 -8.272
      vertex 4.6 -1.72751e-15 -7.78
    endloop
  endfacet
  facet normal 0 1 -2.22045e-16
    outer loop
      vertex 6.85 -5.79536e-16 -2.61
      vertex 10.85 -5.68434e-16 -2.56
      vertex 7.2 -6.01297e-16 -2.708
    endloop
  endfacet
  facet normal 0 1 -2.22045e-16
    outer loop
      vertex 2.75 -1.29896e-15 -5.85
      vertex 2.5 -1.34337e-15 -6.05
      vertex -1.5 -1.40998e-15 -6.35
    endloop
  endfacet
  facet normal 0 1 -2.22045e-16
    outer loop
      vertex 6.85 -5.79536e-16 -2.61
      vertex 7.2 -6.01297e-16 -2.708
      vertex 4.7 -1.83675e-15 -8.272
    endloop
  endfacet
  facet normal 0 1 -2.22045e-16
    outer loop
      vertex 2.5 -1.34337e-15 -6.05
      vertex 2.35 -1.42109e-15 -6.4
      vertex -1.5 -1.40998e-15 -6.35
    endloop
  endfacet
  facet normal 0 1 -2.22045e-16
    outer loop
      vertex 3 -1.76525e-15 -7.95
      vertex 2.2 -1.68754e-15 -7.6
      vertex 2.8 -1.67644e-15 -7.55
    endloop
  endfacet
  facet normal 0 1 -2.22045e-16
    outer loop
      vertex -1.5 -1.40998e-15 -6.35
      vertex 2.2 -1.68754e-15 -7.6
      vertex 1.85 -1.77636e-15 -8
    endloop
  endfacet
  facet normal 0 1 -2.22045e-16
    outer loop
      vertex 3 -1.76525e-15 -7.95
      vertex 2.4 -1.72085e-15 -7.75
      vertex 2.2 -1.68754e-15 -7.6
    endloop
  endfacet
  facet normal 0 1 -2.22045e-16
    outer loop
      vertex 1.90831 -5.98252e-16 -2.69429
      vertex 11.85 -5.46674e-16 -2.462
      vertex 4.26804 -5.89315e-16 -2.65404
    endloop
  endfacet
  facet normal 0 1 -2.22045e-16
    outer loop
      vertex 3.8 -1.33227e-15 -6
      vertex 4.5 -1.21014e-15 -5.45
      vertex 4.25 -1.31006e-15 -5.9
    endloop
  endfacet
  facet normal 0 1 -2.22045e-16
    outer loop
      vertex 11.85 -5.46674e-16 -2.462
      vertex 6.85 -5.79536e-16 -2.61
      vertex 4.26804 -5.89315e-16 -2.65404
    endloop
  endfacet
  facet normal 0 1 -2.22045e-16
    outer loop
      vertex 4.45 -1.0103e-15 -4.55
      vertex -1.5 -1.40998e-15 -6.35
      vertex 4.7 -9.54792e-16 -4.3
    endloop
  endfacet
  facet normal 0 1 -2.22045e-16
    outer loop
      vertex 4.7 -6.77236e-16 -3.05
      vertex 1.90831 -5.98252e-16 -2.69429
      vertex 4.26804 -5.89315e-16 -2.65404
    endloop
  endfacet
  facet normal 0 1 -2.22045e-16
    outer loop
      vertex 4.7 -6.77236e-16 -3.05
      vertex 1.9 -5.9952e-16 -2.7
      vertex 1.90831 -5.98252e-16 -2.69429
    endloop
  endfacet
  facet normal 0 1 -2.22045e-16
    outer loop
      vertex 2.75 -1.29896e-15 -5.85
      vertex 4.55 -1.13243e-15 -5.1
      vertex 4.5 -1.21014e-15 -5.45
    endloop
  endfacet
  facet normal 0 1 -2.22045e-16
    outer loop
      vertex -1.5 -1.40998e-15 -6.35
      vertex 2.25 -1.83187e-15 -8.25
      vertex -1.4 -1.62093e-15 -7.3
    endloop
  endfacet
  facet normal 0 1 -2.22045e-16
    outer loop
      vertex 2.75 -1.29896e-15 -5.85
      vertex 4.75 -1.03251e-15 -4.65
      vertex 4.55 -1.13243e-15 -5.1
    endloop
  endfacet
  facet normal 0 1 -2.22045e-16
    outer loop
      vertex 4.5 -1.21014e-15 -5.45
      vertex 3.8 -1.33227e-15 -6
      vertex 3.15 -1.32117e-15 -5.95
    endloop
  endfacet
  facet normal 0 1 -2.22045e-16
    outer loop
      vertex 4.75 -1.03251e-15 -4.65
      vertex 2.75 -1.29896e-15 -5.85
      vertex -1.5 -1.40998e-15 -6.35
    endloop
  endfacet
  facet normal 0 1 -2.22045e-16
    outer loop
      vertex 2.75 -1.29896e-15 -5.85
      vertex 4.5 -1.21014e-15 -5.45
      vertex 3.15 -1.32117e-15 -5.95
    endloop
  endfacet
  facet normal 0 1 -2.22045e-16
    outer loop
      vertex 4.75 -1.03251e-15 -4.65
      vertex -1.5 -1.40998e-15 -6.35
      vertex 4.45 -1.0103e-15 -4.55
    endloop
  endfacet
  facet normal 0 1 -2.22045e-16
    outer loop
      vertex 4.7 -9.54792e-16 -4.3
      vertex -1.15 -1.21014e-15 -5.45
      vertex -0.1 -1.07692e-15 -4.85
    endloop
  endfacet
  facet normal 0 1 -2.22045e-16
    outer loop
      vertex 4.7 -9.54792e-16 -4.3
      vertex -0.1 -1.07692e-15 -4.85
      vertex 1.7 -9.88098e-16 -4.45
    endloop
  endfacet
  facet normal 0 1 -2.22045e-16
    outer loop
      vertex 1.9 -5.9952e-16 -2.7
      vertex 4.7 -6.77236e-16 -3.05
      vertex 1.5 -7.21645e-16 -3.25
    endloop
  endfacet
  facet normal 0 1 -2.22045e-16
    outer loop
      vertex 4.85 -8.21565e-16 -3.7
      vertex 1.45 -8.77076e-16 -3.95
      vertex 1.5 -7.21645e-16 -3.25
    endloop
  endfacet
  facet normal 0 1 -2.22045e-16
    outer loop
      vertex 4.85 -8.21565e-16 -3.7
      vertex 1.5 -7.21645e-16 -3.25
      vertex 4.7 -6.77236e-16 -3.05
    endloop
  endfacet
  facet normal -0.985985 3.70444e-17 0.166833
    outer loop
      vertex -16.25 -6.67022e-16 -3.004
      vertex -16.25 -1 -3.004
      vertex -16.15 -5.35794e-16 -2.413
    endloop
  endfacet
  facet normal -0.985985 3.70444e-17 0.166833
    outer loop
      vertex -16.15 -5.35794e-16 -2.413
      vertex -16.25 -1 -3.004
      vertex -16.15 -1 -2.413
    endloop
  endfacet
  facet normal 0 -1 2.22045e-16
    outer loop
      vertex 1.9 -1 -2.7
      vertex 1.5 -1 -3.25
      vertex 1.90831 -1 -2.69429
    endloop
  endfacet
  facet normal 0 -1 2.22045e-16
    outer loop
      vertex -16.15 -1 -2.413
      vertex -16.25 -1 -3.004
      vertex 1.90831 -1 -2.69429
    endloop
  endfacet
  facet normal 0 -1 2.22045e-16
    outer loop
      vertex 2.2 -1 -7.6
      vertex 2.4 -1 -7.75
      vertex 1.90831 -1 -2.69429
    endloop
  endfacet
  facet normal 0 -1 2.22045e-16
    outer loop
      vertex -0.1 -1 -4.85
      vertex -1.15 -1 -5.45
      vertex 1.7 -1 -4.45
    endloop
  endfacet
  facet normal 0 -1 2.22045e-16
    outer loop
      vertex 1.5 -1 -3.25
      vertex 1.45 -1 -3.95
      vertex 1.90831 -1 -2.69429
    endloop
  endfacet
  facet normal 0 -1 2.22045e-16
    outer loop
      vertex 1.45 -1 -3.95
      vertex 1.7 -1 -4.45
      vertex 1.90831 -1 -2.69429
    endloop
  endfacet
  facet normal 0 -1 2.22045e-16
    outer loop
      vertex 1.85 -1 -8
      vertex 2.2 -1 -7.6
      vertex 1.90831 -1 -2.69429
    endloop
  endfacet
  facet normal 0 -1 2.22045e-16
    outer loop
      vertex 1.85 -1 -8
      vertex 1.90831 -1 -2.69429
      vertex 1.7 -1 -4.45
    endloop
  endfacet
  facet normal 0 -1 2.22045e-16
    outer loop
      vertex -0.8 -1 -7.85
      vertex -0.8 -1 -8.15
      vertex 1.7 -1 -4.45
    endloop
  endfacet
  facet normal 0 -1 2.22045e-16
    outer loop
      vertex -1.15 -1 -5.45
      vertex -1.5 -1 -6.35
      vertex 1.7 -1 -4.45
    endloop
  endfacet
  facet normal 0 -1 2.22045e-16
    outer loop
      vertex -1.5 -1 -6.35
      vertex -1.4 -1 -7.3
      vertex 1.7 -1 -4.45
    endloop
  endfacet
  facet normal 0 -1 2.22045e-16
    outer loop
      vertex -1.4 -1 -7.3
      vertex -0.8 -1 -7.85
      vertex 1.7 -1 -4.45
    endloop
  endfacet
  facet normal 0 -1 2.22045e-16
    outer loop
      vertex -0.8 -1 -8.15
      vertex -0.35 -1 -8.55
      vertex 1.7 -1 -4.45
    endloop
  endfacet
  facet normal 0 -1 2.22045e-16
    outer loop
      vertex -0.35 -1 -8.55
      vertex 0.2 -1 -8.75
      vertex 1.7 -1 -4.45
    endloop
  endfacet
  facet normal 0 -1 2.22045e-16
    outer loop
      vertex 0.2 -1 -8.75
      vertex 0.75 -1 -8.9
      vertex 1.7 -1 -4.45
    endloop
  endfacet
  facet normal 0 -1 2.22045e-16
    outer loop
      vertex 0.75 -1 -8.9
      vertex 1.2 -1 -8.6
      vertex 1.7 -1 -4.45
    endloop
  endfacet
  facet normal 0 -1 2.22045e-16
    outer loop
      vertex 1.2 -1 -8.6
      vertex 1.85 -1 -8
      vertex 1.7 -1 -4.45
    endloop
  endfacet
  facet normal 0 -1 2.22045e-16
    outer loop
      vertex 1.2 -1 -8.6
      vertex 2 -1 -8.55
      vertex 1.85 -1 -8
    endloop
  endfacet
  facet normal 0 -1 2.22045e-16
    outer loop
      vertex 2.83921 -1 -7.50518
      vertex 4.7 -1 -8.272
      vertex 3.09634 -1 -7.0997
    endloop
  endfacet
  facet normal 0 -1 2.22045e-16
    outer loop
      vertex 10.85 -1 -2.56
      vertex 11.85 -1 -2.462
      vertex -16.15 -1 -2.413
    endloop
  endfacet
  facet normal 0 -1 2.22045e-16
    outer loop
      vertex 2.65 -1 -8.1
      vertex 3 -1 -7.95
      vertex 2.8 -1 -7.55
    endloop
  endfacet
  facet normal 0 -1 2.22045e-16
    outer loop
      vertex 4.5 -1 -5.45
      vertex 4.55 -1 -5.1
      vertex 3.8 -1 -6
    endloop
  endfacet
  facet normal 0 -1 2.22045e-16
    outer loop
      vertex 11.25 -1 -2.659
      vertex 11.85 -1 -2.462
      vertex 10.85 -1 -2.56
    endloop
  endfacet
  facet normal 0 -1 2.22045e-16
    outer loop
      vertex 6.85 -1 -2.61
      vertex 10.85 -1 -2.56
      vertex -16.15 -1 -2.413
    endloop
  endfacet
  facet normal 0 -1 2.22045e-16
    outer loop
      vertex 2.35 -1 -6.4
      vertex 2.5 -1 -6.05
      vertex 1.90831 -1 -2.69429
    endloop
  endfacet
  facet normal 0 -1 2.22045e-16
    outer loop
      vertex 11.85 -1 -2.462
      vertex 3.5214 -1 -2.30713
      vertex 2.46316 -1 -2.31283
    endloop
  endfacet
  facet normal 0 -1 2.22045e-16
    outer loop
      vertex 11.85 -1 -2.462
      vertex 11.35 -1 -2.265
      vertex 3.5214 -1 -2.30713
    endloop
  endfacet
  facet normal 0 -1 2.22045e-16
    outer loop
      vertex 2.5 -1 -6.05
      vertex 2.75 -1 -5.85
      vertex 1.90831 -1 -2.69429
    endloop
  endfacet
  facet normal 0 -1 2.22045e-16
    outer loop
      vertex 11.85 -1 -2.462
      vertex 2.46316 -1 -2.31283
      vertex -16.15 -1 -2.413
    endloop
  endfacet
  facet normal 0 -1 2.22045e-16
    outer loop
      vertex 3.5214 -1 -2.30713
      vertex 3.5 -1 -2.3
      vertex 2.46316 -1 -2.31283
    endloop
  endfacet
  facet normal 0 -1 2.22045e-16
    outer loop
      vertex 2.4 -1 -7.75
      vertex 2.35 -1 -6.4
      vertex 1.90831 -1 -2.69429
    endloop
  endfacet
  facet normal 0 -1 2.22045e-16
    outer loop
      vertex 2.4 -1 -7.75
      vertex 2.65 -1 -8.1
      vertex 2.35 -1 -6.4
    endloop
  endfacet
  facet normal 0 -1 2.22045e-16
    outer loop
      vertex 3.15 -1 -5.95
      vertex 3.8 -1 -6
      vertex 1.90831 -1 -2.69429
    endloop
  endfacet
  facet normal 0 -1 2.22045e-16
    outer loop
      vertex 4.7 -1 -3.05
      vertex 4.26804 -1 -2.65404
      vertex 1.90831 -1 -2.69429
    endloop
  endfacet
  facet normal 0 -1 2.22045e-16
    outer loop
      vertex 2.75 -1 -5.85
      vertex 3.15 -1 -5.95
      vertex 1.90831 -1 -2.69429
    endloop
  endfacet
  facet normal 0 -1 2.22045e-16
    outer loop
      vertex 4.6 -1 -7.78
      vertex 3.09634 -1 -7.0997
      vertex 4.7 -1 -8.272
    endloop
  endfacet
  facet normal 0 -1 2.22045e-16
    outer loop
      vertex 4.45 -1 -4.55
      vertex 4.7 -1 -4.3
      vertex 1.90831 -1 -2.69429
    endloop
  endfacet
  facet normal 0 -1 2.22045e-16
    outer loop
      vertex 4.25 -1 -5.9
      vertex 4.5 -1 -5.45
      vertex 3.8 -1 -6
    endloop
  endfacet
  facet normal 0 -1 2.22045e-16
    outer loop
      vertex 3.8 -1 -6
      vertex 4.55 -1 -5.1
      vertex 1.90831 -1 -2.69429
    endloop
  endfacet
  facet normal 0 -1 2.22045e-16
    outer loop
      vertex 1.90831 -1 -2.69429
      vertex 4.26804 -1 -2.65404
      vertex -16.15 -1 -2.413
    endloop
  endfacet
  facet normal 0 -1 2.22045e-16
    outer loop
      vertex 4.55 -1 -5.1
      vertex 4.45 -1 -4.55
      vertex 1.90831 -1 -2.69429
    endloop
  endfacet
  facet normal 0 -1 2.22045e-16
    outer loop
      vertex 4.55 -1 -5.1
      vertex 4.75 -1 -4.65
      vertex 4.45 -1 -4.55
    endloop
  endfacet
  facet normal 0 -1 2.22045e-16
    outer loop
      vertex 4.7 -1 -4.3
      vertex 4.85 -1 -3.7
      vertex 1.90831 -1 -2.69429
    endloop
  endfacet
  facet normal 0 -1 2.22045e-16
    outer loop
      vertex 4.85 -1 -3.7
      vertex 4.7 -1 -3.05
      vertex 1.90831 -1 -2.69429
    endloop
  endfacet
  facet normal 0 -1 2.22045e-16
    outer loop
      vertex 4.26804 -1 -2.65404
      vertex 6.85 -1 -2.61
      vertex -16.15 -1 -2.413
    endloop
  endfacet
  facet normal 0 -1 2.22045e-16
    outer loop
      vertex 2.7 -1 -2.15
      vertex 2.46316 -1 -2.31283
      vertex 3.5 -1 -2.3
    endloop
  endfacet
  facet normal 0 -1 2.22045e-16
    outer loop
      vertex 1.2 -1 -4.4
      vertex -0.1 -1 -4.85
      vertex 1.7 -1 -4.45
    endloop
  endfacet
  facet normal 0 -1 2.22045e-16
    outer loop
      vertex 2.25 -1 -8.25
      vertex 1.85 -1 -8
      vertex 2 -1 -8.55
    endloop
  endfacet
  facet normal 0 -1 2.22045e-16
    outer loop
      vertex 3.09634 -1 -7.0997
      vertex 2.8 -1 -7.55
      vertex 2.83921 -1 -7.50518
    endloop
  endfacet
  facet normal 0 -1 2.22045e-16
    outer loop
      vertex 2.8 -1 -7.55
      vertex 2.35 -1 -6.4
      vertex 2.65 -1 -8.1
    endloop
  endfacet
  facet normal 0 -1 2.22045e-16
    outer loop
      vertex 3.09634 -1 -7.0997
      vertex 2.35 -1 -6.4
      vertex 2.8 -1 -7.55
    endloop
  endfacet
  facet normal 0 -1 2.22045e-16
    outer loop
      vertex 6.85 -1 -2.61
      vertex 7.2 -1 -2.708
      vertex 10.85 -1 -2.56
    endloop
  endfacet
  facet normal 0 -1 2.22045e-16
    outer loop
      vertex 6.85 -1 -2.61
      vertex 4.7 -1 -8.272
      vertex 7.2 -1 -2.708
    endloop
  endfacet
  facet normal 0 -1 2.22045e-16
    outer loop
      vertex 6.85 -1 -2.61
      vertex 4.6 -1 -7.78
      vertex 4.7 -1 -8.272
    endloop
  endfacet
  facet normal -0.566529 1.82974e-16 0.824042
    outer loop
      vertex 1.90831 -5.98252e-16 -2.69429
      vertex 1.9 -5.9952e-16 -2.7
      vertex 1.9 -1 -2.7
    endloop
  endfacet
  facet normal -0.566529 1.82974e-16 0.824042
    outer loop
      vertex 1.90831 -1 -2.69429
      vertex 1.90831 -5.98252e-16 -2.69429
      vertex 1.9 -1 -2.7
    endloop
  endfacet
  facet normal -0.808736 1.306e-16 0.588172
    outer loop
      vertex 1.5 -7.21645e-16 -3.25
      vertex 1.5 -1 -3.25
      vertex 1.9 -5.9952e-16 -2.7
    endloop
  endfacet
  facet normal -0.808736 1.306e-16 0.588172
    outer loop
      vertex 1.9 -5.9952e-16 -2.7
      vertex 1.5 -1 -3.25
      vertex 1.9 -1 -2.7
    endloop
  endfacet
  facet normal -0.997459 1.582e-17 0.071247
    outer loop
      vertex 1.45 -8.77076e-16 -3.95
      vertex 1.45 -1 -3.95
      vertex 1.5 -7.21645e-16 -3.25
    endloop
  endfacet
  facet normal -0.997459 1.582e-17 0.071247
    outer loop
      vertex 1.5 -7.21645e-16 -3.25
      vertex 1.45 -1 -3.95
      vertex 1.5 -1 -3.25
    endloop
  endfacet
  facet normal -0.894427 -9.93014e-17 -0.447214
    outer loop
      vertex 1.45 -8.77076e-16 -3.95
      vertex 1.7 -9.88098e-16 -4.45
      vertex 1.45 -1 -3.95
    endloop
  endfacet
  facet normal -0.894427 -9.93014e-17 -0.447214
    outer loop
      vertex 1.45 -1 -3.95
      vertex 1.7 -9.88098e-16 -4.45
      vertex 1.7 -1 -4.45
    endloop
  endfacet
  facet normal 0.0995037 2.20943e-16 0.995037
    outer loop
      vertex 1.7 -9.88098e-16 -4.45
      vertex 1.2 -9.76996e-16 -4.4
      vertex 1.2 -1 -4.4
    endloop
  endfacet
  facet normal 0.0995037 2.20943e-16 0.995037
    outer loop
      vertex 1.7 -1 -4.45
      vertex 1.7 -9.88098e-16 -4.45
      vertex 1.2 -1 -4.4
    endloop
  endfacet
  facet normal -0.327111 2.09829e-16 0.944986
    outer loop
      vertex 1.2 -9.76996e-16 -4.4
      vertex -0.1 -1.07692e-15 -4.85
      vertex -0.1 -1 -4.85
    endloop
  endfacet
  facet normal -0.327111 2.09829e-16 0.944986
    outer loop
      vertex 1.2 -1 -4.4
      vertex 1.2 -9.76996e-16 -4.4
      vertex -0.1 -1 -4.85
    endloop
  endfacet
  facet normal -0.496139 1.92789e-16 0.868243
    outer loop
      vertex -0.1 -1.07692e-15 -4.85
      vertex -1.15 -1.21014e-15 -5.45
      vertex -1.15 -1 -5.45
    endloop
  endfacet
  facet normal -0.496139 1.92789e-16 0.868243
    outer loop
      vertex -0.1 -1 -4.85
      vertex -0.1 -1.07692e-15 -4.85
      vertex -1.15 -1 -5.45
    endloop
  endfacet
  facet normal -0.932005 8.04792e-17 0.362446
    outer loop
      vertex -1.5 -1.40998e-15 -6.35
      vertex -1.5 -1 -6.35
      vertex -1.15 -1.21014e-15 -5.45
    endloop
  endfacet
  facet normal -0.932005 8.04792e-17 0.362446
    outer loop
      vertex -1.15 -1.21014e-15 -5.45
      vertex -1.5 -1 -6.35
      vertex -1.15 -1 -5.45
    endloop
  endfacet
  facet normal -0.994505 -2.32447e-17 -0.104685
    outer loop
      vertex -1.5 -1.40998e-15 -6.35
      vertex -1.4 -1.62093e-15 -7.3
      vertex -1.5 -1 -6.35
    endloop
  endfacet
  facet normal -0.994505 -2.32447e-17 -0.104685
    outer loop
      vertex -1.5 -1 -6.35
      vertex -1.4 -1.62093e-15 -7.3
      vertex -1.4 -1 -7.3
    endloop
  endfacet
  facet normal -0.675725 -1.63681e-16 -0.737154
    outer loop
      vertex -1.4 -1.62093e-15 -7.3
      vertex -0.8 -1.74305e-15 -7.85
      vertex -1.4 -1 -7.3
    endloop
  endfacet
  facet normal -0.675725 -1.63681e-16 -0.737154
    outer loop
      vertex -1.4 -1 -7.3
      vertex -0.8 -1.74305e-15 -7.85
      vertex -0.8 -1 -7.85
    endloop
  endfacet
  facet normal -1 0 0
    outer loop
      vertex -0.8 -1.80966e-15 -8.15
      vertex -0.8 -1 -8.15
      vertex -0.8 -1.74305e-15 -7.85
    endloop
  endfacet
  facet normal -1 0 0
    outer loop
      vertex -0.8 -1.74305e-15 -7.85
      vertex -0.8 -1 -8.15
      vertex -0.8 -1 -7.85
    endloop
  endfacet
  facet normal -0.664364 -1.65958e-16 -0.747409
    outer loop
      vertex -0.8 -1.80966e-15 -8.15
      vertex -0.35 -1.89848e-15 -8.55
      vertex -0.8 -1 -8.15
    endloop
  endfacet
  facet normal -0.664364 -1.65958e-16 -0.747409
    outer loop
      vertex -0.8 -1 -8.15
      vertex -0.35 -1.89848e-15 -8.55
      vertex -0.35 -1 -8.55
    endloop
  endfacet
  facet normal -0.341743 -2.08676e-16 -0.939793
    outer loop
      vertex -0.35 -1.89848e-15 -8.55
      vertex 0.2 -1.94289e-15 -8.75
      vertex -0.35 -1 -8.55
    endloop
  endfacet
  facet normal -0.341743 -2.08676e-16 -0.939793
    outer loop
      vertex -0.35 -1 -8.55
      vertex 0.2 -1.94289e-15 -8.75
      vertex 0.2 -1 -8.75
    endloop
  endfacet
  facet normal -0.263117 -2.14221e-16 -0.964764
    outer loop
      vertex 0.2 -1.94289e-15 -8.75
      vertex 0.75 -1.9762e-15 -8.9
      vertex 0.2 -1 -8.75
    endloop
  endfacet
  facet normal -0.263117 -2.14221e-16 -0.964764
    outer loop
      vertex 0.2 -1 -8.75
      vertex 0.75 -1.9762e-15 -8.9
      vertex 0.75 -1 -8.9
    endloop
  endfacet
  facet normal 0.5547 -1.84752e-16 -0.83205
    outer loop
      vertex 0.75 -1.9762e-15 -8.9
      vertex 1.2 -1.90958e-15 -8.6
      vertex 0.75 -1 -8.9
    endloop
  endfacet
  facet normal 0.5547 -1.84752e-16 -0.83205
    outer loop
      vertex 0.75 -1 -8.9
      vertex 1.2 -1.90958e-15 -8.6
      vertex 1.2 -1 -8.6
    endloop
  endfacet
  facet normal 0.0623783 -2.21612e-16 -0.998053
    outer loop
      vertex 1.2 -1.90958e-15 -8.6
      vertex 2 -1.89848e-15 -8.55
      vertex 1.2 -1 -8.6
    endloop
  endfacet
  facet normal 0.0623783 -2.21612e-16 -0.998053
    outer loop
      vertex 1.2 -1 -8.6
      vertex 2 -1.89848e-15 -8.55
      vertex 2 -1 -8.55
    endloop
  endfacet
  facet normal 0.768221 -1.42149e-16 -0.640184
    outer loop
      vertex 2 -1 -8.55
      vertex 2 -1.89848e-15 -8.55
      vertex 2.25 -1.83187e-15 -8.25
    endloop
  endfacet
  facet normal 0.768221 -1.42149e-16 -0.640184
    outer loop
      vertex 2.25 -1 -8.25
      vertex 2 -1 -8.55
      vertex 2.25 -1.83187e-15 -8.25
    endloop
  endfacet
  facet normal 0.529999 1.88293e-16 0.847998
    outer loop
      vertex 2.25 -1.83187e-15 -8.25
      vertex 1.85 -1.77636e-15 -8
      vertex 1.85 -1 -8
    endloop
  endfacet
  facet normal 0.529999 1.88293e-16 0.847998
    outer loop
      vertex 2.25 -1 -8.25
      vertex 2.25 -1.83187e-15 -8.25
      vertex 1.85 -1 -8
    endloop
  endfacet
  facet normal 0.752577 -1.46217e-16 -0.658505
    outer loop
      vertex 1.85 -1 -8
      vertex 1.85 -1.77636e-15 -8
      vertex 2.2 -1.68754e-15 -7.6
    endloop
  endfacet
  facet normal 0.752577 -1.46217e-16 -0.658505
    outer loop
      vertex 2.2 -1 -7.6
      vertex 1.85 -1 -8
      vertex 2.2 -1.68754e-15 -7.6
    endloop
  endfacet
  facet normal -0.6 -1.77636e-16 -0.8
    outer loop
      vertex 2.2 -1.68754e-15 -7.6
      vertex 2.4 -1.72085e-15 -7.75
      vertex 2.2 -1 -7.6
    endloop
  endfacet
  facet normal -0.6 -1.77636e-16 -0.8
    outer loop
      vertex 2.2 -1 -7.6
      vertex 2.4 -1.72085e-15 -7.75
      vertex 2.4 -1 -7.75
    endloop
  endfacet
  facet normal -0.813733 -1.29061e-16 -0.581238
    outer loop
      vertex 2.4 -1.72085e-15 -7.75
      vertex 2.65 -1.79856e-15 -8.1
      vertex 2.4 -1 -7.75
    endloop
  endfacet
  facet normal -0.813733 -1.29061e-16 -0.581238
    outer loop
      vertex 2.4 -1 -7.75
      vertex 2.65 -1.79856e-15 -8.1
      vertex 2.65 -1 -8.1
    endloop
  endfacet
  facet normal 0.393919 -2.04091e-16 -0.919145
    outer loop
      vertex 2.65 -1.79856e-15 -8.1
      vertex 3 -1.76525e-15 -7.95
      vertex 2.65 -1 -8.1
    endloop
  endfacet
  facet normal 0.393919 -2.04091e-16 -0.919145
    outer loop
      vertex 2.65 -1 -8.1
      vertex 3 -1.76525e-15 -7.95
      vertex 3 -1 -7.95
    endloop
  endfacet
  facet normal 0.894427 9.93014e-17 0.447214
    outer loop
      vertex 3 -1.76525e-15 -7.95
      vertex 2.8 -1.67644e-15 -7.55
      vertex 2.8 -1 -7.55
    endloop
  endfacet
  facet normal 0.894427 9.93014e-17 0.447214
    outer loop
      vertex 3 -1 -7.95
      vertex 3 -1.76525e-15 -7.95
      vertex 2.8 -1 -7.55
    endloop
  endfacet
  facet normal 0.752577 -1.46217e-16 -0.658505
    outer loop
      vertex 2.8 -1 -7.55
      vertex 2.8 -1.67644e-15 -7.55
      vertex 2.83921 -1.66649e-15 -7.50518
    endloop
  endfacet
  facet normal 0.752577 -1.46217e-16 -0.658505
    outer loop
      vertex 2.83921 -1 -7.50518
      vertex 2.8 -1 -7.55
      vertex 2.83921 -1.66649e-15 -7.50518
    endloop
  endfacet
  facet normal -0.381009 -2.05296e-16 -0.924571
    outer loop
      vertex 2.83921 -1.66649e-15 -7.50518
      vertex 4.7 -1.83675e-15 -8.272
      vertex 2.83921 -1 -7.50518
    endloop
  endfacet
  facet normal -0.381009 -2.05296e-16 -0.924571
    outer loop
      vertex 2.83921 -1 -7.50518
      vertex 4.7 -1.83675e-15 -8.272
      vertex 4.7 -1 -8.272
    endloop
  endfacet
  facet normal 0.912154 -9.10042e-17 -0.409847
    outer loop
      vertex 4.7 -1 -8.272
      vertex 4.7 -1.83675e-15 -8.272
      vertex 7.2 -6.01297e-16 -2.708
    endloop
  endfacet
  facet normal 0.912154 -9.10042e-17 -0.409847
    outer loop
      vertex 7.2 -1 -2.708
      vertex 4.7 -1 -8.272
      vertex 7.2 -6.01297e-16 -2.708
    endloop
  endfacet
  facet normal 0.0405147 -2.21862e-16 -0.999179
    outer loop
      vertex 7.2 -6.01297e-16 -2.708
      vertex 10.85 -5.68434e-16 -2.56
      vertex 7.2 -1 -2.708
    endloop
  endfacet
  facet normal 0.0405147 -2.21862e-16 -0.999179
    outer loop
      vertex 7.2 -1 -2.708
      vertex 10.85 -5.68434e-16 -2.56
      vertex 10.85 -1 -2.56
    endloop
  endfacet
  facet normal -0.240251 -2.15541e-16 -0.970711
    outer loop
      vertex 10.85 -5.68434e-16 -2.56
      vertex 11.25 -5.90417e-16 -2.659
      vertex 10.85 -1 -2.56
    endloop
  endfacet
  facet normal -0.240251 -2.15541e-16 -0.970711
    outer loop
      vertex 10.85 -1 -2.56
      vertex 11.25 -5.90417e-16 -2.659
      vertex 11.25 -1 -2.659
    endloop
  endfacet
  facet normal 0.311949 -2.10964e-16 -0.950099
    outer loop
      vertex 11.25 -5.90417e-16 -2.659
      vertex 11.85 -5.46674e-16 -2.462
      vertex 11.25 -1 -2.659
    endloop
  endfacet
  facet normal 0.311949 -2.10964e-16 -0.950099
    outer loop
      vertex 11.25 -1 -2.659
      vertex 11.85 -5.46674e-16 -2.462
      vertex 11.85 -1 -2.462
    endloop
  endfacet
  facet normal 0.366573 2.06588e-16 0.930389
    outer loop
      vertex 11.85 -5.46674e-16 -2.462
      vertex 11.35 -5.02931e-16 -2.265
      vertex 11.35 -1 -2.265
    endloop
  endfacet
  facet normal 0.366573 2.06588e-16 0.930389
    outer loop
      vertex 11.85 -1 -2.462
      vertex 11.85 -5.46674e-16 -2.462
      vertex 11.35 -1 -2.265
    endloop
  endfacet
  facet normal -0.00538174 2.22041e-16 0.999986
    outer loop
      vertex 11.35 -5.02931e-16 -2.265
      vertex 3.5214 -5.12286e-16 -2.30713
      vertex 3.5214 -1 -2.30713
    endloop
  endfacet
  facet normal -0.00538174 2.22041e-16 0.999986
    outer loop
      vertex 11.35 -1 -2.265
      vertex 11.35 -5.02931e-16 -2.265
      vertex 3.5214 -1 -2.30713
    endloop
  endfacet
  facet normal 0.316228 2.1065e-16 0.948683
    outer loop
      vertex 3.5214 -5.12286e-16 -2.30713
      vertex 3.5 -5.10703e-16 -2.3
      vertex 3.5 -1 -2.3
    endloop
  endfacet
  facet normal 0.316228 2.1065e-16 0.948683
    outer loop
      vertex 3.5214 -1 -2.30713
      vertex 3.5214 -5.12286e-16 -2.30713
      vertex 3.5 -1 -2.3
    endloop
  endfacet
  facet normal 0.184289 2.18241e-16 0.982872
    outer loop
      vertex 3.5 -5.10703e-16 -2.3
      vertex 2.7 -4.77396e-16 -2.15
      vertex 2.7 -1 -2.15
    endloop
  endfacet
  facet normal 0.184289 2.18241e-16 0.982872
    outer loop
      vertex 3.5 -1 -2.3
      vertex 3.5 -5.10703e-16 -2.3
      vertex 2.7 -1 -2.15
    endloop
  endfacet
  facet normal -0.566529 1.82974e-16 0.824042
    outer loop
      vertex 2.7 -4.77396e-16 -2.15
      vertex 2.46316 -5.13551e-16 -2.31283
      vertex 2.46316 -1 -2.31283
    endloop
  endfacet
  facet normal -0.566529 1.82974e-16 0.824042
    outer loop
      vertex 2.7 -1 -2.15
      vertex 2.7 -4.77396e-16 -2.15
      vertex 2.46316 -1 -2.31283
    endloop
  endfacet
  facet normal -0.00538174 2.22041e-16 0.999986
    outer loop
      vertex 2.46316 -5.13551e-16 -2.31283
      vertex -16.15 -5.35794e-16 -2.413
      vertex -16.15 -1 -2.413
    endloop
  endfacet
  facet normal -0.00538174 2.22041e-16 0.999986
    outer loop
      vertex 2.46316 -1 -2.31283
      vertex 2.46316 -5.13551e-16 -2.31283
      vertex -16.15 -1 -2.413
    endloop
  endfacet
  facet normal 0.919145 -8.74677e-17 -0.393919
    outer loop
      vertex 2.35 -1 -6.4
      vertex 2.35 -1.42109e-15 -6.4
      vertex 2.5 -1.34337e-15 -6.05
    endloop
  endfacet
  facet normal 0.919145 -8.74677e-17 -0.393919
    outer loop
      vertex 2.5 -1 -6.05
      vertex 2.35 -1 -6.4
      vertex 2.5 -1.34337e-15 -6.05
    endloop
  endfacet
  facet normal 0.624695 -1.73388e-16 -0.780869
    outer loop
      vertex 2.5 -1.34337e-15 -6.05
      vertex 2.75 -1.29896e-15 -5.85
      vertex 2.5 -1 -6.05
    endloop
  endfacet
  facet normal 0.624695 -1.73388e-16 -0.780869
    outer loop
      vertex 2.5 -1 -6.05
      vertex 2.75 -1.29896e-15 -5.85
      vertex 2.75 -1 -5.85
    endloop
  endfacet
  facet normal -0.242536 -2.15415e-16 -0.970143
    outer loop
      vertex 2.75 -1.29896e-15 -5.85
      vertex 3.15 -1.32117e-15 -5.95
      vertex 2.75 -1 -5.85
    endloop
  endfacet
  facet normal -0.242536 -2.15415e-16 -0.970143
    outer loop
      vertex 2.75 -1 -5.85
      vertex 3.15 -1.32117e-15 -5.95
      vertex 3.15 -1 -5.95
    endloop
  endfacet
  facet normal -0.0766965 -2.21391e-16 -0.997054
    outer loop
      vertex 3.15 -1.32117e-15 -5.95
      vertex 3.8 -1.33227e-15 -6
      vertex 3.15 -1 -5.95
    endloop
  endfacet
  facet normal -0.0766965 -2.21391e-16 -0.997054
    outer loop
      vertex 3.15 -1 -5.95
      vertex 3.8 -1.33227e-15 -6
      vertex 3.8 -1 -6
    endloop
  endfacet
  facet normal 0.21693 -2.16757e-16 -0.976187
    outer loop
      vertex 3.8 -1.33227e-15 -6
      vertex 4.25 -1.31006e-15 -5.9
      vertex 3.8 -1 -6
    endloop
  endfacet
  facet normal 0.21693 -2.16757e-16 -0.976187
    outer loop
      vertex 3.8 -1 -6
      vertex 4.25 -1.31006e-15 -5.9
      vertex 4.25 -1 -5.9
    endloop
  endfacet
  facet normal 0.874157 -1.07834e-16 -0.485643
    outer loop
      vertex 4.25 -1 -5.9
      vertex 4.25 -1.31006e-15 -5.9
      vertex 4.5 -1.21014e-15 -5.45
    endloop
  endfacet
  facet normal 0.874157 -1.07834e-16 -0.485643
    outer loop
      vertex 4.5 -1 -5.45
      vertex 4.25 -1 -5.9
      vertex 4.5 -1.21014e-15 -5.45
    endloop
  endfacet
  facet normal 0.989949 -3.14018e-17 -0.141421
    outer loop
      vertex 4.5 -1 -5.45
      vertex 4.5 -1.21014e-15 -5.45
      vertex 4.55 -1.13243e-15 -5.1
    endloop
  endfacet
  facet normal 0.989949 -3.14018e-17 -0.141421
    outer loop
      vertex 4.55 -1 -5.1
      vertex 4.5 -1 -5.45
      vertex 4.55 -1.13243e-15 -5.1
    endloop
  endfacet
  facet normal 0.913812 -9.01809e-17 -0.406138
    outer loop
      vertex 4.55 -1 -5.1
      vertex 4.55 -1.13243e-15 -5.1
      vertex 4.75 -1.03251e-15 -4.65
    endloop
  endfacet
  facet normal 0.913812 -9.01809e-17 -0.406138
    outer loop
      vertex 4.75 -1 -4.65
      vertex 4.55 -1 -5.1
      vertex 4.75 -1.03251e-15 -4.65
    endloop
  endfacet
  facet normal 0.316228 2.1065e-16 0.948683
    outer loop
      vertex 4.75 -1.03251e-15 -4.65
      vertex 4.45 -1.0103e-15 -4.55
      vertex 4.45 -1 -4.55
    endloop
  endfacet
  facet normal 0.316228 2.1065e-16 0.948683
    outer loop
      vertex 4.75 -1 -4.65
      vertex 4.75 -1.03251e-15 -4.65
      vertex 4.45 -1 -4.55
    endloop
  endfacet
  facet normal 0.707107 -1.57009e-16 -0.707107
    outer loop
      vertex 4.45 -1 -4.55
      vertex 4.45 -1.0103e-15 -4.55
      vertex 4.7 -9.54792e-16 -4.3
    endloop
  endfacet
  facet normal 0.707107 -1.57009e-16 -0.707107
    outer loop
      vertex 4.7 -1 -4.3
      vertex 4.45 -1 -4.55
      vertex 4.7 -9.54792e-16 -4.3
    endloop
  endfacet
  facet normal 0.970143 -5.38537e-17 -0.242536
    outer loop
      vertex 4.7 -1 -4.3
      vertex 4.7 -9.54792e-16 -4.3
      vertex 4.85 -8.21565e-16 -3.7
    endloop
  endfacet
  facet normal 0.970143 -5.38537e-17 -0.242536
    outer loop
      vertex 4.85 -1 -3.7
      vertex 4.7 -1 -4.3
      vertex 4.85 -8.21565e-16 -3.7
    endloop
  endfacet
  facet normal 0.974391 4.99288e-17 0.22486
    outer loop
      vertex 4.85 -8.21565e-16 -3.7
      vertex 4.7 -6.77236e-16 -3.05
      vertex 4.7 -1 -3.05
    endloop
  endfacet
  facet normal 0.974391 4.99288e-17 0.22486
    outer loop
      vertex 4.85 -1 -3.7
      vertex 4.85 -8.21565e-16 -3.7
      vertex 4.7 -1 -3.05
    endloop
  endfacet
  facet normal 0.675725 1.63681e-16 0.737154
    outer loop
      vertex 4.7 -6.77236e-16 -3.05
      vertex 4.26804 -5.89315e-16 -2.65404
      vertex 4.26804 -1 -2.65404
    endloop
  endfacet
  facet normal 0.675725 1.63681e-16 0.737154
    outer loop
      vertex 4.7 -1 -3.05
      vertex 4.7 -6.77236e-16 -3.05
      vertex 4.26804 -1 -2.65404
    endloop
  endfacet
  facet normal 0.0170538 -2.22012e-16 -0.999855
    outer loop
      vertex 4.26804 -5.89315e-16 -2.65404
      vertex 6.85 -5.79536e-16 -2.61
      vertex 4.26804 -1 -2.65404
    endloop
  endfacet
  facet normal 0.0170538 -2.22012e-16 -0.999855
    outer loop
      vertex 4.26804 -1 -2.65404
      vertex 6.85 -5.79536e-16 -2.61
      vertex 6.85 -1 -2.61
    endloop
  endfacet
  facet normal -0.916929 8.8607e-17 0.39905
    outer loop
      vertex 4.6 -1.72751e-15 -7.78
      vertex 4.6 -1 -7.78
      vertex 6.85 -5.79536e-16 -2.61
    endloop
  endfacet
  facet normal -0.916929 8.8607e-17 0.39905
    outer loop
      vertex 6.85 -5.79536e-16 -2.61
      vertex 4.6 -1 -7.78
      vertex 6.85 -1 -2.61
    endloop
  endfacet
  facet normal 0.412207 2.02303e-16 0.91109
    outer loop
      vertex 4.6 -1.72751e-15 -7.78
      vertex 3.09634 -1.57645e-15 -7.0997
      vertex 3.09634 -1 -7.0997
    endloop
  endfacet
  facet normal 0.412207 2.02303e-16 0.91109
    outer loop
      vertex 4.6 -1 -7.78
      vertex 4.6 -1.72751e-15 -7.78
      vertex 3.09634 -1 -7.0997
    endloop
  endfacet
  facet normal 0.683941 1.6199e-16 0.729537
    outer loop
      vertex 3.09634 -1.57645e-15 -7.0997
      vertex 2.35 -1.42109e-15 -6.4
      vertex 2.35 -1 -6.4
    endloop
  endfacet
  facet normal 0.683941 1.6199e-16 0.729537
    outer loop
      vertex 3.09634 -1 -7.0997
      vertex 3.09634 -1.57645e-15 -7.0997
      vertex 2.35 -1 -6.4
    endloop
  endfacet
  facet normal -0.941742 -7.46817e-17 -0.336336
    outer loop
      vertex 6 2.03171e-15 9.15
      vertex 6.75 1.56541e-15 7.05
      vertex 6 -1 9.15
    endloop
  endfacet
  facet normal -0.941742 -7.46817e-17 -0.336336
    outer loop
      vertex 6 -1 9.15
      vertex 6.75 1.56541e-15 7.05
      vertex 6.75 -1 7.05
    endloop
  endfacet
  facet normal 0 1 -2.22045e-16
    outer loop
      vertex 6 2.03171e-15 9.15
      vertex 7.275 2.58127e-15 11.625
      vertex 6.75 1.56541e-15 7.05
    endloop
  endfacet
  facet normal 0 1 -2.22045e-16
    outer loop
      vertex 8.175 2.39808e-15 10.8
      vertex 7.275 2.58127e-15 11.625
      vertex 9.075 2.56462e-15 11.55
    endloop
  endfacet
  facet normal 0 1 -2.22045e-16
    outer loop
      vertex 8.4 2.08167e-15 9.375
      vertex 9.45 2.498e-15 11.25
      vertex 9.225 2.04836e-15 9.225
    endloop
  endfacet
  facet normal 0 1 -2.22045e-16
    outer loop
      vertex 8.85 1.83187e-15 8.25
      vertex 9.225 2.04836e-15 9.225
      vertex 9.75 1.79856e-15 8.1
    endloop
  endfacet
  facet normal 0 1 -2.22045e-16
    outer loop
      vertex 9.075 1.63203e-15 7.35
      vertex 10.875 1.56541e-15 7.05
      vertex 9.375 1.53211e-15 6.9
    endloop
  endfacet
  facet normal 0 1 -2.22045e-16
    outer loop
      vertex 9.375 1.53211e-15 6.9
      vertex 10.875 1.56541e-15 7.05
      vertex 10.725 1.43219e-15 6.45
    endloop
  endfacet
  facet normal 0 1 -2.22045e-16
    outer loop
      vertex 6.75 1.56541e-15 7.05
      vertex 10.725 1.43219e-15 6.45
      vertex 8.85 1.31561e-15 5.925
    endloop
  endfacet
  facet normal 0 1 -2.22045e-16
    outer loop
      vertex 6.75 1.56541e-15 7.05
      vertex 7.275 2.58127e-15 11.625
      vertex 7.425 2.19824e-15 9.9
    endloop
  endfacet
  facet normal 0 1 -2.22045e-16
    outer loop
      vertex 6.75 1.56541e-15 7.05
      vertex 7.425 2.19824e-15 9.9
      vertex 7.2 1.98175e-15 8.925
    endloop
  endfacet
  facet normal 0 1 -2.22045e-16
    outer loop
      vertex 8.175 1.56541e-15 7.05
      vertex 6.75 1.56541e-15 7.05
      vertex 7.5 1.69864e-15 7.65
    endloop
  endfacet
  facet normal 0 1 -2.22045e-16
    outer loop
      vertex 8.85 1.83187e-15 8.25
      vertex 9.75 1.79856e-15 8.1
      vertex 9.075 1.63203e-15 7.35
    endloop
  endfacet
  facet normal 0 1 -2.22045e-16
    outer loop
      vertex 6.75 1.56541e-15 7.05
      vertex 8.175 1.56541e-15 7.05
      vertex 10.725 1.43219e-15 6.45
    endloop
  endfacet
  facet normal 0 1 -2.22045e-16
    outer loop
      vertex 8.175 1.56541e-15 7.05
      vertex 9.375 1.53211e-15 6.9
      vertex 10.725 1.43219e-15 6.45
    endloop
  endfacet
  facet normal 0 1 -2.22045e-16
    outer loop
      vertex 9.75 1.79856e-15 8.1
      vertex 10.875 1.56541e-15 7.05
      vertex 9.075 1.63203e-15 7.35
    endloop
  endfacet
  facet normal 0 1 -2.22045e-16
    outer loop
      vertex 8.4 2.08167e-15 9.375
      vertex 9.225 2.04836e-15 9.225
      vertex 8.85 1.83187e-15 8.25
    endloop
  endfacet
  facet normal 0 1 -2.22045e-16
    outer loop
      vertex 7.425 2.19824e-15 9.9
      vertex 7.275 2.58127e-15 11.625
      vertex 8.175 2.39808e-15 10.8
    endloop
  endfacet
  facet normal 0 1 -2.22045e-16
    outer loop
      vertex 7.5 1.69864e-15 7.65
      vertex 6.75 1.56541e-15 7.05
      vertex 7.2 1.98175e-15 8.925
    endloop
  endfacet
  facet normal 0 1 -2.22045e-16
    outer loop
      vertex 8.175 2.39808e-15 10.8
      vertex 9.075 2.56462e-15 11.55
      vertex 9.45 2.498e-15 11.25
    endloop
  endfacet
  facet normal 0 1 -2.22045e-16
    outer loop
      vertex 8.175 2.39808e-15 10.8
      vertex 9.45 2.498e-15 11.25
      vertex 8.4 2.08167e-15 9.375
    endloop
  endfacet
  facet normal -0.888975 1.01687e-16 0.457957
    outer loop
      vertex 6 2.03171e-15 9.15
      vertex 6 -1 9.15
      vertex 7.275 2.58127e-15 11.625
    endloop
  endfacet
  facet normal -0.888975 1.01687e-16 0.457957
    outer loop
      vertex 7.275 2.58127e-15 11.625
      vertex 6 -1 9.15
      vertex 7.275 -1 11.625
    endloop
  endfacet
  facet normal 0 -1 2.22045e-16
    outer loop
      vertex 7.275 -1 11.625
      vertex 6 -1 9.15
      vertex 6.75 -1 7.05
    endloop
  endfacet
  facet normal 0 -1 2.22045e-16
    outer loop
      vertex 7.2 -1 8.925
      vertex 7.275 -1 11.625
      vertex 6.75 -1 7.05
    endloop
  endfacet
  facet normal 0 -1 2.22045e-16
    outer loop
      vertex 8.175 -1 10.8
      vertex 9.75 -1 8.1
      vertex 9.225 -1 9.225
    endloop
  endfacet
  facet normal 0 -1 2.22045e-16
    outer loop
      vertex 10.875 -1 7.05
      vertex 9.75 -1 8.1
      vertex 10.725 -1 6.45
    endloop
  endfacet
  facet normal 0 -1 2.22045e-16
    outer loop
      vertex 9.75 -1 8.1
      vertex 8.4 -1 9.375
      vertex 10.725 -1 6.45
    endloop
  endfacet
  facet normal 0 -1 2.22045e-16
    outer loop
      vertex 9.075 -1 11.55
      vertex 7.275 -1 11.625
      vertex 9.45 -1 11.25
    endloop
  endfacet
  facet normal 0 -1 2.22045e-16
    outer loop
      vertex 7.5 -1 7.65
      vertex 7.2 -1 8.925
      vertex 6.75 -1 7.05
    endloop
  endfacet
  facet normal 0 -1 2.22045e-16
    outer loop
      vertex 7.425 -1 9.9
      vertex 7.275 -1 11.625
      vertex 7.2 -1 8.925
    endloop
  endfacet
  facet normal 0 -1 2.22045e-16
    outer loop
      vertex 9.45 -1 11.25
      vertex 8.175 -1 10.8
      vertex 9.225 -1 9.225
    endloop
  endfacet
  facet normal 0 -1 2.22045e-16
    outer loop
      vertex 9.45 -1 11.25
      vertex 7.275 -1 11.625
      vertex 8.175 -1 10.8
    endloop
  endfacet
  facet normal 0 -1 2.22045e-16
    outer loop
      vertex 10.725 -1 6.45
      vertex 8.4 -1 9.375
      vertex 8.85 -1 8.25
    endloop
  endfacet
  facet normal 0 -1 2.22045e-16
    outer loop
      vertex 10.725 -1 6.45
      vertex 8.85 -1 8.25
      vertex 9.075 -1 7.35
    endloop
  endfacet
  facet normal 0 -1 2.22045e-16
    outer loop
      vertex 10.725 -1 6.45
      vertex 9.375 -1 6.9
      vertex 8.85 -1 5.925
    endloop
  endfacet
  facet normal 0 -1 2.22045e-16
    outer loop
      vertex 10.725 -1 6.45
      vertex 9.075 -1 7.35
      vertex 9.375 -1 6.9
    endloop
  endfacet
  facet normal 0 -1 2.22045e-16
    outer loop
      vertex 8.85 -1 5.925
      vertex 8.175 -1 7.05
      vertex 6.75 -1 7.05
    endloop
  endfacet
  facet normal 0 -1 2.22045e-16
    outer loop
      vertex 8.175 -1 7.05
      vertex 7.5 -1 7.65
      vertex 6.75 -1 7.05
    endloop
  endfacet
  facet normal 0 -1 2.22045e-16
    outer loop
      vertex 8.175 -1 10.8
      vertex 8.4 -1 9.375
      vertex 9.75 -1 8.1
    endloop
  endfacet
  facet normal 0 -1 2.22045e-16
    outer loop
      vertex 7.425 -1 9.9
      vertex 8.175 -1 10.8
      vertex 7.275 -1 11.625
    endloop
  endfacet
  facet normal 0 -1 2.22045e-16
    outer loop
      vertex 9.375 -1 6.9
      vertex 8.175 -1 7.05
      vertex 8.85 -1 5.925
    endloop
  endfacet
  facet normal -0.472221 -1.95728e-16 -0.88148
    outer loop
      vertex 6.75 1.56541e-15 7.05
      vertex 8.85 1.31561e-15 5.925
      vertex 6.75 -1 7.05
    endloop
  endfacet
  facet normal -0.472221 -1.95728e-16 -0.88148
    outer loop
      vertex 6.75 -1 7.05
      vertex 8.85 1.31561e-15 5.925
      vertex 8.85 -1 5.925
    endloop
  endfacet
  facet normal 0.26963 -2.13821e-16 -0.962964
    outer loop
      vertex 8.85 1.31561e-15 5.925
      vertex 10.725 1.43219e-15 6.45
      vertex 8.85 -1 5.925
    endloop
  endfacet
  facet normal 0.26963 -2.13821e-16 -0.962964
    outer loop
      vertex 8.85 -1 5.925
      vertex 10.725 1.43219e-15 6.45
      vertex 10.725 -1 6.45
    endloop
  endfacet
  facet normal 0.970143 -5.38537e-17 -0.242536
    outer loop
      vertex 10.725 -1 6.45
      vertex 10.725 1.43219e-15 6.45
      vertex 10.875 1.56541e-15 7.05
    endloop
  endfacet
  facet normal 0.970143 -5.38537e-17 -0.242536
    outer loop
      vertex 10.875 -1 7.05
      vertex 10.725 -1 6.45
      vertex 10.875 1.56541e-15 7.05
    endloop
  endfacet
  facet normal 0.682318 1.62327e-16 0.731055
    outer loop
      vertex 10.875 1.56541e-15 7.05
      vertex 9.75 1.79856e-15 8.1
      vertex 9.75 -1 8.1
    endloop
  endfacet
  facet normal 0.682318 1.62327e-16 0.731055
    outer loop
      vertex 10.875 -1 7.05
      vertex 10.875 1.56541e-15 7.05
      vertex 9.75 -1 8.1
    endloop
  endfacet
  facet normal 0.906183 9.38994e-17 0.422885
    outer loop
      vertex 9.75 1.79856e-15 8.1
      vertex 9.225 2.04836e-15 9.225
      vertex 9.225 -1 9.225
    endloop
  endfacet
  facet normal 0.906183 9.38994e-17 0.422885
    outer loop
      vertex 9.75 -1 8.1
      vertex 9.75 1.79856e-15 8.1
      vertex 9.225 -1 9.225
    endloop
  endfacet
  facet normal 0.993884 -2.45207e-17 -0.110432
    outer loop
      vertex 9.225 -1 9.225
      vertex 9.225 2.04836e-15 9.225
      vertex 9.45 2.498e-15 11.25
    endloop
  endfacet
  facet normal 0.993884 -2.45207e-17 -0.110432
    outer loop
      vertex 9.45 -1 11.25
      vertex 9.225 -1 9.225
      vertex 9.45 2.498e-15 11.25
    endloop
  endfacet
  facet normal 0.624695 1.73388e-16 0.780869
    outer loop
      vertex 9.45 2.498e-15 11.25
      vertex 9.075 2.56462e-15 11.55
      vertex 9.075 -1 11.55
    endloop
  endfacet
  facet normal 0.624695 1.73388e-16 0.780869
    outer loop
      vertex 9.45 -1 11.25
      vertex 9.45 2.498e-15 11.25
      vertex 9.075 -1 11.55
    endloop
  endfacet
  facet normal 0.0416305 2.21852e-16 0.999133
    outer loop
      vertex 9.075 2.56462e-15 11.55
      vertex 7.275 2.58127e-15 11.625
      vertex 7.275 -1 11.625
    endloop
  endfacet
  facet normal 0.0416305 2.21852e-16 0.999133
    outer loop
      vertex 9.075 -1 11.55
      vertex 9.075 2.56462e-15 11.55
      vertex 7.275 -1 11.625
    endloop
  endfacet
  facet normal 0.768221 -1.42149e-16 -0.640184
    outer loop
      vertex 7.425 -1 9.9
      vertex 7.425 2.19824e-15 9.9
      vertex 8.175 2.39808e-15 10.8
    endloop
  endfacet
  facet normal 0.768221 -1.42149e-16 -0.640184
    outer loop
      vertex 8.175 -1 10.8
      vertex 7.425 -1 9.9
      vertex 8.175 2.39808e-15 10.8
    endloop
  endfacet
  facet normal 0.974391 -4.99288e-17 -0.22486
    outer loop
      vertex 7.2 -1 8.925
      vertex 7.2 1.98175e-15 8.925
      vertex 7.425 2.19824e-15 9.9
    endloop
  endfacet
  facet normal 0.974391 -4.99288e-17 -0.22486
    outer loop
      vertex 7.425 -1 9.9
      vertex 7.2 -1 8.925
      vertex 7.425 2.19824e-15 9.9
    endloop
  endfacet
  facet normal -0.987763 -3.46306e-17 -0.155963
    outer loop
      vertex 8.175 2.39808e-15 10.8
      vertex 8.4 2.08167e-15 9.375
      vertex 8.175 -1 10.8
    endloop
  endfacet
  facet normal -0.987763 -3.46306e-17 -0.155963
    outer loop
      vertex 8.175 -1 10.8
      vertex 8.4 2.08167e-15 9.375
      vertex 8.4 -1 9.375
    endloop
  endfacet
  facet normal -0.928477 -8.24653e-17 -0.371391
    outer loop
      vertex 8.4 2.08167e-15 9.375
      vertex 8.85 1.83187e-15 8.25
      vertex 8.4 -1 9.375
    endloop
  endfacet
  facet normal -0.928477 -8.24653e-17 -0.371391
    outer loop
      vertex 8.4 -1 9.375
      vertex 8.85 1.83187e-15 8.25
      vertex 8.85 -1 8.25
    endloop
  endfacet
  facet normal -0.970143 -5.38537e-17 -0.242536
    outer loop
      vertex 8.85 1.83187e-15 8.25
      vertex 9.075 1.63203e-15 7.35
      vertex 8.85 -1 8.25
    endloop
  endfacet
  facet normal -0.970143 -5.38537e-17 -0.242536
    outer loop
      vertex 8.85 -1 8.25
      vertex 9.075 1.63203e-15 7.35
      vertex 9.075 -1 7.35
    endloop
  endfacet
  facet normal -0.83205 -1.23168e-16 -0.5547
    outer loop
      vertex 9.075 1.63203e-15 7.35
      vertex 9.375 1.53211e-15 6.9
      vertex 9.075 -1 7.35
    endloop
  endfacet
  facet normal -0.83205 -1.23168e-16 -0.5547
    outer loop
      vertex 9.075 -1 7.35
      vertex 9.375 1.53211e-15 6.9
      vertex 9.375 -1 6.9
    endloop
  endfacet
  facet normal 0.124035 2.2033e-16 0.992278
    outer loop
      vertex 9.375 1.53211e-15 6.9
      vertex 8.175 1.56541e-15 7.05
      vertex 8.175 -1 7.05
    endloop
  endfacet
  facet normal 0.124035 2.2033e-16 0.992278
    outer loop
      vertex 9.375 -1 6.9
      vertex 9.375 1.53211e-15 6.9
      vertex 8.175 -1 7.05
    endloop
  endfacet
  facet normal 0.664364 1.65958e-16 0.747409
    outer loop
      vertex 8.175 1.56541e-15 7.05
      vertex 7.5 1.69864e-15 7.65
      vertex 7.5 -1 7.65
    endloop
  endfacet
  facet normal 0.664364 1.65958e-16 0.747409
    outer loop
      vertex 8.175 -1 7.05
      vertex 8.175 1.56541e-15 7.05
      vertex 7.5 -1 7.65
    endloop
  endfacet
  facet normal 0.973417 5.08569e-17 0.229039
    outer loop
      vertex 7.5 1.69864e-15 7.65
      vertex 7.2 1.98175e-15 8.925
      vertex 7.2 -1 8.925
    endloop
  endfacet
  facet normal 0.973417 5.08569e-17 0.229039
    outer loop
      vertex 7.5 -1 7.65
      vertex 7.5 1.69864e-15 7.65
      vertex 7.2 -1 8.925
    endloop
  endfacet
endsolid OpenSCAD_Model
