solid OpenSCAD_Model
  facet normal -0.919145 2.50951e-17 0.393919
    outer loop
      vertex -10 -0.1 -2.22045e-17
      vertex -7 -0.1 7
      vertex -10 0.1 2.22045e-17
    endloop
  endfacet
  facet normal -0.919145 2.50951e-17 0.393919
    outer loop
      vertex -10 0.1 2.22045e-17
      vertex -7 -0.1 7
      vertex -7 0.1 7
    endloop
  endfacet
  facet normal -1.22465e-16 -1 -2.22045e-16
    outer loop
      vertex -2.39873 -0.1 0
      vertex -10 -0.1 -2.22045e-17
      vertex -1.22465e-17 -0.1 -2.22045e-17
    endloop
  endfacet
  facet normal -1.22465e-16 -1 -2.22045e-16
    outer loop
      vertex -1.22465e-17 -0.1 -2.21112e-33
      vertex -2.22045e-17 -0.1 0
      vertex -1.22465e-17 -0.1 -2.22045e-17
    endloop
  endfacet
  facet normal -1.22465e-16 -1 -2.22045e-16
    outer loop
      vertex -7 -0.1 7
      vertex -10 -0.1 -2.22045e-17
      vertex -2.39873 -0.1 0
    endloop
  endfacet
  facet normal -1.22465e-16 -1 -2.22045e-16
    outer loop
      vertex -2.22045e-17 -0.1 0
      vertex -2.39873 -0.1 0
      vertex -1.22465e-17 -0.1 -2.22045e-17
    endloop
  endfacet
  facet normal -1.22465e-16 -1 -2.22045e-16
    outer loop
      vertex -2.39873 -0.1 0
      vertex -3.09234 -0.1 8.67471
      vertex -7 -0.1 7
    endloop
  endfacet
  facet normal 2.71926e-32 2.22045e-16 -1
    outer loop
      vertex -10 -0.1 -2.22045e-17
      vertex -10 0.1 2.22045e-17
      vertex -1.22465e-17 -0.1 -2.22045e-17
    endloop
  endfacet
  facet normal 2.71926e-32 2.22045e-16 -1
    outer loop
      vertex -2.39873 2.9376e-16 0
      vertex -10 0.1 2.22045e-17
      vertex -2.39873 0.1 2.22045e-17
    endloop
  endfacet
  facet normal 2.71926e-32 2.22045e-16 -1
    outer loop
      vertex -1.22465e-17 -0.1 -2.22045e-17
      vertex -10 0.1 2.22045e-17
      vertex -2.39873 2.9376e-16 0
    endloop
  endfacet
  facet normal 2.71926e-32 2.22045e-16 -1
    outer loop
      vertex 0 0 0
      vertex -1.22465e-17 -0.1 -2.22045e-17
      vertex -2.39873 2.9376e-16 0
    endloop
  endfacet
  facet normal 1.22465e-16 1 2.22045e-16
    outer loop
      vertex -10 0.1 2.22045e-17
      vertex -7 0.1 7
      vertex -2.39873 0.1 2.22045e-17
    endloop
  endfacet
  facet normal 1.22465e-16 1 2.22045e-16
    outer loop
      vertex -2.39873 0.1 2.22045e-17
      vertex -7 0.1 7
      vertex -3.09234 0.1 8.67471
    endloop
  endfacet
  facet normal -0.393919 -1.5585e-16 0.919145
    outer loop
      vertex -7 0.1 7
      vertex -7 -0.1 7
      vertex -3.09234 -0.1 8.67471
    endloop
  endfacet
  facet normal -0.393919 -1.5585e-16 0.919145
    outer loop
      vertex -3.09234 0.1 8.67471
      vertex -7 0.1 7
      vertex -3.09234 -0.1 8.67471
    endloop
  endfacet
  facet normal -0.996819 0 -0.0797034
    outer loop
      vertex -2.39873 -0.1 0
      vertex -2.39873 -0.704331 0
      vertex -3.09234 -0.1 8.67471
    endloop
  endfacet
  facet normal -0.996819 0 -0.0797034
    outer loop
      vertex -2.39873 0.1 2.22045e-17
      vertex -3.19831 0.939109 10
      vertex -2.39873 0.704331 0
    endloop
  endfacet
  facet normal -0.996819 0 -0.0797034
    outer loop
      vertex -2.39873 2.9376e-16 0
      vertex -2.39873 0.1 2.22045e-17
      vertex -2.39873 0.704331 0
    endloop
  endfacet
  facet normal -0.996819 0 -0.0797034
    outer loop
      vertex -3.19831 -0.939109 10
      vertex -3.19831 0.939109 10
      vertex -3.09234 0.1 8.67471
    endloop
  endfacet
  facet normal -0.996819 0 -0.0797034
    outer loop
      vertex -3.19831 -0.939109 10
      vertex -3.09234 0.1 8.67471
      vertex -3.09234 -0.1 8.67471
    endloop
  endfacet
  facet normal -0.996819 0 -0.0797034
    outer loop
      vertex -3.19831 -0.939109 10
      vertex -3.09234 -0.1 8.67471
      vertex -2.39873 -0.704331 0
    endloop
  endfacet
  facet normal -0.996819 0 -0.0797034
    outer loop
      vertex -3.09234 0.1 8.67471
      vertex -3.19831 0.939109 10
      vertex -2.39873 0.1 2.22045e-17
    endloop
  endfacet
  facet normal 0 0 -1
    outer loop
      vertex -2.39873 -0.704331 0
      vertex -2.39873 -0.1 0
      vertex -1.63715 -1.88937 0
    endloop
  endfacet
  facet normal 0 0 -1
    outer loop
      vertex -1.63715 -1.88937 0
      vertex -2.39873 -0.1 0
      vertex -2.22045e-17 -0.1 0
    endloop
  endfacet
  facet normal 0 0 -1
    outer loop
      vertex -1.63715 -1.88937 0
      vertex -2.22045e-17 -0.1 0
      vertex -5.38103e-16 -2.4234 0
    endloop
  endfacet
  facet normal 0 0 -1
    outer loop
      vertex -1.63715 -1.88937 0
      vertex -5.38103e-16 -2.4234 0
      vertex -0.355787 -2.47455 0
    endloop
  endfacet
  facet normal -2.22045e-16 4.93038e-32 -1
    outer loop
      vertex -0.1 -10 2.22045e-17
      vertex -0.1 -2.43778 2.22045e-17
      vertex 0.1 -10 -2.22045e-17
    endloop
  endfacet
  facet normal -2.22045e-16 4.93038e-32 -1
    outer loop
      vertex 0.1 -10 -2.22045e-17
      vertex -0.1 -2.43778 2.22045e-17
      vertex -5.38103e-16 -2.4234 0
    endloop
  endfacet
  facet normal -2.22045e-16 4.93038e-32 -1
    outer loop
      vertex 0.1 -10 -2.22045e-17
      vertex -5.38103e-16 -2.4234 0
      vertex -2.22045e-17 -0.1 0
    endloop
  endfacet
  facet normal -2.22045e-16 4.93038e-32 -1
    outer loop
      vertex 0.1 -10 -2.22045e-17
      vertex -2.22045e-17 -0.1 0
      vertex -1.22465e-17 -0.1 -2.21112e-33
    endloop
  endfacet
  facet normal -2.22045e-16 4.93038e-32 -1
    outer loop
      vertex 0.1 -10 -2.22045e-17
      vertex -1.22465e-17 -0.1 -2.21112e-33
      vertex 0 0 0
    endloop
  endfacet
  facet normal -2.22045e-16 4.93038e-32 -1
    outer loop
      vertex 0.1 -10 -2.22045e-17
      vertex 0 0 0
      vertex 0.1 -2.22045e-17 -2.22045e-17
    endloop
  endfacet
  facet normal 1 -1.22465e-16 0
    outer loop
      vertex 0 0 0
      vertex -1.22465e-17 -0.1 -2.21112e-33
      vertex -1.22465e-17 -0.1 -2.22045e-17
    endloop
  endfacet
  facet normal 0 0 -1
    outer loop
      vertex -2.39873 2.9376e-16 0
      vertex -2.39873 0.704331 0
      vertex -0.1 2.22045e-17 0
    endloop
  endfacet
  facet normal 0 0 -1
    outer loop
      vertex -2.39873 2.9376e-16 0
      vertex -0.1 2.22045e-17 0
      vertex 0 0 0
    endloop
  endfacet
  facet normal 0 0 -1
    outer loop
      vertex -0.1 2.22045e-17 0
      vertex -2.39873 0.704331 0
      vertex -1.63715 1.88937 0
    endloop
  endfacet
  facet normal 0 0 -1
    outer loop
      vertex -0.1 2.22045e-17 0
      vertex -1.63715 1.88937 0
      vertex -0.355787 2.47455 0
    endloop
  endfacet
  facet normal 0 0 -1
    outer loop
      vertex -0.1 2.22045e-17 0
      vertex -0.355787 2.47455 0
      vertex -0.1 2.43778 0
    endloop
  endfacet
  facet normal 2.22045e-16 1 0
    outer loop
      vertex 0.1 -2.22045e-17 0
      vertex 0.1 -2.22045e-17 -2.22045e-17
      vertex 0 0 0
    endloop
  endfacet
  facet normal 0 0 -1
    outer loop
      vertex 0 0 0
      vertex 2.5 0 0
      vertex 0.1 -2.22045e-17 0
    endloop
  endfacet
  facet normal 0 0 -1
    outer loop
      vertex 0.1 -2.22045e-17 0
      vertex 2.5 0 0
      vertex 2.10313 -1.3516 0
    endloop
  endfacet
  facet normal 0 0 -1
    outer loop
      vertex 0.1 -2.22045e-17 0
      vertex 2.10313 -1.3516 0
      vertex 1.03854 -2.27408 0
    endloop
  endfacet
  facet normal 0 0 -1
    outer loop
      vertex 0.1 -2.22045e-17 0
      vertex 1.03854 -2.27408 0
      vertex 0.1 -2.40902 0
    endloop
  endfacet
  facet normal 0 -2.22045e-16 -1
    outer loop
      vertex 0 0 0
      vertex 0 0.1 -2.22045e-17
      vertex 2.5 0 0
    endloop
  endfacet
  facet normal 0 -2.22045e-16 -1
    outer loop
      vertex 2.5 0 0
      vertex 0 0.1 -2.22045e-17
      vertex 10 0.1 -2.22045e-17
    endloop
  endfacet
  facet normal 0 -2.22045e-16 -1
    outer loop
      vertex 2.5 0 0
      vertex 10 0.1 -2.22045e-17
      vertex 10 -0.1 2.22045e-17
    endloop
  endfacet
  facet normal 0 -2.22045e-16 -1
    outer loop
      vertex 2.5 0 0
      vertex 10 -0.1 2.22045e-17
      vertex 2.47064 -0.1 2.22045e-17
    endloop
  endfacet
  facet normal -1 0 0
    outer loop
      vertex 0 0.1 -2.22045e-17
      vertex 0 0 0
      vertex 0 0.1 -4.93038e-33
    endloop
  endfacet
  facet normal 2.22045e-16 -4.93038e-32 -1
    outer loop
      vertex -0.1 2.22045e-17 -2.22045e-17
      vertex -0.1 10 -2.22045e-17
      vertex 0 0 0
    endloop
  endfacet
  facet normal 2.22045e-16 -4.93038e-32 -1
    outer loop
      vertex 5.38103e-16 2.4234 0
      vertex -0.1 10 -2.22045e-17
      vertex 0.1 10 2.22045e-17
    endloop
  endfacet
  facet normal 2.22045e-16 -4.93038e-32 -1
    outer loop
      vertex 0 0.1 -4.93038e-33
      vertex -0.1 10 -2.22045e-17
      vertex 2.22045e-17 0.1 0
    endloop
  endfacet
  facet normal 2.22045e-16 -4.93038e-32 -1
    outer loop
      vertex -0.1 10 -2.22045e-17
      vertex 5.38103e-16 2.4234 0
      vertex 2.22045e-17 0.1 0
    endloop
  endfacet
  facet normal 2.22045e-16 -4.93038e-32 -1
    outer loop
      vertex 0 0 0
      vertex -0.1 10 -2.22045e-17
      vertex 0 0.1 -4.93038e-33
    endloop
  endfacet
  facet normal 2.22045e-16 -4.93038e-32 -1
    outer loop
      vertex 5.38103e-16 2.4234 0
      vertex 0.1 10 2.22045e-17
      vertex 0.1 2.40902 2.22045e-17
    endloop
  endfacet
  facet normal -2.22045e-16 -1 0
    outer loop
      vertex 0 0 0
      vertex -0.1 2.22045e-17 0
      vertex -0.1 2.22045e-17 -2.22045e-17
    endloop
  endfacet
  facet normal -0.838577 -0.53892 -0.0797035
    outer loop
      vertex -1.63715 -1.88937 0
      vertex -3.19831 -0.939109 10
      vertex -2.39873 -0.704331 0
    endloop
  endfacet
  facet normal -0.838577 0.53892 -0.0797033
    outer loop
      vertex -1.63715 1.88937 0
      vertex -2.39873 0.704331 0
      vertex -2.18287 2.51917 10
    endloop
  endfacet
  facet normal -0.838577 0.538921 -0.0797035
    outer loop
      vertex -2.39873 0.704331 0
      vertex -3.19831 0.939109 10
      vertex -2.18287 2.51917 10
    endloop
  endfacet
  facet normal -0.995851 0 0.0910012
    outer loop
      vertex -3.19831 -0.939109 10
      vertex -2.74141 -0.80495 15
      vertex -3.19831 0.939109 10
    endloop
  endfacet
  facet normal -0.995851 0 0.0910012
    outer loop
      vertex -3.19831 0.939109 10
      vertex -2.74141 -0.80495 15
      vertex -2.74141 0.80495 15
    endloop
  endfacet
  facet normal -0.837763 0.538398 0.0910011
    outer loop
      vertex -2.18287 2.51917 10
      vertex -3.19831 0.939109 10
      vertex -1.87103 2.15928 15
    endloop
  endfacet
  facet normal -0.837763 0.538397 0.0910013
    outer loop
      vertex -3.19831 0.939109 10
      vertex -2.74141 0.80495 15
      vertex -2.68484 0.892978 15
    endloop
  endfacet
  facet normal -0.837763 0.538397 0.0910013
    outer loop
      vertex -3.19831 0.939109 10
      vertex -2.68484 0.892978 15
      vertex -2.45363 1.25274 15
    endloop
  endfacet
  facet normal -0.837763 0.538397 0.0910013
    outer loop
      vertex -3.19831 0.939109 10
      vertex -2.45363 1.25274 15
      vertex -1.87103 2.15928 15
    endloop
  endfacet
  facet normal -0.837763 -0.538398 0.0910013
    outer loop
      vertex -2.74141 -0.80495 15
      vertex -3.19831 -0.939109 10
      vertex -2.18287 -2.51917 10
    endloop
  endfacet
  facet normal -0.838577 -0.538921 -0.0797033
    outer loop
      vertex -2.18287 -2.51917 10
      vertex -3.19831 -0.939109 10
      vertex -1.63715 -1.88937 0
    endloop
  endfacet
  facet normal -0.414094 -0.906738 -0.0797033
    outer loop
      vertex -0.355787 -2.47455 0
      vertex -2.18287 -2.51917 10
      vertex -1.63715 -1.88937 0
    endloop
  endfacet
  facet normal -0.414094 -0.906738 -0.0797034
    outer loop
      vertex -0.474383 -3.2994 10
      vertex -2.18287 -2.51917 10
      vertex -0.355787 -2.47455 0
    endloop
  endfacet
  facet normal 0.141862 -0.986672 -0.0797033
    outer loop
      vertex -0.1 -3.04568 7.52543
      vertex -0.474383 -3.2994 10
      vertex -0.355787 -2.47455 0
    endloop
  endfacet
  facet normal 0.141862 -0.986672 -0.0797033
    outer loop
      vertex -0.1 -2.43778 2.22045e-17
      vertex -0.1 -3.04568 7.52543
      vertex -0.355787 -2.47455 0
    endloop
  endfacet
  facet normal 0.141862 -0.986672 -0.0797033
    outer loop
      vertex -5.38103e-16 -2.4234 0
      vertex -0.1 -2.43778 2.22045e-17
      vertex -0.355787 -2.47455 0
    endloop
  endfacet
  facet normal -1.16624e-16 -0.919145 0.393919
    outer loop
      vertex -0.1 -7 7
      vertex -0.1 -10 2.22045e-17
      vertex 0.1 -10 -2.22045e-17
    endloop
  endfacet
  facet normal -1.16624e-16 -0.919145 0.393919
    outer loop
      vertex 0.1 -7 7
      vertex -0.1 -7 7
      vertex 0.1 -10 -2.22045e-17
    endloop
  endfacet
  facet normal 1 -2.22045e-16 -2.22045e-16
    outer loop
      vertex 0.1 -2.40902 0
      vertex 0.1 -10 -2.22045e-17
      vertex 0.1 -2.22045e-17 -2.22045e-17
    endloop
  endfacet
  facet normal 1 -2.22045e-16 -2.22045e-16
    outer loop
      vertex 0.1 -2.40902 0
      vertex 0.1 -2.91014 6.20348
      vertex 0.1 -7 7
    endloop
  endfacet
  facet normal 1 -2.22045e-16 -2.22045e-16
    outer loop
      vertex 0.1 -7 7
      vertex 0.1 -10 -2.22045e-17
      vertex 0.1 -2.40902 0
    endloop
  endfacet
  facet normal 1 -2.22045e-16 -2.22045e-16
    outer loop
      vertex 0.1 -3.10918 8.66749
      vertex 0.1 -7 7
      vertex 0.1 -2.91014 6.20348
    endloop
  endfacet
  facet normal 1 -2.22045e-16 -2.22045e-16
    outer loop
      vertex 0.1 -2.22045e-17 0
      vertex 0.1 -2.40902 0
      vertex 0.1 -2.22045e-17 -2.22045e-17
    endloop
  endfacet
  facet normal -1 2.22045e-16 2.22045e-16
    outer loop
      vertex -0.1 -10 2.22045e-17
      vertex -0.1 -7 7
      vertex -0.1 -2.43778 2.22045e-17
    endloop
  endfacet
  facet normal -1 2.22045e-16 2.22045e-16
    outer loop
      vertex -0.1 -2.43778 2.22045e-17
      vertex -0.1 -7 7
      vertex -0.1 -3.13697 8.65558
    endloop
  endfacet
  facet normal -1 2.22045e-16 2.22045e-16
    outer loop
      vertex -0.1 -2.43778 2.22045e-17
      vertex -0.1 -3.13697 8.65558
      vertex -0.1 -3.04568 7.52543
    endloop
  endfacet
  facet normal -1 2.22045e-16 -2.22045e-16
    outer loop
      vertex -0.1 3.13697 8.65558
      vertex -0.1 7 7
      vertex -0.1 2.55649 1.46961
    endloop
  endfacet
  facet normal -1 2.22045e-16 -2.22045e-16
    outer loop
      vertex -0.1 2.55649 1.46961
      vertex -0.1 7 7
      vertex -0.1 10 -2.22045e-17
    endloop
  endfacet
  facet normal -1 2.22045e-16 -2.22045e-16
    outer loop
      vertex -0.1 2.43778 0
      vertex -0.1 10 -2.22045e-17
      vertex -0.1 2.22045e-17 -2.22045e-17
    endloop
  endfacet
  facet normal -1 2.22045e-16 -2.22045e-16
    outer loop
      vertex -0.1 2.55649 1.46961
      vertex -0.1 10 -2.22045e-17
      vertex -0.1 2.43778 0
    endloop
  endfacet
  facet normal -1 2.22045e-16 -2.22045e-16
    outer loop
      vertex -0.1 2.43778 0
      vertex -0.1 2.22045e-17 -2.22045e-17
      vertex -0.1 2.22045e-17 0
    endloop
  endfacet
  facet normal 0.141862 0.986672 -0.0797034
    outer loop
      vertex -0.1 2.43778 0
      vertex -0.355787 2.47455 0
      vertex -0.1 2.55649 1.46961
    endloop
  endfacet
  facet normal 0.141862 0.986672 -0.0797034
    outer loop
      vertex 0.1 3.10918 8.66749
      vertex 1.38472 3.03211 10
      vertex 0.1 2.62056 2.61871
    endloop
  endfacet
  facet normal 0.141862 0.986672 -0.0797034
    outer loop
      vertex -0.474383 3.2994 10
      vertex 1.38472 3.03211 10
      vertex 0.1 3.10918 8.66749
    endloop
  endfacet
  facet normal 0.141862 0.986672 -0.0797034
    outer loop
      vertex -0.474383 3.2994 10
      vertex 0.1 3.10918 8.66749
      vertex -0.1 3.13697 8.65558
    endloop
  endfacet
  facet normal 0.141862 0.986672 -0.0797034
    outer loop
      vertex -0.474383 3.2994 10
      vertex -0.1 2.55649 1.46961
      vertex -0.355787 2.47455 0
    endloop
  endfacet
  facet normal 0.141862 0.986672 -0.0797034
    outer loop
      vertex -0.1 2.55649 1.46961
      vertex -0.474383 3.2994 10
      vertex -0.1 3.13697 8.65558
    endloop
  endfacet
  facet normal -0.414094 0.906738 -0.0797034
    outer loop
      vertex -0.355787 2.47455 0
      vertex -1.63715 1.88937 0
      vertex -0.474383 3.2994 10
    endloop
  endfacet
  facet normal -0.414094 0.906738 -0.0797033
    outer loop
      vertex -1.63715 1.88937 0
      vertex -2.18287 2.51917 10
      vertex -0.474383 3.2994 10
    endloop
  endfacet
  facet normal 0.141862 -0.986672 -0.0797033
    outer loop
      vertex 0.1 -2.91014 6.20348
      vertex 0.1 -2.40902 0
      vertex 1.03854 -2.27408 0
    endloop
  endfacet
  facet normal 0.141862 -0.986672 -0.0797034
    outer loop
      vertex -0.1 -3.13697 8.65558
      vertex -0.474383 -3.2994 10
      vertex -0.1 -3.04568 7.52543
    endloop
  endfacet
  facet normal 0.141862 -0.986672 -0.0797034
    outer loop
      vertex 1.38472 -3.03211 10
      vertex -0.474383 -3.2994 10
      vertex -0.1 -3.13697 8.65558
    endloop
  endfacet
  facet normal 0.141862 -0.986672 -0.0797034
    outer loop
      vertex 1.38472 -3.03211 10
      vertex -0.1 -3.13697 8.65558
      vertex 0.1 -3.10918 8.66749
    endloop
  endfacet
  facet normal 0.141862 -0.986672 -0.0797034
    outer loop
      vertex 1.03854 -2.27408 0
      vertex 1.38472 -3.03211 10
      vertex 0.1 -2.91014 6.20348
    endloop
  endfacet
  facet normal 0.141862 -0.986672 -0.0797034
    outer loop
      vertex 0.1 -3.10918 8.66749
      vertex 0.1 -2.91014 6.20348
      vertex 1.38472 -3.03211 10
    endloop
  endfacet
  facet normal 0.652778 -0.753345 -0.0797034
    outer loop
      vertex 1.38472 -3.03211 10
      vertex 1.03854 -2.27408 0
      vertex 2.10313 -1.3516 0
    endloop
  endfacet
  facet normal 0.652778 -0.753345 -0.0797033
    outer loop
      vertex 2.80418 -1.80214 10
      vertex 1.38472 -3.03211 10
      vertex 2.10313 -1.3516 0
    endloop
  endfacet
  facet normal 0.956441 -0.280836 -0.0797033
    outer loop
      vertex 2.47064 -0.1 2.22045e-17
      vertex 2.10313 -1.3516 0
      vertex 2.5 0 0
    endloop
  endfacet
  facet normal 0.956441 -0.280836 -0.0797033
    outer loop
      vertex 2.80418 -1.80214 10
      vertex 2.10313 -1.3516 0
      vertex 2.47064 -0.1 2.22045e-17
    endloop
  endfacet
  facet normal 0.956441 -0.280836 -0.0797033
    outer loop
      vertex 2.80418 -1.80214 10
      vertex 2.47064 -0.1 2.22045e-17
      vertex 2.51688 -0.1 0.554897
    endloop
  endfacet
  facet normal 0 -1 2.22045e-16
    outer loop
      vertex 2.51688 -0.1 0.554897
      vertex 2.47064 -0.1 2.22045e-17
      vertex 10 -0.1 2.22045e-17
    endloop
  endfacet
  facet normal 0 -1 2.22045e-16
    outer loop
      vertex 3.19004 -0.1 8.63284
      vertex 2.51688 -0.1 0.554897
      vertex 7 -0.1 7
    endloop
  endfacet
  facet normal 0 -1 2.22045e-16
    outer loop
      vertex 7 -0.1 7
      vertex 2.51688 -0.1 0.554897
      vertex 10 -0.1 2.22045e-17
    endloop
  endfacet
  facet normal 0.919145 8.74677e-17 0.393919
    outer loop
      vertex 7 0.1 7
      vertex 7 -0.1 7
      vertex 10 -0.1 2.22045e-17
    endloop
  endfacet
  facet normal 0.919145 8.74677e-17 0.393919
    outer loop
      vertex 10 0.1 -2.22045e-17
      vertex 7 0.1 7
      vertex 10 -0.1 2.22045e-17
    endloop
  endfacet
  facet normal 0 1 -2.22045e-16
    outer loop
      vertex 0 0.1 -2.22045e-17
      vertex 0 0.1 -4.93038e-33
      vertex 10 0.1 -2.22045e-17
    endloop
  endfacet
  facet normal 0 1 -2.22045e-16
    outer loop
      vertex 10 0.1 -2.22045e-17
      vertex 0 0.1 -4.93038e-33
      vertex 2.22045e-17 0.1 0
    endloop
  endfacet
  facet normal 0 1 -2.22045e-16
    outer loop
      vertex 10 0.1 -2.22045e-17
      vertex 2.22045e-17 0.1 0
      vertex 2.47064 0.1 0
    endloop
  endfacet
  facet normal 0 1 -2.22045e-16
    outer loop
      vertex 10 0.1 -2.22045e-17
      vertex 2.47064 0.1 0
      vertex 3.19004 0.1 8.63284
    endloop
  endfacet
  facet normal 0 1 -2.22045e-16
    outer loop
      vertex 10 0.1 -2.22045e-17
      vertex 3.19004 0.1 8.63284
      vertex 7 0.1 7
    endloop
  endfacet
  facet normal 0 0 -1
    outer loop
      vertex 2.22045e-17 0.1 0
      vertex 5.38103e-16 2.4234 0
      vertex 2.47064 0.1 0
    endloop
  endfacet
  facet normal 0 0 -1
    outer loop
      vertex 2.47064 0.1 0
      vertex 5.38103e-16 2.4234 0
      vertex 1.03854 2.27408 0
    endloop
  endfacet
  facet normal 0 0 -1
    outer loop
      vertex 2.47064 0.1 0
      vertex 1.03854 2.27408 0
      vertex 2.10313 1.3516 0
    endloop
  endfacet
  facet normal 0.141862 0.986672 -0.0797034
    outer loop
      vertex 5.38103e-16 2.4234 0
      vertex 0.1 2.40902 2.22045e-17
      vertex 1.03854 2.27408 0
    endloop
  endfacet
  facet normal 0.141862 0.986672 -0.0797034
    outer loop
      vertex 1.03854 2.27408 0
      vertex 0.1 2.40902 2.22045e-17
      vertex 0.1 2.62056 2.61871
    endloop
  endfacet
  facet normal 0.141862 0.986672 -0.0797034
    outer loop
      vertex 1.03854 2.27408 0
      vertex 0.1 2.62056 2.61871
      vertex 1.38472 3.03211 10
    endloop
  endfacet
  facet normal 1 -2.22045e-16 2.22045e-16
    outer loop
      vertex 0.1 7 7
      vertex 0.1 3.10918 8.66749
      vertex 0.1 2.62056 2.61871
    endloop
  endfacet
  facet normal 1 -2.22045e-16 2.22045e-16
    outer loop
      vertex 0.1 2.40902 2.22045e-17
      vertex 0.1 7 7
      vertex 0.1 2.62056 2.61871
    endloop
  endfacet
  facet normal 1 -2.22045e-16 2.22045e-16
    outer loop
      vertex 0.1 2.40902 2.22045e-17
      vertex 0.1 10 2.22045e-17
      vertex 0.1 7 7
    endloop
  endfacet
  facet normal 1.16624e-16 0.919145 0.393919
    outer loop
      vertex -0.1 7 7
      vertex 0.1 7 7
      vertex -0.1 10 -2.22045e-17
    endloop
  endfacet
  facet normal 1.16624e-16 0.919145 0.393919
    outer loop
      vertex -0.1 10 -2.22045e-17
      vertex 0.1 7 7
      vertex 0.1 10 2.22045e-17
    endloop
  endfacet
  facet normal -0.413692 0.905858 0.0910012
    outer loop
      vertex -0.474383 3.2994 10
      vertex -2.18287 2.51917 10
      vertex -0.406614 2.82806 15
    endloop
  endfacet
  facet normal -0.413691 0.905858 0.0910011
    outer loop
      vertex -2.18287 2.51917 10
      vertex -1.87103 2.15928 15
      vertex -1.58231 2.29114 15
    endloop
  endfacet
  facet normal -0.413691 0.905858 0.0910011
    outer loop
      vertex -2.18287 2.51917 10
      vertex -1.58231 2.29114 15
      vertex -1.02548 2.54543 15
    endloop
  endfacet
  facet normal -0.413691 0.905858 0.0910011
    outer loop
      vertex -2.18287 2.51917 10
      vertex -1.02548 2.54543 15
      vertex -0.406614 2.82806 15
    endloop
  endfacet
  facet normal 0 0 1
    outer loop
      vertex -2.74141 0.80495 15
      vertex -2.74141 -0.80495 15
      vertex -2.68484 -0.892978 15
    endloop
  endfacet
  facet normal 0 0 1
    outer loop
      vertex -2.68484 0.892978 15
      vertex -2.74141 0.80495 15
      vertex -2.68484 -0.892978 15
    endloop
  endfacet
  facet normal -0.837763 -0.538397 0.0910011
    outer loop
      vertex -2.74141 -0.80495 15
      vertex -2.18287 -2.51917 10
      vertex -2.68484 -0.892978 15
    endloop
  endfacet
  facet normal -0.837763 -0.538397 0.0910011
    outer loop
      vertex -2.45363 -1.25274 15
      vertex -2.18287 -2.51917 10
      vertex -1.87103 -2.15928 15
    endloop
  endfacet
  facet normal -0.837763 -0.538397 0.0910011
    outer loop
      vertex -2.68484 -0.892978 15
      vertex -2.18287 -2.51917 10
      vertex -2.45363 -1.25274 15
    endloop
  endfacet
  facet normal 0 0 1
    outer loop
      vertex -1.87103 2.15928 15
      vertex -2.45363 1.25274 15
      vertex -1.58231 2.29114 15
    endloop
  endfacet
  facet normal 0 0 -1
    outer loop
      vertex -2.68484 0.9772 15
      vertex -2.45363 1.25274 15
      vertex -2.68484 0.892978 15
    endloop
  endfacet
  facet normal -0.766044 0.642788 0
    outer loop
      vertex -2.68484 0.9772 15
      vertex -2.68484 0.9772 32.5
      vertex -2.45363 1.25274 15
    endloop
  endfacet
  facet normal -0.766044 0.642788 0
    outer loop
      vertex -2.45363 1.25274 15
      vertex -2.68484 0.9772 32.5
      vertex -1.42857 2.47436 32.5
    endloop
  endfacet
  facet normal -0.766044 0.642788 0
    outer loop
      vertex -1.58231 2.29114 15
      vertex -1.42857 2.47436 32.5
      vertex -1.42857 2.47436 15
    endloop
  endfacet
  facet normal -0.766044 0.642788 0
    outer loop
      vertex -2.45363 1.25274 15
      vertex -1.42857 2.47436 32.5
      vertex -1.58231 2.29114 15
    endloop
  endfacet
  facet normal -1 0 0
    outer loop
      vertex -2.68484 -0.9772 15
      vertex -2.68484 -0.9772 32.5
      vertex -2.68484 -0.892978 15
    endloop
  endfacet
  facet normal -1 0 0
    outer loop
      vertex -2.68484 -0.892978 15
      vertex -2.68484 -0.9772 32.5
      vertex -2.68484 0.9772 32.5
    endloop
  endfacet
  facet normal -1 0 0
    outer loop
      vertex -2.68484 0.892978 15
      vertex -2.68484 0.9772 32.5
      vertex -2.68484 0.9772 15
    endloop
  endfacet
  facet normal -1 0 0
    outer loop
      vertex -2.68484 -0.892978 15
      vertex -2.68484 0.9772 32.5
      vertex -2.68484 0.892978 15
    endloop
  endfacet
  facet normal -0.413692 -0.905858 0.0910011
    outer loop
      vertex -1.87103 -2.15928 15
      vertex -2.18287 -2.51917 10
      vertex -0.474383 -3.2994 10
    endloop
  endfacet
  facet normal -0.413691 -0.905858 0.0910012
    outer loop
      vertex -1.58231 -2.29114 15
      vertex -1.87103 -2.15928 15
      vertex -0.474383 -3.2994 10
    endloop
  endfacet
  facet normal -0.413691 -0.905858 0.0910012
    outer loop
      vertex -1.02548 -2.54543 15
      vertex -1.58231 -2.29114 15
      vertex -0.474383 -3.2994 10
    endloop
  endfacet
  facet normal -0.413691 -0.905858 0.0910012
    outer loop
      vertex -0.406614 -2.82806 15
      vertex -1.02548 -2.54543 15
      vertex -0.474383 -3.2994 10
    endloop
  endfacet
  facet normal 0.141724 -0.985714 0.0910012
    outer loop
      vertex -0.406614 -2.82806 15
      vertex -0.474383 -3.2994 10
      vertex 1.38472 -3.03211 10
    endloop
  endfacet
  facet normal 1.16624e-16 -0.393919 0.919145
    outer loop
      vertex -0.1 -3.13697 8.65558
      vertex -0.1 -7 7
      vertex 0.1 -7 7
    endloop
  endfacet
  facet normal 1.16624e-16 -0.393919 0.919145
    outer loop
      vertex 0.1 -3.10918 8.66749
      vertex -0.1 -3.13697 8.65558
      vertex 0.1 -7 7
    endloop
  endfacet
  facet normal -1.16624e-16 0.393919 0.919145
    outer loop
      vertex -0.1 7 7
      vertex -0.1 3.13697 8.65558
      vertex 0.1 3.10918 8.66749
    endloop
  endfacet
  facet normal -1.16624e-16 0.393919 0.919145
    outer loop
      vertex 0.1 7 7
      vertex -0.1 7 7
      vertex 0.1 3.10918 8.66749
    endloop
  endfacet
  facet normal 0.141724 0.985714 0.0910011
    outer loop
      vertex 1.38472 3.03211 10
      vertex -0.474383 3.2994 10
      vertex 1.1869 2.59895 15
    endloop
  endfacet
  facet normal 0.652778 0.753345 -0.0797034
    outer loop
      vertex 2.80418 1.80214 10
      vertex 1.03854 2.27408 0
      vertex 1.38472 3.03211 10
    endloop
  endfacet
  facet normal 0.652144 0.752614 0.091001
    outer loop
      vertex 2.80418 1.80214 10
      vertex 1.38472 3.03211 10
      vertex 2.40358 1.54469 15
    endloop
  endfacet
  facet normal 0.652144 0.752614 0.0910012
    outer loop
      vertex 1.1869 2.59895 15
      vertex 1.82332 2.04749 15
      vertex 1.38472 3.03211 10
    endloop
  endfacet
  facet normal 0.652144 0.752614 0.0910012
    outer loop
      vertex 1.38472 3.03211 10
      vertex 1.82332 2.04749 15
      vertex 2.24487 1.68222 15
    endloop
  endfacet
  facet normal 0.652144 0.752614 0.0910012
    outer loop
      vertex 1.38472 3.03211 10
      vertex 2.24487 1.68222 15
      vertex 2.40358 1.54469 15
    endloop
  endfacet
  facet normal 0.141724 0.985715 0.0910012
    outer loop
      vertex -0.474383 3.2994 10
      vertex -0.406614 2.82806 15
      vertex 0.13541 2.75013 15
    endloop
  endfacet
  facet normal 0.141724 0.985715 0.0910012
    outer loop
      vertex -0.474383 3.2994 10
      vertex 0.13541 2.75013 15
      vertex 0.762462 2.65997 15
    endloop
  endfacet
  facet normal 0.141724 0.985715 0.0910012
    outer loop
      vertex -0.474383 3.2994 10
      vertex 0.762462 2.65997 15
      vertex 1.1869 2.59895 15
    endloop
  endfacet
  facet normal 0.141724 -0.985715 0.0910011
    outer loop
      vertex 0.13541 -2.75013 15
      vertex -0.406614 -2.82806 15
      vertex 1.38472 -3.03211 10
    endloop
  endfacet
  facet normal 0.141724 -0.985715 0.0910011
    outer loop
      vertex 0.762462 -2.65997 15
      vertex 0.13541 -2.75013 15
      vertex 1.38472 -3.03211 10
    endloop
  endfacet
  facet normal 0.141724 -0.985715 0.0910011
    outer loop
      vertex 1.1869 -2.59895 15
      vertex 0.762462 -2.65997 15
      vertex 1.38472 -3.03211 10
    endloop
  endfacet
  facet normal 0.652144 -0.752614 0.0910011
    outer loop
      vertex 2.80418 -1.80214 10
      vertex 1.1869 -2.59895 15
      vertex 1.38472 -3.03211 10
    endloop
  endfacet
  facet normal 0.652144 -0.752614 0.091001
    outer loop
      vertex 1.82332 -2.04749 15
      vertex 1.1869 -2.59895 15
      vertex 2.80418 -1.80214 10
    endloop
  endfacet
  facet normal 0.652144 -0.752614 0.091001
    outer loop
      vertex 2.24487 -1.68222 15
      vertex 1.82332 -2.04749 15
      vertex 2.80418 -1.80214 10
    endloop
  endfacet
  facet normal 0.652144 -0.752614 0.091001
    outer loop
      vertex 2.40358 -1.54469 15
      vertex 2.24487 -1.68222 15
      vertex 2.80418 -1.80214 10
    endloop
  endfacet
  facet normal 0.955512 -0.280564 0.091001
    outer loop
      vertex 3.33333 0 10
      vertex 2.40358 -1.54469 15
      vertex 2.80418 -1.80214 10
    endloop
  endfacet
  facet normal 0.95644 -0.280836 -0.0797033
    outer loop
      vertex 2.80418 -1.80214 10
      vertex 2.51688 -0.1 0.554897
      vertex 3.19004 -0.1 8.63284
    endloop
  endfacet
  facet normal 0.95644 -0.280836 -0.0797033
    outer loop
      vertex 3.21839 0 8.62069
      vertex 2.80418 -1.80214 10
      vertex 3.19004 -0.1 8.63284
    endloop
  endfacet
  facet normal 0.95644 -0.280836 -0.0797033
    outer loop
      vertex 3.21839 0 8.62069
      vertex 3.33333 0 10
      vertex 2.80418 -1.80214 10
    endloop
  endfacet
  facet normal 0.393919 2.04091e-16 0.919145
    outer loop
      vertex 3.21839 0 8.62069
      vertex 3.19004 -0.1 8.63284
      vertex 7 -0.1 7
    endloop
  endfacet
  facet normal 0.393919 2.04091e-16 0.919145
    outer loop
      vertex 3.19004 0.1 8.63284
      vertex 3.21839 0 8.62069
      vertex 7 0.1 7
    endloop
  endfacet
  facet normal 0.393919 2.04091e-16 0.919145
    outer loop
      vertex 7 0.1 7
      vertex 3.21839 0 8.62069
      vertex 7 -0.1 7
    endloop
  endfacet
  facet normal 0.95644 0.280836 -0.0797033
    outer loop
      vertex 3.19004 0.1 8.63284
      vertex 2.10313 1.3516 0
      vertex 3.33333 0 10
    endloop
  endfacet
  facet normal 0.95644 0.280836 -0.0797033
    outer loop
      vertex 2.47064 0.1 0
      vertex 2.10313 1.3516 0
      vertex 3.19004 0.1 8.63284
    endloop
  endfacet
  facet normal 0.95644 0.280836 -0.0797033
    outer loop
      vertex 3.21839 0 8.62069
      vertex 3.19004 0.1 8.63284
      vertex 3.33333 0 10
    endloop
  endfacet
  facet normal 0.95644 0.280836 -0.0797033
    outer loop
      vertex 3.33333 0 10
      vertex 2.10313 1.3516 0
      vertex 2.80418 1.80214 10
    endloop
  endfacet
  facet normal 0.652778 0.753345 -0.0797033
    outer loop
      vertex 2.10313 1.3516 0
      vertex 1.03854 2.27408 0
      vertex 2.80418 1.80214 10
    endloop
  endfacet
  facet normal 0 0 1
    outer loop
      vertex -0.406614 2.82806 15
      vertex -1.02548 2.54543 15
      vertex 0.13541 2.75013 15
    endloop
  endfacet
  facet normal 0 0 -1
    outer loop
      vertex -1.42857 2.47436 15
      vertex -1.02548 2.54543 15
      vertex -1.58231 2.29114 15
    endloop
  endfacet
  facet normal -0.173648 0.984808 0
    outer loop
      vertex -1.42857 2.47436 15
      vertex -1.42857 2.47436 32.5
      vertex -1.02548 2.54543 15
    endloop
  endfacet
  facet normal -0.173648 0.984808 0
    outer loop
      vertex -1.02548 2.54543 15
      vertex -1.42857 2.47436 32.5
      vertex 0.496138 2.81374 32.5
    endloop
  endfacet
  facet normal -0.173648 0.984808 0
    outer loop
      vertex 0.13541 2.75013 15
      vertex 0.496138 2.81374 32.5
      vertex 0.496138 2.81374 15
    endloop
  endfacet
  facet normal -0.173648 0.984808 0
    outer loop
      vertex -1.02548 2.54543 15
      vertex 0.496138 2.81374 32.5
      vertex 0.13541 2.75013 15
    endloop
  endfacet
  facet normal 0 0 -1
    outer loop
      vertex -2.68484 -0.892978 15
      vertex -2.45363 -1.25274 15
      vertex -2.68484 -0.9772 15
    endloop
  endfacet
  facet normal -0.766044 -0.642788 0
    outer loop
      vertex -2.68484 -0.9772 15
      vertex -2.45363 -1.25274 15
      vertex -2.68484 -0.9772 32.5
    endloop
  endfacet
  facet normal -0.766044 -0.642788 0
    outer loop
      vertex -2.68484 -0.9772 32.5
      vertex -2.45363 -1.25274 15
      vertex -1.58231 -2.29114 15
    endloop
  endfacet
  facet normal -0.766044 -0.642788 0
    outer loop
      vertex -2.68484 -0.9772 32.5
      vertex -1.58231 -2.29114 15
      vertex -1.42857 -2.47436 15
    endloop
  endfacet
  facet normal -0.766044 -0.642788 0
    outer loop
      vertex -2.68484 -0.9772 32.5
      vertex -1.42857 -2.47436 15
      vertex -1.42857 -2.47436 32.5
    endloop
  endfacet
  facet normal 0 0 1
    outer loop
      vertex -1.58231 -2.29114 15
      vertex -2.45363 -1.25274 15
      vertex -1.87103 -2.15928 15
    endloop
  endfacet
  facet normal -0.6749 0.566309 0.473079
    outer loop
      vertex -1.42857 2.47436 32.5
      vertex -2.68484 0.9772 32.5
      vertex 0 0 37.5
    endloop
  endfacet
  facet normal -0.152987 0.867635 0.473079
    outer loop
      vertex 0.496138 2.81374 32.5
      vertex -1.42857 2.47436 32.5
      vertex 0 0 37.5
    endloop
  endfacet
  facet normal -0.88102 0 0.473079
    outer loop
      vertex -2.68484 0.9772 32.5
      vertex -2.68484 -0.9772 32.5
      vertex 0 0 37.5
    endloop
  endfacet
  facet normal -0.6749 -0.566309 0.473079
    outer loop
      vertex 0 0 37.5
      vertex -2.68484 -0.9772 32.5
      vertex -1.42857 -2.47436 32.5
    endloop
  endfacet
  facet normal 0 0 -1
    outer loop
      vertex -1.02548 -2.54543 15
      vertex -1.42857 -2.47436 15
      vertex -1.58231 -2.29114 15
    endloop
  endfacet
  facet normal -0.173648 -0.984808 0
    outer loop
      vertex -1.42857 -2.47436 32.5
      vertex -1.42857 -2.47436 15
      vertex -1.02548 -2.54543 15
    endloop
  endfacet
  facet normal -0.173648 -0.984808 0
    outer loop
      vertex 0.496138 -2.81374 15
      vertex -1.42857 -2.47436 32.5
      vertex 0.13541 -2.75013 15
    endloop
  endfacet
  facet normal -0.173648 -0.984808 0
    outer loop
      vertex 0.13541 -2.75013 15
      vertex -1.42857 -2.47436 32.5
      vertex -1.02548 -2.54543 15
    endloop
  endfacet
  facet normal -0.173648 -0.984808 0
    outer loop
      vertex 0.496138 -2.81374 32.5
      vertex -1.42857 -2.47436 32.5
      vertex 0.496138 -2.81374 15
    endloop
  endfacet
  facet normal 0 0 1
    outer loop
      vertex 0.13541 -2.75013 15
      vertex -1.02548 -2.54543 15
      vertex -0.406614 -2.82806 15
    endloop
  endfacet
  facet normal 0 0 1
    outer loop
      vertex 1.1869 2.59895 15
      vertex 0.762462 2.65997 15
      vertex 1.82332 2.04749 15
    endloop
  endfacet
  facet normal 0.955512 0.280564 0.091001
    outer loop
      vertex 3.33333 0 10
      vertex 2.80418 1.80214 10
      vertex 2.85714 0 15
    endloop
  endfacet
  facet normal 0.955512 0.280563 0.0910009
    outer loop
      vertex 2.80418 1.80214 10
      vertex 2.40358 1.54469 15
      vertex 2.85714 0 15
    endloop
  endfacet
  facet normal 0 0 1
    outer loop
      vertex 2.40358 1.54469 15
      vertex 2.24487 1.68222 15
      vertex 2.85714 0 15
    endloop
  endfacet
  facet normal 0 0 -1
    outer loop
      vertex 2.1887 1.83654 15
      vertex 2.24487 1.68222 15
      vertex 1.82332 2.04749 15
    endloop
  endfacet
  facet normal 0.939693 0.34202 0
    outer loop
      vertex 2.24487 1.68222 15
      vertex 2.1887 1.83654 15
      vertex 2.1887 1.83654 32.5
    endloop
  endfacet
  facet normal 0.939693 0.34202 0
    outer loop
      vertex 2.85714 0 15
      vertex 2.24487 1.68222 15
      vertex 2.85714 0 32.5
    endloop
  endfacet
  facet normal 0.939693 0.34202 0
    outer loop
      vertex 2.85714 0 32.5
      vertex 2.24487 1.68222 15
      vertex 2.1887 1.83654 32.5
    endloop
  endfacet
  facet normal 0.5 0.866025 0
    outer loop
      vertex 0.496138 2.81374 15
      vertex 0.496138 2.81374 32.5
      vertex 0.762462 2.65997 15
    endloop
  endfacet
  facet normal 0.5 0.866025 0
    outer loop
      vertex 0.762462 2.65997 15
      vertex 0.496138 2.81374 32.5
      vertex 2.1887 1.83654 32.5
    endloop
  endfacet
  facet normal 0.5 0.866025 0
    outer loop
      vertex 1.82332 2.04749 15
      vertex 2.1887 1.83654 32.5
      vertex 2.1887 1.83654 15
    endloop
  endfacet
  facet normal 0.5 0.866025 0
    outer loop
      vertex 0.762462 2.65997 15
      vertex 2.1887 1.83654 32.5
      vertex 1.82332 2.04749 15
    endloop
  endfacet
  facet normal 0 0 -1
    outer loop
      vertex 0.496138 2.81374 15
      vertex 0.762462 2.65997 15
      vertex 0.13541 2.75013 15
    endloop
  endfacet
  facet normal 0 0 -1
    outer loop
      vertex 0.762462 -2.65997 15
      vertex 0.496138 -2.81374 15
      vertex 0.13541 -2.75013 15
    endloop
  endfacet
  facet normal 0.5 -0.866025 0
    outer loop
      vertex 0.496138 -2.81374 32.5
      vertex 0.496138 -2.81374 15
      vertex 0.762462 -2.65997 15
    endloop
  endfacet
  facet normal 0.5 -0.866025 0
    outer loop
      vertex 2.1887 -1.83654 15
      vertex 0.496138 -2.81374 32.5
      vertex 1.82332 -2.04749 15
    endloop
  endfacet
  facet normal 0.5 -0.866025 0
    outer loop
      vertex 1.82332 -2.04749 15
      vertex 0.496138 -2.81374 32.5
      vertex 0.762462 -2.65997 15
    endloop
  endfacet
  facet normal 0.5 -0.866025 0
    outer loop
      vertex 2.1887 -1.83654 32.5
      vertex 0.496138 -2.81374 32.5
      vertex 2.1887 -1.83654 15
    endloop
  endfacet
  facet normal 0 0 1
    outer loop
      vertex 1.82332 -2.04749 15
      vertex 0.762462 -2.65997 15
      vertex 1.1869 -2.59895 15
    endloop
  endfacet
  facet normal 0 0 -1
    outer loop
      vertex 2.24487 -1.68222 15
      vertex 2.1887 -1.83654 15
      vertex 1.82332 -2.04749 15
    endloop
  endfacet
  facet normal 0.939693 -0.34202 0
    outer loop
      vertex 2.1887 -1.83654 32.5
      vertex 2.1887 -1.83654 15
      vertex 2.24487 -1.68222 15
    endloop
  endfacet
  facet normal 0.939693 -0.34202 0
    outer loop
      vertex 2.85714 0 32.5
      vertex 2.1887 -1.83654 32.5
      vertex 2.85714 0 15
    endloop
  endfacet
  facet normal 0.939693 -0.34202 0
    outer loop
      vertex 2.85714 0 15
      vertex 2.1887 -1.83654 32.5
      vertex 2.24487 -1.68222 15
    endloop
  endfacet
  facet normal 0 0 1
    outer loop
      vertex 2.85714 0 15
      vertex 2.24487 -1.68222 15
      vertex 2.40358 -1.54469 15
    endloop
  endfacet
  facet normal 0.955512 -0.280563 0.091001
    outer loop
      vertex 2.85714 0 15
      vertex 2.40358 -1.54469 15
      vertex 3.33333 0 10
    endloop
  endfacet
  facet normal 0.44051 0.762986 0.473079
    outer loop
      vertex 0.496138 2.81374 32.5
      vertex 0 0 37.5
      vertex 2.1887 1.83654 32.5
    endloop
  endfacet
  facet normal -0.152987 -0.867635 0.473079
    outer loop
      vertex 0 0 37.5
      vertex -1.42857 -2.47436 32.5
      vertex 0.496138 -2.81374 32.5
    endloop
  endfacet
  facet normal 0.827888 -0.301327 0.473079
    outer loop
      vertex 2.85714 0 32.5
      vertex 0 0 37.5
      vertex 2.1887 -1.83654 32.5
    endloop
  endfacet
  facet normal 0.44051 -0.762986 0.473079
    outer loop
      vertex 2.1887 -1.83654 32.5
      vertex 0 0 37.5
      vertex 0.496138 -2.81374 32.5
    endloop
  endfacet
  facet normal 0.827888 0.301327 0.473079
    outer loop
      vertex 2.1887 1.83654 32.5
      vertex 0 0 37.5
      vertex 2.85714 0 32.5
    endloop
  endfacet
  facet normal -0.857143 0.494872 0.142857
    outer loop
      vertex 2.70833 4.41587 10
      vertex 1.66667 3.33333 7.5
      vertex 2.08333 3.33333 10
    endloop
  endfacet
  facet normal -0.857143 -0.494872 0.142857
    outer loop
      vertex 2.08333 3.33333 10
      vertex 1.66667 3.33333 7.5
      vertex 2.5 1.88996 7.5
    endloop
  endfacet
  facet normal -0.864249 -0.498975 -0.0640184
    outer loop
      vertex 2.5 1.88996 7.5
      vertex 1.66667 3.33333 7.5
      vertex 2.77778 2.37108 0
    endloop
  endfacet
  facet normal -0.864249 -0.498974 -0.0640185
    outer loop
      vertex 2.77778 2.37108 0
      vertex 1.66667 3.33333 7.5
      vertex 2.22222 3.33333 0
    endloop
  endfacet
  facet normal -0.864249 0.498975 -0.0640185
    outer loop
      vertex 2.22222 3.33333 0
      vertex 1.66667 3.33333 7.5
      vertex 2.5 4.77671 7.5
    endloop
  endfacet
  facet normal -0.857143 0.494872 0.142857
    outer loop
      vertex 2.5 4.77671 7.5
      vertex 1.66667 3.33333 7.5
      vertex 2.70833 4.41587 10
    endloop
  endfacet
  facet normal 0 0 1
    outer loop
      vertex 2.70833 4.41587 10
      vertex 2.08333 3.33333 10
      vertex 2.70833 2.2508 10
    endloop
  endfacet
  facet normal 0 0 1
    outer loop
      vertex 4.58333 3.33333 10
      vertex 2.70833 4.41587 10
      vertex 3.95833 2.2508 10
    endloop
  endfacet
  facet normal 0 0 1
    outer loop
      vertex 3.95833 2.2508 10
      vertex 2.70833 4.41587 10
      vertex 2.70833 2.2508 10
    endloop
  endfacet
  facet normal 0 0 1
    outer loop
      vertex 3.95833 4.41587 10
      vertex 2.70833 4.41587 10
      vertex 4.58333 3.33333 10
    endloop
  endfacet
  facet normal 0 0.989743 0.142857
    outer loop
      vertex 2.5 4.77671 7.5
      vertex 2.70833 4.41587 10
      vertex 4.16667 4.77671 7.5
    endloop
  endfacet
  facet normal 0 0.989743 0.142857
    outer loop
      vertex 4.16667 4.77671 7.5
      vertex 2.70833 4.41587 10
      vertex 3.95833 4.41587 10
    endloop
  endfacet
  facet normal -0.857143 -0.494872 0.142857
    outer loop
      vertex 2.70833 2.2508 10
      vertex 2.08333 3.33333 10
      vertex 2.5 1.88996 7.5
    endloop
  endfacet
  facet normal 0 -0.989743 0.142857
    outer loop
      vertex 2.70833 2.2508 10
      vertex 2.5 1.88996 7.5
      vertex 4.16667 1.88996 7.5
    endloop
  endfacet
  facet normal 0 -0.989743 0.142857
    outer loop
      vertex 3.95833 2.2508 10
      vertex 2.70833 2.2508 10
      vertex 4.16667 1.88996 7.5
    endloop
  endfacet
  facet normal 0 -0.997949 -0.0640185
    outer loop
      vertex 4.16667 1.88996 7.5
      vertex 2.5 1.88996 7.5
      vertex 2.77778 2.37108 0
    endloop
  endfacet
  facet normal 0 -0.997949 -0.0640185
    outer loop
      vertex 3.88889 2.37108 0
      vertex 4.16667 1.88996 7.5
      vertex 2.77778 2.37108 0
    endloop
  endfacet
  facet normal 0 0 -1
    outer loop
      vertex 2.22222 3.33333 0
      vertex 2.77778 4.29558 0
      vertex 2.77778 2.37108 0
    endloop
  endfacet
  facet normal 0 0 -1
    outer loop
      vertex 2.77778 2.37108 0
      vertex 2.77778 4.29558 0
      vertex 3.88889 4.29558 0
    endloop
  endfacet
  facet normal 0 0 -1
    outer loop
      vertex 2.77778 2.37108 0
      vertex 3.88889 4.29558 0
      vertex 4.44444 3.33333 0
    endloop
  endfacet
  facet normal 0 0 -1
    outer loop
      vertex 2.77778 2.37108 0
      vertex 4.44444 3.33333 0
      vertex 3.88889 2.37108 0
    endloop
  endfacet
  facet normal -0.864249 0.498974 -0.0640184
    outer loop
      vertex 2.77778 4.29558 0
      vertex 2.22222 3.33333 0
      vertex 2.5 4.77671 7.5
    endloop
  endfacet
  facet normal 0 0.997949 -0.0640185
    outer loop
      vertex 2.5 4.77671 7.5
      vertex 4.16667 4.77671 7.5
      vertex 2.77778 4.29558 0
    endloop
  endfacet
  facet normal 0 0.997949 -0.0640185
    outer loop
      vertex 2.77778 4.29558 0
      vertex 4.16667 4.77671 7.5
      vertex 3.88889 4.29558 0
    endloop
  endfacet
  facet normal 0.857143 0.494872 0.142857
    outer loop
      vertex 4.16667 4.77671 7.5
      vertex 3.95833 4.41587 10
      vertex 4.58333 3.33333 10
    endloop
  endfacet
  facet normal 0.857143 0.494872 0.142857
    outer loop
      vertex 5 3.33333 7.5
      vertex 4.16667 4.77671 7.5
      vertex 4.58333 3.33333 10
    endloop
  endfacet
  facet normal 0.857143 -0.494872 0.142857
    outer loop
      vertex 4.58333 3.33333 10
      vertex 3.95833 2.2508 10
      vertex 5 3.33333 7.5
    endloop
  endfacet
  facet normal 0.857143 -0.494872 0.142857
    outer loop
      vertex 5 3.33333 7.5
      vertex 3.95833 2.2508 10
      vertex 4.16667 1.88996 7.5
    endloop
  endfacet
  facet normal 0.864249 0.498975 -0.0640184
    outer loop
      vertex 5 3.33333 7.5
      vertex 3.88889 4.29558 0
      vertex 4.16667 4.77671 7.5
    endloop
  endfacet
  facet normal 0.864249 -0.498975 -0.0640185
    outer loop
      vertex 5 3.33333 7.5
      vertex 4.16667 1.88996 7.5
      vertex 4.44444 3.33333 0
    endloop
  endfacet
  facet normal 0.864249 -0.498974 -0.0640184
    outer loop
      vertex 4.16667 1.88996 7.5
      vertex 3.88889 2.37108 0
      vertex 4.44444 3.33333 0
    endloop
  endfacet
  facet normal 0.864249 0.498974 -0.0640185
    outer loop
      vertex 4.44444 3.33333 0
      vertex 3.88889 4.29558 0
      vertex 5 3.33333 7.5
    endloop
  endfacet
  facet normal -0.857143 0.494872 0.142857
    outer loop
      vertex -3.95833 4.41587 10
      vertex -5 3.33333 7.5
      vertex -4.58333 3.33333 10
    endloop
  endfacet
  facet normal -0.857143 -0.494872 0.142857
    outer loop
      vertex -4.58333 3.33333 10
      vertex -5 3.33333 7.5
      vertex -4.16667 1.88996 7.5
    endloop
  endfacet
  facet normal -0.864249 -0.498975 -0.0640184
    outer loop
      vertex -4.16667 1.88996 7.5
      vertex -5 3.33333 7.5
      vertex -3.88889 2.37108 0
    endloop
  endfacet
  facet normal -0.864249 -0.498974 -0.0640185
    outer loop
      vertex -3.88889 2.37108 0
      vertex -5 3.33333 7.5
      vertex -4.44444 3.33333 0
    endloop
  endfacet
  facet normal -0.864249 0.498975 -0.0640185
    outer loop
      vertex -4.44444 3.33333 0
      vertex -5 3.33333 7.5
      vertex -4.16667 4.77671 7.5
    endloop
  endfacet
  facet normal -0.857143 0.494872 0.142857
    outer loop
      vertex -4.16667 4.77671 7.5
      vertex -5 3.33333 7.5
      vertex -3.95833 4.41587 10
    endloop
  endfacet
  facet normal 0 0 1
    outer loop
      vertex -3.95833 4.41587 10
      vertex -4.58333 3.33333 10
      vertex -3.95833 2.2508 10
    endloop
  endfacet
  facet normal 0 0 1
    outer loop
      vertex -2.08333 3.33333 10
      vertex -3.95833 4.41587 10
      vertex -2.70833 2.2508 10
    endloop
  endfacet
  facet normal 0 0 1
    outer loop
      vertex -2.70833 2.2508 10
      vertex -3.95833 4.41587 10
      vertex -3.95833 2.2508 10
    endloop
  endfacet
  facet normal 0 0 1
    outer loop
      vertex -2.70833 4.41587 10
      vertex -3.95833 4.41587 10
      vertex -2.08333 3.33333 10
    endloop
  endfacet
  facet normal 0 0.989743 0.142857
    outer loop
      vertex -4.16667 4.77671 7.5
      vertex -3.95833 4.41587 10
      vertex -2.5 4.77671 7.5
    endloop
  endfacet
  facet normal 0 0.989743 0.142857
    outer loop
      vertex -2.5 4.77671 7.5
      vertex -3.95833 4.41587 10
      vertex -2.70833 4.41587 10
    endloop
  endfacet
  facet normal -0.857143 -0.494872 0.142857
    outer loop
      vertex -3.95833 2.2508 10
      vertex -4.58333 3.33333 10
      vertex -4.16667 1.88996 7.5
    endloop
  endfacet
  facet normal 0 -0.989743 0.142857
    outer loop
      vertex -3.95833 2.2508 10
      vertex -4.16667 1.88996 7.5
      vertex -2.5 1.88996 7.5
    endloop
  endfacet
  facet normal 0 -0.989743 0.142857
    outer loop
      vertex -2.70833 2.2508 10
      vertex -3.95833 2.2508 10
      vertex -2.5 1.88996 7.5
    endloop
  endfacet
  facet normal 0 -0.997949 -0.0640185
    outer loop
      vertex -2.5 1.88996 7.5
      vertex -4.16667 1.88996 7.5
      vertex -3.88889 2.37108 0
    endloop
  endfacet
  facet normal 0 -0.997949 -0.0640185
    outer loop
      vertex -2.77778 2.37108 0
      vertex -2.5 1.88996 7.5
      vertex -3.88889 2.37108 0
    endloop
  endfacet
  facet normal 0 0 -1
    outer loop
      vertex -4.44444 3.33333 0
      vertex -3.88889 4.29558 0
      vertex -3.88889 2.37108 0
    endloop
  endfacet
  facet normal 0 0 -1
    outer loop
      vertex -3.88889 2.37108 0
      vertex -3.88889 4.29558 0
      vertex -2.77778 4.29558 0
    endloop
  endfacet
  facet normal 0 0 -1
    outer loop
      vertex -3.88889 2.37108 0
      vertex -2.77778 4.29558 0
      vertex -2.22222 3.33333 0
    endloop
  endfacet
  facet normal 0 0 -1
    outer loop
      vertex -3.88889 2.37108 0
      vertex -2.22222 3.33333 0
      vertex -2.77778 2.37108 0
    endloop
  endfacet
  facet normal -0.864249 0.498974 -0.0640184
    outer loop
      vertex -3.88889 4.29558 0
      vertex -4.44444 3.33333 0
      vertex -4.16667 4.77671 7.5
    endloop
  endfacet
  facet normal 0 0.997949 -0.0640185
    outer loop
      vertex -4.16667 4.77671 7.5
      vertex -2.5 4.77671 7.5
      vertex -3.88889 4.29558 0
    endloop
  endfacet
  facet normal 0 0.997949 -0.0640185
    outer loop
      vertex -3.88889 4.29558 0
      vertex -2.5 4.77671 7.5
      vertex -2.77778 4.29558 0
    endloop
  endfacet
  facet normal 0.857143 0.494872 0.142857
    outer loop
      vertex -2.5 4.77671 7.5
      vertex -2.70833 4.41587 10
      vertex -2.08333 3.33333 10
    endloop
  endfacet
  facet normal 0.857143 0.494872 0.142857
    outer loop
      vertex -1.66667 3.33333 7.5
      vertex -2.5 4.77671 7.5
      vertex -2.08333 3.33333 10
    endloop
  endfacet
  facet normal 0.857143 -0.494872 0.142857
    outer loop
      vertex -2.08333 3.33333 10
      vertex -2.70833 2.2508 10
      vertex -1.66667 3.33333 7.5
    endloop
  endfacet
  facet normal 0.857143 -0.494872 0.142857
    outer loop
      vertex -1.66667 3.33333 7.5
      vertex -2.70833 2.2508 10
      vertex -2.5 1.88996 7.5
    endloop
  endfacet
  facet normal 0.864249 0.498975 -0.0640184
    outer loop
      vertex -1.66667 3.33333 7.5
      vertex -2.77778 4.29558 0
      vertex -2.5 4.77671 7.5
    endloop
  endfacet
  facet normal 0.864249 -0.498975 -0.0640185
    outer loop
      vertex -1.66667 3.33333 7.5
      vertex -2.5 1.88996 7.5
      vertex -2.22222 3.33333 0
    endloop
  endfacet
  facet normal 0.864249 -0.498974 -0.0640184
    outer loop
      vertex -2.5 1.88996 7.5
      vertex -2.77778 2.37108 0
      vertex -2.22222 3.33333 0
    endloop
  endfacet
  facet normal 0.864249 0.498974 -0.0640185
    outer loop
      vertex -2.22222 3.33333 0
      vertex -2.77778 4.29558 0
      vertex -1.66667 3.33333 7.5
    endloop
  endfacet
  facet normal -0.857143 0.494872 0.142857
    outer loop
      vertex 2.70833 -2.2508 10
      vertex 1.66667 -3.33333 7.5
      vertex 2.08333 -3.33333 10
    endloop
  endfacet
  facet normal -0.857143 -0.494872 0.142857
    outer loop
      vertex 2.08333 -3.33333 10
      vertex 1.66667 -3.33333 7.5
      vertex 2.5 -4.77671 7.5
    endloop
  endfacet
  facet normal -0.864249 -0.498975 -0.0640184
    outer loop
      vertex 2.5 -4.77671 7.5
      vertex 1.66667 -3.33333 7.5
      vertex 2.77778 -4.29558 0
    endloop
  endfacet
  facet normal -0.864249 -0.498974 -0.0640185
    outer loop
      vertex 2.77778 -4.29558 0
      vertex 1.66667 -3.33333 7.5
      vertex 2.22222 -3.33333 0
    endloop
  endfacet
  facet normal -0.864249 0.498975 -0.0640185
    outer loop
      vertex 2.22222 -3.33333 0
      vertex 1.66667 -3.33333 7.5
      vertex 2.5 -1.88996 7.5
    endloop
  endfacet
  facet normal -0.857143 0.494872 0.142857
    outer loop
      vertex 2.5 -1.88996 7.5
      vertex 1.66667 -3.33333 7.5
      vertex 2.70833 -2.2508 10
    endloop
  endfacet
  facet normal 0 0 1
    outer loop
      vertex 2.70833 -2.2508 10
      vertex 2.08333 -3.33333 10
      vertex 2.70833 -4.41587 10
    endloop
  endfacet
  facet normal 0 0 1
    outer loop
      vertex 4.58333 -3.33333 10
      vertex 2.70833 -2.2508 10
      vertex 3.95833 -4.41587 10
    endloop
  endfacet
  facet normal 0 0 1
    outer loop
      vertex 3.95833 -4.41587 10
      vertex 2.70833 -2.2508 10
      vertex 2.70833 -4.41587 10
    endloop
  endfacet
  facet normal 0 0 1
    outer loop
      vertex 3.95833 -2.2508 10
      vertex 2.70833 -2.2508 10
      vertex 4.58333 -3.33333 10
    endloop
  endfacet
  facet normal 0 0.989743 0.142857
    outer loop
      vertex 2.5 -1.88996 7.5
      vertex 2.70833 -2.2508 10
      vertex 4.16667 -1.88996 7.5
    endloop
  endfacet
  facet normal 0 0.989743 0.142857
    outer loop
      vertex 4.16667 -1.88996 7.5
      vertex 2.70833 -2.2508 10
      vertex 3.95833 -2.2508 10
    endloop
  endfacet
  facet normal -0.857143 -0.494872 0.142857
    outer loop
      vertex 2.70833 -4.41587 10
      vertex 2.08333 -3.33333 10
      vertex 2.5 -4.77671 7.5
    endloop
  endfacet
  facet normal 0 -0.989743 0.142857
    outer loop
      vertex 2.70833 -4.41587 10
      vertex 2.5 -4.77671 7.5
      vertex 4.16667 -4.77671 7.5
    endloop
  endfacet
  facet normal 0 -0.989743 0.142857
    outer loop
      vertex 3.95833 -4.41587 10
      vertex 2.70833 -4.41587 10
      vertex 4.16667 -4.77671 7.5
    endloop
  endfacet
  facet normal 0 -0.997949 -0.0640185
    outer loop
      vertex 4.16667 -4.77671 7.5
      vertex 2.5 -4.77671 7.5
      vertex 2.77778 -4.29558 0
    endloop
  endfacet
  facet normal 0 -0.997949 -0.0640185
    outer loop
      vertex 3.88889 -4.29558 0
      vertex 4.16667 -4.77671 7.5
      vertex 2.77778 -4.29558 0
    endloop
  endfacet
  facet normal 0 0 -1
    outer loop
      vertex 2.22222 -3.33333 0
      vertex 2.77778 -2.37108 0
      vertex 2.77778 -4.29558 0
    endloop
  endfacet
  facet normal 0 0 -1
    outer loop
      vertex 2.77778 -4.29558 0
      vertex 2.77778 -2.37108 0
      vertex 3.88889 -2.37108 0
    endloop
  endfacet
  facet normal 0 0 -1
    outer loop
      vertex 2.77778 -4.29558 0
      vertex 3.88889 -2.37108 0
      vertex 4.44444 -3.33333 0
    endloop
  endfacet
  facet normal 0 0 -1
    outer loop
      vertex 2.77778 -4.29558 0
      vertex 4.44444 -3.33333 0
      vertex 3.88889 -4.29558 0
    endloop
  endfacet
  facet normal -0.864249 0.498974 -0.0640184
    outer loop
      vertex 2.77778 -2.37108 0
      vertex 2.22222 -3.33333 0
      vertex 2.5 -1.88996 7.5
    endloop
  endfacet
  facet normal 0 0.997949 -0.0640185
    outer loop
      vertex 2.5 -1.88996 7.5
      vertex 4.16667 -1.88996 7.5
      vertex 2.77778 -2.37108 0
    endloop
  endfacet
  facet normal 0 0.997949 -0.0640185
    outer loop
      vertex 2.77778 -2.37108 0
      vertex 4.16667 -1.88996 7.5
      vertex 3.88889 -2.37108 0
    endloop
  endfacet
  facet normal 0.857143 0.494872 0.142857
    outer loop
      vertex 4.16667 -1.88996 7.5
      vertex 3.95833 -2.2508 10
      vertex 4.58333 -3.33333 10
    endloop
  endfacet
  facet normal 0.857143 0.494872 0.142857
    outer loop
      vertex 5 -3.33333 7.5
      vertex 4.16667 -1.88996 7.5
      vertex 4.58333 -3.33333 10
    endloop
  endfacet
  facet normal 0.857143 -0.494872 0.142857
    outer loop
      vertex 4.58333 -3.33333 10
      vertex 3.95833 -4.41587 10
      vertex 5 -3.33333 7.5
    endloop
  endfacet
  facet normal 0.857143 -0.494872 0.142857
    outer loop
      vertex 5 -3.33333 7.5
      vertex 3.95833 -4.41587 10
      vertex 4.16667 -4.77671 7.5
    endloop
  endfacet
  facet normal 0.864249 0.498975 -0.0640184
    outer loop
      vertex 5 -3.33333 7.5
      vertex 3.88889 -2.37108 0
      vertex 4.16667 -1.88996 7.5
    endloop
  endfacet
  facet normal 0.864249 -0.498975 -0.0640185
    outer loop
      vertex 5 -3.33333 7.5
      vertex 4.16667 -4.77671 7.5
      vertex 4.44444 -3.33333 0
    endloop
  endfacet
  facet normal 0.864249 -0.498974 -0.0640184
    outer loop
      vertex 4.16667 -4.77671 7.5
      vertex 3.88889 -4.29558 0
      vertex 4.44444 -3.33333 0
    endloop
  endfacet
  facet normal 0.864249 0.498974 -0.0640185
    outer loop
      vertex 4.44444 -3.33333 0
      vertex 3.88889 -2.37108 0
      vertex 5 -3.33333 7.5
    endloop
  endfacet
  facet normal -0.857143 0.494872 0.142857
    outer loop
      vertex -3.95833 -2.2508 10
      vertex -5 -3.33333 7.5
      vertex -4.58333 -3.33333 10
    endloop
  endfacet
  facet normal -0.857143 -0.494872 0.142857
    outer loop
      vertex -4.58333 -3.33333 10
      vertex -5 -3.33333 7.5
      vertex -4.16667 -4.77671 7.5
    endloop
  endfacet
  facet normal -0.864249 -0.498975 -0.0640184
    outer loop
      vertex -4.16667 -4.77671 7.5
      vertex -5 -3.33333 7.5
      vertex -3.88889 -4.29558 0
    endloop
  endfacet
  facet normal -0.864249 -0.498974 -0.0640185
    outer loop
      vertex -3.88889 -4.29558 0
      vertex -5 -3.33333 7.5
      vertex -4.44444 -3.33333 0
    endloop
  endfacet
  facet normal -0.864249 0.498975 -0.0640185
    outer loop
      vertex -4.44444 -3.33333 0
      vertex -5 -3.33333 7.5
      vertex -4.16667 -1.88996 7.5
    endloop
  endfacet
  facet normal -0.857143 0.494872 0.142857
    outer loop
      vertex -4.16667 -1.88996 7.5
      vertex -5 -3.33333 7.5
      vertex -3.95833 -2.2508 10
    endloop
  endfacet
  facet normal 0 0 1
    outer loop
      vertex -3.95833 -2.2508 10
      vertex -4.58333 -3.33333 10
      vertex -3.95833 -4.41587 10
    endloop
  endfacet
  facet normal 0 0 1
    outer loop
      vertex -2.08333 -3.33333 10
      vertex -3.95833 -2.2508 10
      vertex -2.70833 -4.41587 10
    endloop
  endfacet
  facet normal 0 0 1
    outer loop
      vertex -2.70833 -4.41587 10
      vertex -3.95833 -2.2508 10
      vertex -3.95833 -4.41587 10
    endloop
  endfacet
  facet normal 0 0 1
    outer loop
      vertex -2.70833 -2.2508 10
      vertex -3.95833 -2.2508 10
      vertex -2.08333 -3.33333 10
    endloop
  endfacet
  facet normal 0 0.989743 0.142857
    outer loop
      vertex -4.16667 -1.88996 7.5
      vertex -3.95833 -2.2508 10
      vertex -2.5 -1.88996 7.5
    endloop
  endfacet
  facet normal 0 0.989743 0.142857
    outer loop
      vertex -2.5 -1.88996 7.5
      vertex -3.95833 -2.2508 10
      vertex -2.70833 -2.2508 10
    endloop
  endfacet
  facet normal -0.857143 -0.494872 0.142857
    outer loop
      vertex -3.95833 -4.41587 10
      vertex -4.58333 -3.33333 10
      vertex -4.16667 -4.77671 7.5
    endloop
  endfacet
  facet normal 0 -0.989743 0.142857
    outer loop
      vertex -3.95833 -4.41587 10
      vertex -4.16667 -4.77671 7.5
      vertex -2.5 -4.77671 7.5
    endloop
  endfacet
  facet normal 0 -0.989743 0.142857
    outer loop
      vertex -2.70833 -4.41587 10
      vertex -3.95833 -4.41587 10
      vertex -2.5 -4.77671 7.5
    endloop
  endfacet
  facet normal 0 -0.997949 -0.0640185
    outer loop
      vertex -2.5 -4.77671 7.5
      vertex -4.16667 -4.77671 7.5
      vertex -3.88889 -4.29558 0
    endloop
  endfacet
  facet normal 0 -0.997949 -0.0640185
    outer loop
      vertex -2.77778 -4.29558 0
      vertex -2.5 -4.77671 7.5
      vertex -3.88889 -4.29558 0
    endloop
  endfacet
  facet normal 0 0 -1
    outer loop
      vertex -4.44444 -3.33333 0
      vertex -3.88889 -2.37108 0
      vertex -3.88889 -4.29558 0
    endloop
  endfacet
  facet normal 0 0 -1
    outer loop
      vertex -3.88889 -4.29558 0
      vertex -3.88889 -2.37108 0
      vertex -2.77778 -2.37108 0
    endloop
  endfacet
  facet normal 0 0 -1
    outer loop
      vertex -3.88889 -4.29558 0
      vertex -2.77778 -2.37108 0
      vertex -2.22222 -3.33333 0
    endloop
  endfacet
  facet normal 0 0 -1
    outer loop
      vertex -3.88889 -4.29558 0
      vertex -2.22222 -3.33333 0
      vertex -2.77778 -4.29558 0
    endloop
  endfacet
  facet normal -0.864249 0.498974 -0.0640184
    outer loop
      vertex -3.88889 -2.37108 0
      vertex -4.44444 -3.33333 0
      vertex -4.16667 -1.88996 7.5
    endloop
  endfacet
  facet normal 0 0.997949 -0.0640185
    outer loop
      vertex -4.16667 -1.88996 7.5
      vertex -2.5 -1.88996 7.5
      vertex -3.88889 -2.37108 0
    endloop
  endfacet
  facet normal 0 0.997949 -0.0640185
    outer loop
      vertex -3.88889 -2.37108 0
      vertex -2.5 -1.88996 7.5
      vertex -2.77778 -2.37108 0
    endloop
  endfacet
  facet normal 0.857143 0.494872 0.142857
    outer loop
      vertex -2.5 -1.88996 7.5
      vertex -2.70833 -2.2508 10
      vertex -2.08333 -3.33333 10
    endloop
  endfacet
  facet normal 0.857143 0.494872 0.142857
    outer loop
      vertex -1.66667 -3.33333 7.5
      vertex -2.5 -1.88996 7.5
      vertex -2.08333 -3.33333 10
    endloop
  endfacet
  facet normal 0.857143 -0.494872 0.142857
    outer loop
      vertex -2.08333 -3.33333 10
      vertex -2.70833 -4.41587 10
      vertex -1.66667 -3.33333 7.5
    endloop
  endfacet
  facet normal 0.857143 -0.494872 0.142857
    outer loop
      vertex -1.66667 -3.33333 7.5
      vertex -2.70833 -4.41587 10
      vertex -2.5 -4.77671 7.5
    endloop
  endfacet
  facet normal 0.864249 0.498975 -0.0640184
    outer loop
      vertex -1.66667 -3.33333 7.5
      vertex -2.77778 -2.37108 0
      vertex -2.5 -1.88996 7.5
    endloop
  endfacet
  facet normal 0.864249 -0.498975 -0.0640185
    outer loop
      vertex -1.66667 -3.33333 7.5
      vertex -2.5 -4.77671 7.5
      vertex -2.22222 -3.33333 0
    endloop
  endfacet
  facet normal 0.864249 -0.498974 -0.0640184
    outer loop
      vertex -2.5 -4.77671 7.5
      vertex -2.77778 -4.29558 0
      vertex -2.22222 -3.33333 0
    endloop
  endfacet
  facet normal 0.864249 0.498974 -0.0640185
    outer loop
      vertex -2.22222 -3.33333 0
      vertex -2.77778 -2.37108 0
      vertex -1.66667 -3.33333 7.5
    endloop
  endfacet
endsolid OpenSCAD_Model
